<svg width="1130" height="603" viewBox="0 0 1130 603" fill="none" xmlns="http://www.w3.org/2000/svg">
<g filter="url(#filter0_d_8_4759)">
<rect x="6" y="132.562" width="467.018" height="467.883" rx="40" transform="rotate(-10 6 132.562)" fill="white"/>
</g>
<g filter="url(#filter1_d_8_4759)">
<rect width="467.018" height="467.883" rx="40" transform="matrix(-0.984808 -0.173648 -0.173648 0.984808 1124.17 132.562)" fill="white"/>
</g>
<g filter="url(#filter2_d_8_4759)">
<rect x="295" y="8" width="540" height="540" rx="40" fill="white"/>
</g>
<path d="M413.711 308V291.031H420.086C423.977 291.031 426.062 293.398 426.062 296.656C426.062 299.914 423.953 302.258 420.039 302.258H416.758V308H413.711ZM416.758 299.75H419.617C421.914 299.75 422.945 298.461 422.945 296.656C422.945 294.828 421.914 293.586 419.617 293.586H416.758V299.75ZM436.516 302.656V295.273H439.492V308H436.609V305.75H436.469C435.883 307.156 434.547 308.164 432.648 308.164C430.141 308.164 428.406 306.43 428.383 303.383V295.273H431.383V302.914C431.383 304.531 432.344 305.562 433.797 305.562C435.109 305.562 436.516 304.602 436.516 302.656ZM448.703 295.273V297.57H446.195V304.18C446.195 305.398 446.805 305.656 447.555 305.656C447.906 305.656 448.492 305.633 448.867 305.609V308.047C448.516 308.117 447.93 308.164 447.18 308.164C444.93 308.164 443.195 307.062 443.219 304.672V297.57H441.391V295.273H443.219V292.227H446.195V295.273H448.703ZM456.109 304.414C456.109 301.555 458.477 300.711 460.844 300.57C461.723 300.512 463.551 300.406 464.102 300.383V299.375C464.102 298.109 463.281 297.383 461.805 297.383C460.469 297.383 459.648 297.992 459.414 298.906H456.531C456.742 296.75 458.688 295.109 461.875 295.109C464.289 295.109 467.078 296.094 467.078 299.492V308H464.219V306.242H464.125C463.562 307.32 462.367 308.258 460.375 308.258C457.938 308.258 456.109 306.922 456.109 304.414ZM458.992 304.391C458.992 305.492 459.883 306.055 461.148 306.055C462.953 306.055 464.125 304.859 464.125 303.43V302.375L461.312 302.562C459.883 302.68 458.992 303.266 458.992 304.391ZM475.586 312.781V295.273H478.516V297.359H478.703C479.172 296.445 480.109 295.109 482.359 295.109C485.289 295.109 487.609 297.406 487.609 301.648C487.609 305.844 485.359 308.234 482.359 308.234C480.156 308.234 479.172 306.922 478.703 305.984H478.586V312.781H475.586ZM478.516 301.625C478.516 304.109 479.594 305.773 481.539 305.773C483.508 305.773 484.562 304.039 484.562 301.625C484.562 299.258 483.531 297.547 481.539 297.547C479.594 297.547 478.516 299.164 478.516 301.625ZM489.953 308V295.273H492.953V308H489.953ZM491.477 293.469C490.539 293.469 489.742 292.742 489.742 291.828C489.742 290.938 490.539 290.211 491.477 290.211C492.438 290.211 493.211 290.938 493.211 291.828C493.211 292.742 492.438 293.469 491.477 293.469ZM501.367 308.258C497.57 308.258 495.273 305.539 495.273 301.695C495.273 297.805 497.641 295.109 501.367 295.109C504.461 295.109 506.617 296.914 506.828 299.656H503.969C503.734 298.438 502.844 297.5 501.391 297.5C499.539 297.5 498.297 299.07 498.297 301.625C498.297 304.25 499.516 305.82 501.391 305.82C502.727 305.82 503.711 305.047 503.969 303.664H506.828C506.594 306.359 504.555 308.258 501.367 308.258ZM515.43 295.273V297.57H512.922V304.18C512.922 305.398 513.531 305.656 514.281 305.656C514.633 305.656 515.219 305.633 515.594 305.609V308.047C515.242 308.117 514.656 308.164 513.906 308.164C511.656 308.164 509.922 307.062 509.945 304.672V297.57H508.117V295.273H509.945V292.227H512.922V295.273H515.43ZM525.859 302.656V295.273H528.836V308H525.953V305.75H525.812C525.227 307.156 523.891 308.164 521.992 308.164C519.484 308.164 517.75 306.43 517.727 303.383V295.273H520.727V302.914C520.727 304.531 521.688 305.562 523.141 305.562C524.453 305.562 525.859 304.602 525.859 302.656ZM531.695 308V295.273H534.602V297.383H534.742C535.188 295.93 536.43 295.086 537.883 295.086C538.211 295.086 538.68 295.109 538.961 295.156V297.922C538.703 297.828 538.07 297.734 537.578 297.734C535.914 297.734 534.695 298.883 534.695 300.5V308H531.695ZM545.969 308.258C542.125 308.258 539.781 305.703 539.781 301.719C539.781 297.781 542.172 295.109 545.805 295.109C548.922 295.109 551.617 297.055 551.617 301.531V302.469H542.734C542.77 304.637 544.047 305.914 545.992 305.914C547.305 305.914 548.195 305.352 548.57 304.602H551.5C550.961 306.805 548.922 308.258 545.969 308.258ZM542.758 300.43H548.758C548.734 298.695 547.586 297.43 545.852 297.43C544.047 297.43 542.852 298.801 542.758 300.43ZM565.188 308.258C561.484 308.258 559.094 305.633 559.094 301.695C559.094 297.734 561.484 295.109 565.188 295.109C568.914 295.109 571.281 297.734 571.281 301.695C571.281 305.633 568.914 308.258 565.188 308.258ZM565.211 305.867C567.25 305.867 568.258 304.016 568.258 301.672C568.258 299.352 567.25 297.477 565.211 297.477C563.125 297.477 562.117 299.352 562.117 301.672C562.117 304.016 563.125 305.867 565.211 305.867ZM580.047 295.273V297.57H577.422V308H574.422V297.57H572.523V295.273H574.422V294.055C574.422 291.57 575.969 290.234 578.406 290.234C579.109 290.234 579.742 290.305 580.305 290.422V292.789C579.812 292.719 579.438 292.695 579.227 292.695C578.008 292.695 577.422 293.188 577.422 294.336V295.273H580.047ZM594.227 295.273V297.57H591.719V304.18C591.719 305.398 592.328 305.656 593.078 305.656C593.43 305.656 594.016 305.633 594.391 305.609V308.047C594.039 308.117 593.453 308.164 592.703 308.164C590.453 308.164 588.719 307.062 588.742 304.672V297.57H586.914V295.273H588.742V292.227H591.719V295.273H594.227ZM599.805 300.547V308H596.805V291.031H599.734V297.43H599.898C600.484 296 601.703 295.109 603.672 295.109C606.32 295.109 608.055 296.82 608.055 299.891V308H605.078V300.359C605.078 298.625 604.141 297.641 602.57 297.641C600.953 297.641 599.805 298.695 599.805 300.547ZM616.539 308.258C612.695 308.258 610.352 305.703 610.352 301.719C610.352 297.781 612.742 295.109 616.375 295.109C619.492 295.109 622.188 297.055 622.188 301.531V302.469H613.305C613.34 304.637 614.617 305.914 616.562 305.914C617.875 305.914 618.766 305.352 619.141 304.602H622.07C621.531 306.805 619.492 308.258 616.539 308.258ZM613.328 300.43H619.328C619.305 298.695 618.156 297.43 616.422 297.43C614.617 297.43 613.422 298.801 613.328 300.43ZM633.203 291.031V308H630.203V291.031H633.203ZM641.617 308.258C637.914 308.258 635.523 305.633 635.523 301.695C635.523 297.734 637.914 295.109 641.617 295.109C645.344 295.109 647.711 297.734 647.711 301.695C647.711 305.633 645.344 308.258 641.617 308.258ZM641.641 305.867C643.68 305.867 644.688 304.016 644.688 301.672C644.688 299.352 643.68 297.477 641.641 297.477C639.555 297.477 638.547 299.352 638.547 301.672C638.547 304.016 639.555 305.867 641.641 305.867ZM657.25 298.906C657.062 297.945 656.266 297.336 655 297.336C653.711 297.336 652.773 297.969 652.797 298.836C652.773 299.492 653.312 299.984 654.602 300.289L656.758 300.734C659.172 301.273 660.32 302.375 660.344 304.203C660.32 306.594 658.234 308.258 654.906 308.258C651.672 308.258 649.75 306.805 649.445 304.367H652.492C652.68 305.445 653.523 305.984 654.906 305.984C656.336 305.984 657.297 305.398 657.297 304.461C657.297 303.734 656.711 303.266 655.445 302.984L653.406 302.539C651.039 302.07 649.82 300.828 649.82 299C649.82 296.656 651.836 295.109 654.953 295.109C658 295.109 659.875 296.586 660.086 298.906H657.25ZM668.969 295.273V297.57H666.461V304.18C666.461 305.398 667.07 305.656 667.82 305.656C668.172 305.656 668.758 305.633 669.133 305.609V308.047C668.781 308.117 668.195 308.164 667.445 308.164C665.195 308.164 663.461 307.062 663.484 304.672V297.57H661.656V295.273H663.484V292.227H666.461V295.273H668.969ZM682.656 312.781V295.273H685.586V297.359H685.773C686.242 296.445 687.18 295.109 689.43 295.109C692.359 295.109 694.68 297.406 694.68 301.648C694.68 305.844 692.43 308.234 689.43 308.234C687.227 308.234 686.242 306.922 685.773 305.984H685.656V312.781H682.656ZM685.586 301.625C685.586 304.109 686.664 305.773 688.609 305.773C690.578 305.773 691.633 304.039 691.633 301.625C691.633 299.258 690.602 297.547 688.609 297.547C686.664 297.547 685.586 299.164 685.586 301.625ZM702.672 308.258C698.828 308.258 696.484 305.703 696.484 301.719C696.484 297.781 698.875 295.109 702.508 295.109C705.625 295.109 708.32 297.055 708.32 301.531V302.469H699.438C699.473 304.637 700.75 305.914 702.695 305.914C704.008 305.914 704.898 305.352 705.273 304.602H708.203C707.664 306.805 705.625 308.258 702.672 308.258ZM699.461 300.43H705.461C705.438 298.695 704.289 297.43 702.555 297.43C700.75 297.43 699.555 298.801 699.461 300.43ZM716.992 295.273V297.57H714.484V304.18C714.484 305.398 715.094 305.656 715.844 305.656C716.195 305.656 716.781 305.633 717.156 305.609V308.047C716.805 308.117 716.219 308.164 715.469 308.164C713.219 308.164 711.484 307.062 711.508 304.672V297.57H709.68V295.273H711.508V292.227H714.484V295.273H716.992Z" fill="#E5E5E5"/>
<path d="M615.177 258.473C618.032 265.313 621.805 271.401 621.805 278.804L508.196 278.804C508.196 271.401 511.732 263.895 514.587 257.055C516.039 253.575 512.793 249.017 511.56 244.525C510.326 240.034 509.38 230.814 512.52 228.103C515.661 225.392 524.527 228.443 524.527 228.443C531.468 230.627 537.131 236.935 541.095 235.305C547.987 232.472 552.456 229.521 565 229.521C577.545 229.521 582.25 232.472 589.142 235.305C595.816 238.049 598.383 232.874 603.343 229.521C608.077 226.322 616.424 224.667 619.674 228.103C621.79 230.339 621.259 238.172 619.674 244.998C618.265 251.071 613.833 255.253 615.177 258.473Z" fill="white"/>
<g filter="url(#filter3_f_8_4759)">
<path fill-rule="evenodd" clip-rule="evenodd" d="M617.719 264.381C617.025 262.893 616.303 261.348 615.608 259.674C615.329 259.003 615.172 258.21 615.11 257.32C614.644 257.295 614.174 257.282 613.701 257.282C600.948 257.282 590.362 266.59 588.319 278.804L621.804 278.804C621.804 273.128 619.895 269.04 617.719 264.381Z" fill="#FAE7E9"/>
</g>
<g filter="url(#filter4_f_8_4759)">
<path fill-rule="evenodd" clip-rule="evenodd" d="M513.862 257.566C515.102 257.379 516.372 257.282 517.665 257.282C530.332 257.282 540.848 266.59 542.877 278.804L508.196 278.804C508.196 272.112 510.075 267.628 512.513 261.811C512.803 261.12 513.101 260.409 513.404 259.674C513.651 259.075 513.797 258.361 513.862 257.566Z" fill="#FAE7E9"/>
</g>
<path d="M576.958 263.376C576.958 265.294 575.755 266.848 574.567 266.848C573.378 266.848 572.175 265.294 572.175 263.376C572.175 261.459 572.892 259.674 574.806 259.674C576.241 259.674 576.958 261.459 576.958 263.376Z" fill="black"/>
<path d="M568.222 267.616C568.29 268.537 566.797 271.245 564.72 271.399C562.642 271.553 560.766 269.095 560.698 268.173C560.63 267.252 561.768 266.416 563.846 266.262C565.923 266.108 568.154 266.694 568.222 267.616Z" fill="black"/>
<path d="M557.825 263.376C557.825 265.294 556.622 266.848 555.433 266.848C554.244 266.848 553.041 265.294 553.041 263.376C553.041 261.459 553.759 259.674 555.672 259.674C557.107 259.674 557.825 261.459 557.825 263.376Z" fill="black"/>
<path fill-rule="evenodd" clip-rule="evenodd" d="M611.709 225.138C614.906 224.741 618.393 225.123 620.492 227.332C621.284 228.166 621.718 229.342 621.962 230.551C622.211 231.789 622.294 233.233 622.26 234.768C622.191 237.841 621.645 241.459 620.841 244.907C620.186 247.718 618.914 250.11 617.888 252.038C617.736 252.324 617.589 252.599 617.451 252.865C616.895 253.93 616.491 254.788 616.287 255.537C616.091 256.258 616.114 256.761 616.289 257.18C616.799 258.395 617.355 259.645 617.919 260.914C618.876 263.067 619.858 265.274 620.676 267.456C622 270.984 623 274.684 623 278.593C623 279.37 622.367 280 621.585 280C620.804 280 620.171 279.37 620.171 278.593C620.171 275.158 619.292 271.815 618.026 268.44C617.229 266.315 616.318 264.269 615.39 262.187C614.818 260.902 614.24 259.603 613.678 258.263C613.184 257.085 613.257 255.901 613.556 254.802C613.847 253.73 614.383 252.634 614.939 251.568C615.091 251.278 615.246 250.986 615.402 250.692C616.432 248.749 617.519 246.699 618.085 244.271C618.86 240.948 619.368 237.53 619.431 234.705C619.463 233.291 619.382 232.07 619.187 231.104C618.987 230.109 618.696 229.54 618.435 229.265C617.296 228.066 615.007 227.564 612.059 227.93C609.194 228.285 606.15 229.415 603.988 230.871C602.837 231.646 601.813 232.533 600.768 233.445L600.684 233.518C599.69 234.386 598.649 235.295 597.537 236.019C596.372 236.777 595.069 237.375 593.539 237.559C592.004 237.744 590.353 237.499 588.51 236.744C587.47 236.319 586.5 235.9 585.559 235.494C583.295 234.517 581.203 233.614 578.725 232.867C575.283 231.829 571.127 231.112 565 231.112C558.873 231.112 554.779 231.829 551.399 232.865C549.03 233.591 547.036 234.46 544.868 235.404C543.875 235.837 542.845 236.286 541.725 236.744C540.302 237.327 538.83 237.15 537.469 236.702C536.12 236.257 534.714 235.488 533.325 234.668C532.827 234.374 532.327 234.072 531.824 233.768C529.424 232.317 526.948 230.821 524.258 229.978L524.181 229.954L524.108 229.921L524.108 229.921L524.108 229.921L524.108 229.921L524.105 229.92L524.087 229.912C524.071 229.905 524.046 229.895 524.013 229.88C523.945 229.851 523.844 229.809 523.712 229.755C523.449 229.648 523.068 229.497 522.603 229.329C521.669 228.99 520.422 228.586 519.132 228.306C517.82 228.021 516.573 227.889 515.6 228.018C514.64 228.145 514.202 228.477 514.001 228.9C513.14 230.709 512.61 233.458 512.465 236.378C512.32 239.284 512.566 242.175 513.129 244.217C513.419 245.267 513.818 246.379 514.249 247.551C514.303 247.697 514.357 247.843 514.412 247.991C514.789 249.012 515.182 250.073 515.508 251.112C516.232 253.411 516.788 256.027 515.85 258.263C515.519 259.053 515.185 259.837 514.853 260.616C512.279 266.654 509.829 272.401 509.829 278.593C509.829 279.37 509.196 280 508.415 280C507.633 280 507 279.37 507 278.593C507 271.787 509.698 265.477 512.251 259.507C512.585 258.725 512.916 257.95 513.239 257.18C513.748 255.965 513.529 254.242 512.808 251.952C512.504 250.985 512.137 249.993 511.758 248.966C511.703 248.818 511.648 248.669 511.593 248.52C511.162 247.351 510.726 246.139 510.401 244.961C509.735 242.548 509.485 239.341 509.639 236.24C509.792 233.153 510.355 229.984 511.443 227.696C512.217 226.072 513.761 225.422 515.227 225.228C516.679 225.036 518.3 225.245 519.735 225.556C521.192 225.873 522.569 226.321 523.573 226.685C524.078 226.868 524.494 227.032 524.786 227.151C524.932 227.211 525.047 227.26 525.127 227.294C525.148 227.302 525.166 227.31 525.181 227.317C528.204 228.277 531.005 229.975 533.386 231.417C533.864 231.707 534.326 231.987 534.769 232.248C536.148 233.061 537.325 233.689 538.36 234.031C539.384 234.368 540.097 234.368 540.649 234.142C541.642 233.735 542.608 233.315 543.571 232.895C545.812 231.92 548.039 230.95 550.565 230.176C554.251 229.046 558.631 228.298 565 228.298C571.369 228.298 575.805 229.046 579.546 230.174C582.189 230.971 584.504 231.969 586.829 232.973C587.74 233.366 588.653 233.759 589.587 234.142C591.069 234.749 592.23 234.882 593.199 234.766C594.172 234.649 595.064 234.266 595.987 233.665C596.931 233.05 597.843 232.254 598.899 231.332L598.902 231.33C599.934 230.43 601.083 229.428 602.402 228.54C604.955 226.822 608.427 225.544 611.709 225.138Z" fill="black"/>
<defs>
<filter id="filter0_d_8_4759" x="0.331543" y="49.7961" width="552.507" height="553.209" filterUnits="userSpaceOnUse" color-interpolation-filters="sRGB">
<feFlood flood-opacity="0" result="BackgroundImageFix"/>
<feColorMatrix in="SourceAlpha" type="matrix" values="0 0 0 0 0 0 0 0 0 0 0 0 0 0 0 0 0 0 127 0" result="hardAlpha"/>
<feOffset dy="4"/>
<feGaussianBlur stdDeviation="6"/>
<feComposite in2="hardAlpha" operator="out"/>
<feColorMatrix type="matrix" values="0 0 0 0 0 0 0 0 0 0 0 0 0 0 0 0 0 0 0.1 0"/>
<feBlend mode="normal" in2="BackgroundImageFix" result="effect1_dropShadow_8_4759"/>
<feBlend mode="normal" in="SourceGraphic" in2="effect1_dropShadow_8_4759" result="shape"/>
</filter>
<filter id="filter1_d_8_4759" x="577.331" y="49.7961" width="552.507" height="553.209" filterUnits="userSpaceOnUse" color-interpolation-filters="sRGB">
<feFlood flood-opacity="0" result="BackgroundImageFix"/>
<feColorMatrix in="SourceAlpha" type="matrix" values="0 0 0 0 0 0 0 0 0 0 0 0 0 0 0 0 0 0 127 0" result="hardAlpha"/>
<feOffset dy="4"/>
<feGaussianBlur stdDeviation="6"/>
<feComposite in2="hardAlpha" operator="out"/>
<feColorMatrix type="matrix" values="0 0 0 0 0 0 0 0 0 0 0 0 0 0 0 0 0 0 0.1 0"/>
<feBlend mode="normal" in2="BackgroundImageFix" result="effect1_dropShadow_8_4759"/>
<feBlend mode="normal" in="SourceGraphic" in2="effect1_dropShadow_8_4759" result="shape"/>
</filter>
<filter id="filter2_d_8_4759" x="283" y="0" width="564" height="564" filterUnits="userSpaceOnUse" color-interpolation-filters="sRGB">
<feFlood flood-opacity="0" result="BackgroundImageFix"/>
<feColorMatrix in="SourceAlpha" type="matrix" values="0 0 0 0 0 0 0 0 0 0 0 0 0 0 0 0 0 0 127 0" result="hardAlpha"/>
<feOffset dy="4"/>
<feGaussianBlur stdDeviation="6"/>
<feComposite in2="hardAlpha" operator="out"/>
<feColorMatrix type="matrix" values="0 0 0 0 0 0 0 0 0 0 0 0 0 0 0 0 0 0 0.1 0"/>
<feBlend mode="normal" in2="BackgroundImageFix" result="effect1_dropShadow_8_4759"/>
<feBlend mode="normal" in="SourceGraphic" in2="effect1_dropShadow_8_4759" result="shape"/>
</filter>
<filter id="filter3_f_8_4759" x="584.319" y="253.282" width="41.4846" height="29.5217" filterUnits="userSpaceOnUse" color-interpolation-filters="sRGB">
<feFlood flood-opacity="0" result="BackgroundImageFix"/>
<feBlend mode="normal" in="SourceGraphic" in2="BackgroundImageFix" result="shape"/>
<feGaussianBlur stdDeviation="2" result="effect1_foregroundBlur_8_4759"/>
</filter>
<filter id="filter4_f_8_4759" x="504.196" y="253.282" width="42.6804" height="29.5217" filterUnits="userSpaceOnUse" color-interpolation-filters="sRGB">
<feFlood flood-opacity="0" result="BackgroundImageFix"/>
<feBlend mode="normal" in="SourceGraphic" in2="BackgroundImageFix" result="shape"/>
<feGaussianBlur stdDeviation="2" result="effect1_foregroundBlur_8_4759"/>
</filter>
</defs>
</svg>
