<svg width="450" height="464" viewBox="0 0 450 464" fill="none" xmlns="http://www.w3.org/2000/svg">
<rect width="450" height="464" rx="40" fill="url(#paint0_linear_45_1060)"/>
<path d="M69.0664 72.8906V104H62.6211V72.8906H69.0664ZM96.7383 80.668V85.4375H92.0977V104H85.7383V85.4375H82.4297V80.668H85.7383V78.9062C85.7383 74.0078 88.7031 71.4297 93.3867 71.4297C94.8477 71.4297 96.0508 71.5586 97.168 71.8164V76.6289C96.2656 76.543 95.5781 76.5 95.2344 76.5C93.1719 76.5 92.0977 77.3164 92.0977 79.25V80.668H96.7383ZM110.102 104.473C103.055 104.473 98.6719 99.6172 98.6719 92.3984C98.6719 85.1797 103.055 80.3672 110.102 80.3672C117.148 80.3672 121.574 85.1797 121.574 92.3984C121.574 99.6172 117.148 104.473 110.102 104.473ZM110.145 99.5312C113.41 99.5312 115.086 96.4805 115.086 92.3984C115.086 88.2734 113.41 85.2227 110.145 85.2227C106.836 85.2227 105.117 88.2734 105.117 92.3984C105.117 96.4805 106.836 99.5312 110.145 99.5312ZM140.523 94.0742V80.668H146.883V104H140.781V99.7891H140.523C139.449 102.496 136.957 104.301 133.434 104.301C128.75 104.301 125.57 100.992 125.57 95.5352V80.668H131.93V94.418C131.93 97.168 133.52 98.9297 136.012 98.9297C138.332 98.9297 140.523 97.2539 140.523 94.0742ZM158.184 90.5078V104H151.824V80.668H157.883V84.75H158.141C159.215 82.043 161.707 80.3672 165.145 80.3672C170 80.3672 173.223 83.6758 173.18 89.1328V104H166.863V90.25C166.863 87.3711 165.273 85.6523 162.652 85.6523C159.988 85.6523 158.184 87.4141 158.184 90.5078ZM186.715 104.387C181.387 104.387 177.219 100.133 177.219 92.3555C177.219 84.3633 181.559 80.3672 186.715 80.3672C190.625 80.3672 192.473 82.6875 193.332 84.5781H193.547V72.8906H199.906V104H193.633V100.262H193.332C192.43 102.195 190.496 104.387 186.715 104.387ZM188.691 99.3164C191.871 99.3164 193.676 96.5234 193.676 92.3125C193.676 88.1016 191.871 85.4375 188.691 85.4375C185.469 85.4375 183.75 88.2305 183.75 92.3125C183.75 96.4375 185.469 99.3164 188.691 99.3164ZM214.043 97.4688C214.043 92.2695 218.254 90.5508 222.723 90.293C224.398 90.1855 227.535 90.0352 228.523 89.9922V88.1016C228.48 86.168 227.148 85.0078 224.785 85.0078C222.637 85.0078 221.262 85.9961 220.918 87.5859H214.859C215.246 83.5469 218.77 80.3672 224.957 80.3672C230.027 80.3672 234.84 82.6445 234.84 88.2734V104H228.824V100.777H228.652C227.492 102.926 225.301 104.43 221.82 104.43C217.352 104.43 214.043 102.109 214.043 97.4688ZM220.145 97.2969C220.145 99.1016 221.605 100.047 223.625 100.047C226.504 100.047 228.566 98.1133 228.523 95.6641V93.9453C227.557 93.9883 224.85 94.1387 223.754 94.2461C221.562 94.4609 220.145 95.4922 220.145 97.2969ZM270.762 83.7188C270.246 80.2812 267.582 78.1758 263.973 78.1758C259.117 78.1758 255.938 81.9141 255.938 88.4453C255.938 95.1484 259.16 98.7148 263.93 98.7148C267.496 98.7148 270.117 96.7383 270.762 93.3867L277.293 93.4297C276.562 99.1875 271.75 104.43 263.844 104.43C255.508 104.43 249.363 98.5859 249.363 88.4453C249.363 78.3047 255.637 72.4609 263.844 72.4609C271.02 72.4609 276.434 76.5859 277.293 83.7188H270.762ZM280.559 97.4688C280.559 92.2695 284.77 90.5508 289.238 90.293C290.914 90.1855 294.051 90.0352 295.039 89.9922V88.1016C294.996 86.168 293.664 85.0078 291.301 85.0078C289.152 85.0078 287.777 85.9961 287.434 87.5859H281.375C281.762 83.5469 285.285 80.3672 291.473 80.3672C296.543 80.3672 301.355 82.6445 301.355 88.2734V104H295.34V100.777H295.168C294.008 102.926 291.816 104.43 288.336 104.43C283.867 104.43 280.559 102.109 280.559 97.4688ZM286.66 97.2969C286.66 99.1016 288.121 100.047 290.141 100.047C293.02 100.047 295.082 98.1133 295.039 95.6641V93.9453C294.072 93.9883 291.365 94.1387 290.27 94.2461C288.078 94.4609 286.66 95.4922 286.66 97.2969ZM318.5 80.668V85.4375H314.117V96.8242C314.117 98.6719 315.02 99.1445 316.309 99.1875C316.953 99.1875 318.07 99.1445 318.844 99.0586V104.086C318.156 104.215 317.039 104.301 315.449 104.301C310.852 104.301 307.715 102.238 307.758 97.7266V85.4375H304.535V80.668H307.758V75.082H314.117V80.668H318.5Z" fill="#594C4C"/>
<path d="M62.5 161V138.375H70.1875C75.5 138.375 77.9062 141.312 77.9062 145.344C77.9062 148.328 76.5625 150.688 73.6875 151.688L78.7812 161H75.5L70.7812 152.188L70.2188 152.219H65.3125V161H62.5ZM65.3125 149.656H70.0938C73.6875 149.656 75.125 148.031 75.125 145.344C75.125 142.625 73.6875 140.875 70.0625 140.875H65.3125V149.656ZM88.5625 161.344C83.6562 161.344 80.625 157.875 80.625 152.656C80.625 147.438 83.6875 143.812 88.3125 143.812C91.875 143.812 95.625 146 95.625 152.281V153.406H83.3125C83.4375 157 85.5312 158.969 88.5625 158.969C90.5938 158.969 91.875 158.094 92.5 157.031H95.375C94.5625 159.594 92.0625 161.344 88.5625 161.344ZM83.3438 151.125H92.9062C92.9062 148.281 91.0938 146.188 88.3125 146.188C85.375 146.188 83.5 148.5 83.3438 151.125ZM106 167.719C101.906 167.719 99.125 165.938 98.8125 162.781H101.625C102 164.5 103.594 165.375 106 165.375C108.906 165.375 110.688 164.125 110.688 161.312V157.875H110.469C109.906 158.812 108.812 160.75 105.531 160.75C101.406 160.75 98.3125 157.625 98.3125 152.281C98.3125 147.062 101.312 143.812 105.562 143.812C108.844 143.812 109.906 145.812 110.531 146.719H110.75V144.031H113.375V161.469C113.375 165.844 110.125 167.719 106 167.719ZM105.906 158.344C109 158.344 110.75 156.125 110.75 152.375C110.75 148.75 109.062 146.219 105.906 146.219C102.656 146.219 101.031 148.969 101.031 152.375C101.031 155.906 102.688 158.344 105.906 158.344ZM117.656 161V144.031H120.344V161H117.656ZM119 141.219C117.969 141.219 117.125 140.438 117.125 139.438C117.125 138.438 117.969 137.656 119 137.656C120.031 137.656 120.906 138.438 120.906 139.438C120.906 140.438 120.031 141.219 119 141.219ZM134.062 148.438C133.688 147.031 132.625 146.094 130.625 146.094C128.531 146.094 127.031 147.219 127.031 148.656C127.031 149.781 127.938 150.562 129.938 151.031L132.469 151.656C135.5 152.375 137 153.875 137 156.25C137 159.188 134.594 161.344 130.344 161.344C126.531 161.344 124.25 159.656 123.812 156.562H126.625C126.938 158.219 128.156 159 130.281 159C132.688 159 134.219 158 134.219 156.406C134.219 155.219 133.375 154.406 131.438 153.969L128.875 153.375C125.906 152.688 124.344 151.062 124.344 148.812C124.344 145.906 126.875 143.812 130.625 143.812C134.125 143.812 136.344 145.688 136.688 148.438H134.062ZM147.906 144.031V146.281H144.344V156.125C144.344 158.312 145.406 158.656 146.562 158.656C147.062 158.656 147.75 158.625 148.156 158.594V161.094C147.75 161.156 147.062 161.219 146.281 161.219C144.031 161.219 141.625 159.812 141.625 156.812V146.281H139.062V144.031H141.625V139.969H144.344V144.031H147.906ZM158.312 161.344C153.406 161.344 150.375 157.875 150.375 152.656C150.375 147.438 153.438 143.812 158.062 143.812C161.625 143.812 165.375 146 165.375 152.281V153.406H153.062C153.188 157 155.281 158.969 158.312 158.969C160.344 158.969 161.625 158.094 162.25 157.031H165.125C164.312 159.594 161.812 161.344 158.312 161.344ZM153.094 151.125H162.656C162.656 148.281 160.844 146.188 158.062 146.188C155.125 146.188 153.25 148.5 153.094 151.125ZM168.875 161V144.031H171.469V146.625H171.656C172.281 144.906 174.031 143.75 176.031 143.75C176.438 143.75 177.125 143.781 177.438 143.812V146.531C177.25 146.469 176.5 146.344 175.812 146.344C173.375 146.344 171.562 148.031 171.562 150.312V161H168.875ZM180.062 161V144.031H182.75V161H180.062ZM181.406 141.219C180.375 141.219 179.531 140.438 179.531 139.438C179.531 138.438 180.375 137.656 181.406 137.656C182.438 137.656 183.312 138.438 183.312 139.438C183.312 140.438 182.438 141.219 181.406 141.219ZM189.719 150.812V161H187.031V144.031H189.625V146.688H189.844C190.656 144.969 192.219 143.812 194.812 143.812C198.25 143.812 200.531 145.906 200.531 150.219V161H197.844V150.406C197.844 147.781 196.406 146.219 194 146.219C191.531 146.219 189.719 147.875 189.719 150.812ZM211.719 167.719C207.625 167.719 204.844 165.938 204.531 162.781H207.344C207.719 164.5 209.312 165.375 211.719 165.375C214.625 165.375 216.406 164.125 216.406 161.312V157.875H216.188C215.625 158.812 214.531 160.75 211.25 160.75C207.125 160.75 204.031 157.625 204.031 152.281C204.031 147.062 207.031 143.812 211.281 143.812C214.562 143.812 215.625 145.812 216.25 146.719H216.469V144.031H219.094V161.469C219.094 165.844 215.844 167.719 211.719 167.719ZM211.625 158.344C214.719 158.344 216.469 156.125 216.469 152.375C216.469 148.75 214.781 146.219 211.625 146.219C208.375 146.219 206.75 148.969 206.75 152.375C206.75 155.906 208.406 158.344 211.625 158.344ZM230.594 156.188C230.594 152.281 234.031 151.406 236.969 151.188C238.047 151.109 240.797 150.969 241.562 150.938V149.562C241.562 147.406 240.281 146.156 237.719 146.156C235.562 146.156 234.281 147.156 233.906 148.438H231.094C231.438 145.719 234.094 143.812 237.844 143.812C240.062 143.812 244.219 144.469 244.219 149.812V161H241.562V158.688H241.438C240.875 159.844 239.312 161.406 236.375 161.406C233.156 161.406 230.594 159.5 230.594 156.188ZM233.281 156.312C233.281 158.094 234.781 159 236.844 159C239.875 159 241.562 156.969 241.562 154.844V153.125L237.281 153.438C234.844 153.594 233.281 154.469 233.281 156.312ZM248.875 161V138.375H251.562V146.719H251.781C252.375 145.812 253.375 143.812 256.688 143.812C260.938 143.812 263.938 147.188 263.938 152.562C263.938 157.938 260.938 161.344 256.719 161.344C253.469 161.344 252.375 159.344 251.781 158.406H251.469V161H248.875ZM251.5 152.5C251.5 156.312 253.219 158.938 256.312 158.938C259.531 158.938 261.219 156.125 261.219 152.5C261.219 148.969 259.594 146.219 256.312 146.219C253.188 146.219 251.5 148.75 251.5 152.5ZM266.625 156.188C266.625 152.281 270.062 151.406 273 151.188C274.078 151.109 276.828 150.969 277.594 150.938V149.562C277.594 147.406 276.312 146.156 273.75 146.156C271.594 146.156 270.312 147.156 269.938 148.438H267.125C267.469 145.719 270.125 143.812 273.875 143.812C276.094 143.812 280.25 144.469 280.25 149.812V161H277.594V158.688H277.469C276.906 159.844 275.344 161.406 272.406 161.406C269.188 161.406 266.625 159.5 266.625 156.188ZM269.312 156.312C269.312 158.094 270.812 159 272.875 159C275.906 159 277.594 156.969 277.594 154.844V153.125L273.312 153.438C270.875 153.594 269.312 154.469 269.312 156.312ZM287.25 150.812V161H284.562V144.031H287.156V146.688H287.375C288.188 144.969 289.75 143.812 292.344 143.812C295.781 143.812 298.062 145.906 298.062 150.219V161H295.375V150.406C295.375 147.781 293.938 146.219 291.531 146.219C289.062 146.219 287.25 147.875 287.25 150.812ZM308.781 161.344C304.562 161.344 301.562 157.938 301.562 152.562C301.562 147.188 304.562 143.812 308.812 143.812C312.094 143.812 313.156 145.812 313.719 146.719H313.906V138.375H316.625V161H314V158.406H313.719C313.125 159.344 312.031 161.344 308.781 161.344ZM309.156 158.938C312.25 158.938 314 156.312 314 152.5C314 148.75 312.312 146.219 309.156 146.219C305.906 146.219 304.281 148.969 304.281 152.5C304.281 156.125 305.938 158.938 309.156 158.938ZM328.219 161.344C323.594 161.344 320.469 157.875 320.469 152.594C320.469 147.312 323.594 143.812 328.219 143.812C332.812 143.812 335.906 147.312 335.906 152.594C335.906 157.875 332.812 161.344 328.219 161.344ZM328.219 158.969C331.625 158.969 333.219 155.969 333.219 152.594C333.219 149.219 331.625 146.188 328.219 146.188C324.75 146.188 323.156 149.219 323.156 152.594C323.156 155.969 324.75 158.969 328.219 158.969ZM342.125 150.812V161H339.438V144.031H342.031V146.688H342.25C343.062 144.969 344.625 143.812 347.219 143.812C350.656 143.812 352.938 145.906 352.938 150.219V161H350.25V150.406C350.25 147.781 348.812 146.219 346.406 146.219C343.938 146.219 342.125 147.875 342.125 150.812ZM364.375 161.344C359.469 161.344 356.438 157.875 356.438 152.656C356.438 147.438 359.5 143.812 364.125 143.812C367.688 143.812 371.438 146 371.438 152.281V153.406H359.125C359.25 157 361.344 158.969 364.375 158.969C366.406 158.969 367.688 158.094 368.312 157.031H371.188C370.375 159.594 367.875 161.344 364.375 161.344ZM359.156 151.125H368.719C368.719 148.281 366.906 146.188 364.125 146.188C361.188 146.188 359.312 148.5 359.156 151.125ZM381.344 161.344C377.125 161.344 374.125 157.938 374.125 152.562C374.125 147.188 377.125 143.812 381.375 143.812C384.656 143.812 385.719 145.812 386.281 146.719H386.469V138.375H389.188V161H386.562V158.406H386.281C385.688 159.344 384.594 161.344 381.344 161.344ZM381.719 158.938C384.812 158.938 386.562 156.312 386.562 152.5C386.562 148.75 384.875 146.219 381.719 146.219C378.469 146.219 376.844 148.969 376.844 152.5C376.844 156.125 378.5 158.938 381.719 158.938ZM69.0938 203.344C64.2812 203.344 61.3438 199.688 61.3438 194.594C61.3438 189.438 64.4062 185.812 69.0312 185.812C72.6562 185.812 75.3438 187.938 75.7812 191.156H73.0938C72.7188 189.594 71.3438 188.188 69.0938 188.188C66.0625 188.188 64.0312 190.688 64.0312 194.5C64.0312 198.438 66 200.938 69.0938 200.938C71.0938 200.938 72.625 199.875 73.0938 198H75.7812C75.3438 201.031 72.875 203.344 69.0938 203.344ZM78.2812 198.188C78.2812 194.281 81.7188 193.406 84.6562 193.188C85.7344 193.109 88.4844 192.969 89.25 192.938V191.562C89.25 189.406 87.9688 188.156 85.4062 188.156C83.25 188.156 81.9688 189.156 81.5938 190.438H78.7812C79.125 187.719 81.7812 185.812 85.5312 185.812C87.75 185.812 91.9062 186.469 91.9062 191.812V203H89.25V200.688H89.125C88.5625 201.844 87 203.406 84.0625 203.406C80.8438 203.406 78.2812 201.5 78.2812 198.188ZM80.9688 198.312C80.9688 200.094 82.4688 201 84.5312 201C87.5625 201 89.25 198.969 89.25 196.844V195.125L84.9688 195.438C82.5312 195.594 80.9688 196.469 80.9688 198.312ZM103.625 186.031V188.281H100.062V198.125C100.062 200.312 101.125 200.656 102.281 200.656C102.781 200.656 103.469 200.625 103.875 200.594V203.094C103.469 203.156 102.781 203.219 102 203.219C99.75 203.219 97.3438 201.812 97.3438 198.812V188.281H94.7812V186.031H97.3438V181.969H100.062V186.031H103.625ZM115.125 203V186.031H117.812V203H115.125ZM116.469 183.219C115.438 183.219 114.594 182.438 114.594 181.438C114.594 180.438 115.438 179.656 116.469 179.656C117.5 179.656 118.375 180.438 118.375 181.438C118.375 182.438 117.5 183.219 116.469 183.219ZM124.781 192.812V203H122.094V186.031H124.688V188.688H124.906C125.719 186.969 127.281 185.812 129.875 185.812C133.312 185.812 135.594 187.906 135.594 192.219V203H132.906V192.406C132.906 189.781 131.469 188.219 129.062 188.219C126.594 188.219 124.781 189.875 124.781 192.812ZM147.5 186.031V188.281H143.75V203H141.031V188.281H138.312V186.031H141.031V183.719C141.031 180.969 142.875 179.312 145.875 179.312C146.531 179.312 147.312 179.406 147.875 179.5V181.906C147.312 181.812 146.812 181.781 146.469 181.781C144.594 181.781 143.75 182.562 143.75 184.312V186.031H147.5ZM156.906 203.344C152.281 203.344 149.156 199.875 149.156 194.594C149.156 189.312 152.281 185.812 156.906 185.812C161.5 185.812 164.594 189.312 164.594 194.594C164.594 199.875 161.5 203.344 156.906 203.344ZM156.906 200.969C160.312 200.969 161.906 197.969 161.906 194.594C161.906 191.219 160.312 188.188 156.906 188.188C153.438 188.188 151.844 191.219 151.844 194.594C151.844 197.969 153.438 200.969 156.906 200.969ZM168.125 203V186.031H170.719V188.625H170.906C171.531 186.906 173.281 185.75 175.281 185.75C175.688 185.75 176.375 185.781 176.688 185.812V188.531C176.5 188.469 175.75 188.344 175.062 188.344C172.625 188.344 170.812 190.031 170.812 192.312V203H168.125ZM179.312 203V186.031H181.906V188.688H182.125C182.844 186.875 184.469 185.812 186.688 185.812C188.906 185.812 190.406 186.875 191.219 188.688H191.406C192.281 186.938 194.062 185.812 196.5 185.812C199.531 185.812 201.688 187.656 201.688 191.656V203H199V191.688C199 189.188 197.406 188.219 195.562 188.219C193.188 188.219 191.844 189.812 191.844 191.969V203H189.125V191.406C189.125 189.5 187.75 188.219 185.812 188.219C183.781 188.219 182 189.938 182 192.406V203H179.312ZM205.188 198.188C205.188 194.281 208.625 193.406 211.562 193.188C212.641 193.109 215.391 192.969 216.156 192.938V191.562C216.156 189.406 214.875 188.156 212.312 188.156C210.156 188.156 208.875 189.156 208.5 190.438H205.688C206.031 187.719 208.688 185.812 212.438 185.812C214.656 185.812 218.812 186.469 218.812 191.812V203H216.156V200.688H216.031C215.469 201.844 213.906 203.406 210.969 203.406C207.75 203.406 205.188 201.5 205.188 198.188ZM207.875 198.312C207.875 200.094 209.375 201 211.438 201C214.469 201 216.156 198.969 216.156 196.844V195.125L211.875 195.438C209.438 195.594 207.875 196.469 207.875 198.312ZM230.531 186.031V188.281H226.969V198.125C226.969 200.312 228.031 200.656 229.188 200.656C229.688 200.656 230.375 200.625 230.781 200.594V203.094C230.375 203.156 229.688 203.219 228.906 203.219C226.656 203.219 224.25 201.812 224.25 198.812V188.281H221.688V186.031H224.25V181.969H226.969V186.031H230.531ZM234 203V186.031H236.688V203H234ZM235.344 183.219C234.312 183.219 233.469 182.438 233.469 181.438C233.469 180.438 234.312 179.656 235.344 179.656C236.375 179.656 237.25 180.438 237.25 181.438C237.25 182.438 236.375 183.219 235.344 183.219ZM247.906 203.344C243.281 203.344 240.156 199.875 240.156 194.594C240.156 189.312 243.281 185.812 247.906 185.812C252.5 185.812 255.594 189.312 255.594 194.594C255.594 199.875 252.5 203.344 247.906 203.344ZM247.906 200.969C251.312 200.969 252.906 197.969 252.906 194.594C252.906 191.219 251.312 188.188 247.906 188.188C244.438 188.188 242.844 191.219 242.844 194.594C242.844 197.969 244.438 200.969 247.906 200.969ZM261.812 192.812V203H259.125V186.031H261.719V188.688H261.938C262.75 186.969 264.312 185.812 266.906 185.812C270.344 185.812 272.625 187.906 272.625 192.219V203H269.938V192.406C269.938 189.781 268.5 188.219 266.094 188.219C263.625 188.219 261.812 189.875 261.812 192.812Z" fill="#7B6C6C"/>
<g clip-path="url(#clip0_45_1060)">
<path d="M230.241 294.03H227.528L226.567 293.103C229.932 289.189 231.958 284.107 231.958 278.578C231.958 266.251 221.966 256.259 209.639 256.259C197.312 256.259 187.319 266.251 187.319 278.578C187.319 290.905 197.312 300.898 209.639 300.898C215.167 300.898 220.249 298.872 224.163 295.507L225.09 296.468V299.181L242.259 316.315L247.375 311.199L230.241 294.03ZM209.639 294.03C201.089 294.03 194.187 287.128 194.187 278.578C194.187 270.028 201.089 263.127 209.639 263.127C218.189 263.127 225.09 270.028 225.09 278.578C225.09 287.128 218.189 294.03 209.639 294.03Z" fill="#7A601D"/>
</g>
<g filter="url(#filter0_i_45_1060)">
<path d="M378.512 347.768C391.101 342.374 400.655 333.225 406.767 327.348C407.021 327.104 407.228 326.823 407.346 326.499C407.509 326.052 407.7 325.38 407.611 324.873C407.434 323.864 406.009 322.726 406.009 322.726C406.009 322.726 406.617 321.45 406.471 320.618C406.294 319.609 404.87 318.471 404.87 318.471C404.87 318.471 405.478 317.195 405.332 316.363C405.155 315.353 403.731 314.216 403.731 314.216C403.731 314.216 404.339 312.939 404.193 312.108C404.099 311.576 403.66 311.009 403.265 310.591C402.853 310.155 402.267 309.925 401.652 309.873C399.796 309.714 395.582 309.425 392.663 309.775C389.077 310.205 383.734 312.045 383.734 312.045L283.397 311.507L244.38 299.401C243.932 299.262 243.455 299.216 242.998 299.32C242.321 299.474 241.325 299.778 240.815 300.308C239.925 301.234 239.969 303.415 239.969 303.415C239.969 303.415 237.903 303.683 237.085 304.533C236.196 305.459 236.24 307.64 236.24 307.64C236.24 307.64 234.174 307.908 233.356 308.759C232.467 309.684 232.511 311.865 232.511 311.865C232.511 311.865 230.445 312.133 229.627 312.984C229.118 313.513 228.915 314.455 228.834 315.163C228.765 315.764 228.981 316.353 229.381 316.829C231.218 319.013 235.179 323.146 240.255 326.783C245.981 330.887 259.771 337.22 264.474 339.299C262.26 340.963 253.788 350.016 249.141 358.506C245.086 365.916 240.508 373.705 238.045 379.43C237.467 380.773 238.132 382.287 239.508 382.948L270.423 397.791C271.651 398.381 273.127 398.128 274.155 397.277C280.088 392.367 291.151 387.452 301.642 388.609C309.627 389.489 318.152 393.515 327.443 398.351C335.051 402.311 341.312 408.299 346.258 411.392C347.042 411.881 348.023 411.94 348.903 411.646C353.509 410.11 360.008 408.493 366.052 405.044C371 402.22 375.22 398.713 378.054 396.122C378.707 395.526 378.978 394.686 378.721 393.858C378.253 392.35 377.254 389.443 375.341 384.383C372.445 376.726 364.117 371.014 360.314 369.115C360.626 368.268 360.377 364.13 360.422 360.588L360.516 353.158C363.061 352.434 371.802 350.643 378.512 347.768Z" fill="white"/>
<path d="M378.512 347.768C391.101 342.374 400.655 333.225 406.767 327.348C407.021 327.104 407.228 326.823 407.346 326.499C407.509 326.052 407.7 325.38 407.611 324.873C407.434 323.864 406.009 322.726 406.009 322.726C406.009 322.726 406.617 321.45 406.471 320.618C406.294 319.609 404.87 318.471 404.87 318.471C404.87 318.471 405.478 317.195 405.332 316.363C405.155 315.353 403.731 314.216 403.731 314.216C403.731 314.216 404.339 312.939 404.193 312.108C404.099 311.576 403.66 311.009 403.265 310.591C402.853 310.155 402.267 309.925 401.652 309.873C399.796 309.714 395.582 309.425 392.663 309.775C389.077 310.205 383.734 312.045 383.734 312.045L283.397 311.507L244.38 299.401C243.932 299.262 243.455 299.216 242.998 299.32C242.321 299.474 241.325 299.778 240.815 300.308C239.925 301.234 239.969 303.415 239.969 303.415C239.969 303.415 237.903 303.683 237.085 304.533C236.196 305.459 236.24 307.64 236.24 307.64C236.24 307.64 234.174 307.908 233.356 308.759C232.467 309.684 232.511 311.865 232.511 311.865C232.511 311.865 230.445 312.133 229.627 312.984C229.118 313.513 228.915 314.455 228.834 315.163C228.765 315.764 228.981 316.353 229.381 316.829C231.218 319.013 235.179 323.146 240.255 326.783C245.981 330.887 259.771 337.22 264.474 339.299C262.26 340.963 253.788 350.016 249.141 358.506C245.086 365.916 240.508 373.705 238.045 379.43C237.467 380.773 238.132 382.287 239.508 382.948L270.423 397.791C271.651 398.381 273.127 398.128 274.155 397.277C280.088 392.367 291.151 387.452 301.642 388.609C309.627 389.489 318.152 393.515 327.443 398.351C335.051 402.311 341.312 408.299 346.258 411.392C347.042 411.881 348.023 411.94 348.903 411.646C353.509 410.11 360.008 408.493 366.052 405.044C371 402.22 375.22 398.713 378.054 396.122C378.707 395.526 378.978 394.686 378.721 393.858C378.253 392.35 377.254 389.443 375.341 384.383C372.445 376.726 364.117 371.014 360.314 369.115C360.626 368.268 360.377 364.13 360.422 360.588L360.516 353.158C363.061 352.434 371.802 350.643 378.512 347.768Z" fill="white"/>
</g>
<g filter="url(#filter1_i_45_1060)">
<path fill-rule="evenodd" clip-rule="evenodd" d="M245.755 298.74C245.875 298.715 246.054 298.717 246.293 298.795L285.44 311.531L386.557 313.482L386.819 313.396L386.832 313.392L386.874 313.378C386.912 313.366 386.969 313.348 387.044 313.324C387.193 313.276 387.412 313.208 387.686 313.124C388.236 312.956 389.006 312.728 389.885 312.489C391.667 312.004 393.81 311.497 395.475 311.321C398.218 311.031 402.28 311.359 404.151 311.546C404.464 311.577 404.647 311.686 404.739 311.785C404.896 311.957 405.04 312.135 405.145 312.301C405.197 312.382 405.232 312.449 405.254 312.501C405.272 312.543 405.277 312.565 405.278 312.569C405.279 312.574 405.28 312.592 405.279 312.627C405.277 312.671 405.271 312.728 405.259 312.8C405.234 312.945 405.189 313.111 405.133 313.278C405.078 313.442 405.019 313.589 404.973 313.694C404.951 313.746 404.932 313.786 404.921 313.811C404.915 313.824 404.911 313.833 404.908 313.837L404.908 313.839L404.907 313.84L404.907 313.84L404.411 314.836L405.296 315.564L405.296 315.564L405.3 315.567C405.305 315.572 405.315 315.58 405.329 315.592C405.357 315.616 405.4 315.655 405.454 315.704C405.563 315.805 405.709 315.947 405.855 316.111C406.004 316.277 406.135 316.446 406.23 316.599C406.276 316.674 406.307 316.736 406.327 316.783C406.342 316.82 406.347 316.84 406.348 316.844C406.349 316.848 406.35 316.866 406.349 316.902C406.347 316.945 406.341 317.003 406.329 317.074C406.304 317.22 406.259 317.385 406.203 317.552C406.148 317.716 406.089 317.863 406.043 317.968C406.021 318.02 406.002 318.06 405.99 318.086C405.985 318.098 405.98 318.107 405.978 318.111L405.978 318.112L405.977 318.114L405.977 318.115L405.481 319.111L406.365 319.838L406.366 319.838L406.367 319.839L406.368 319.84L406.37 319.842C406.375 319.846 406.385 319.855 406.399 319.867C406.427 319.891 406.47 319.929 406.524 319.979C406.633 320.08 406.779 320.222 406.925 320.385C407.074 320.552 407.205 320.72 407.3 320.874C407.346 320.949 407.377 321.01 407.397 321.057C407.412 321.094 407.417 321.114 407.418 321.118C407.419 321.122 407.42 321.141 407.419 321.176C407.417 321.219 407.411 321.277 407.399 321.348C407.374 321.494 407.329 321.659 407.273 321.826C407.218 321.991 407.159 322.137 407.113 322.243C407.09 322.295 407.072 322.335 407.06 322.36C407.054 322.373 407.05 322.381 407.048 322.386L407.047 322.387L407.047 322.388L407.046 322.389L406.551 323.385L407.435 324.112L407.436 324.113L407.437 324.114L407.438 324.114L407.44 324.116C407.445 324.12 407.455 324.129 407.469 324.141C407.497 324.165 407.54 324.203 407.594 324.253C407.703 324.354 407.848 324.496 407.995 324.659C408.144 324.826 408.275 324.994 408.369 325.148C408.416 325.223 408.447 325.285 408.466 325.331C408.482 325.369 408.487 325.389 408.488 325.393C408.488 325.397 408.491 325.425 408.487 325.48C408.482 325.543 408.471 325.623 408.45 325.719C408.408 325.913 408.34 326.121 408.27 326.303C408.243 326.374 408.181 326.476 408.041 326.605C401.8 332.412 392.248 341.247 379.828 346.347C374.702 348.453 368.463 349.887 364.607 350.774C363.457 351.038 362.52 351.254 361.886 351.424L360.8 351.716L360.548 360.216C360.51 361.509 360.508 362.89 360.507 364.143C360.507 364.628 360.507 365.094 360.504 365.527C360.499 366.317 360.488 366.996 360.459 367.522C360.445 367.786 360.427 367.992 360.407 368.144C360.392 368.253 360.38 368.303 360.379 368.312L359.929 369.472L361.107 370.081C362.873 370.993 365.766 372.859 368.544 375.428C371.328 378.002 373.904 381.196 375.183 384.749C377.012 389.83 377.952 392.722 378.384 394.197C378.461 394.46 378.392 394.75 378.107 395.003C375.263 397.518 371.068 400.888 366.198 403.568C361.499 406.153 356.582 407.605 352.359 408.852C351.244 409.181 350.177 409.496 349.176 409.813C348.675 409.972 348.214 409.904 347.901 409.702C346.105 408.544 344.14 406.986 341.916 405.223C341.202 404.657 340.461 404.069 339.691 403.467C336.572 401.031 333.053 398.426 329.151 396.326C319.949 391.374 311.216 387.07 302.877 386.034C291.827 384.662 280.23 389.643 273.968 394.657C273.34 395.16 272.532 395.237 271.943 394.945L241.198 379.658C240.496 379.309 240.239 378.577 240.503 377.991C242.412 373.756 245.531 368.38 248.766 362.804C249.819 360.988 250.885 359.152 251.925 357.326C254.262 353.225 257.558 348.962 260.567 345.508C263.606 342.02 266.236 339.489 267.21 338.781C267.635 338.472 267.858 337.977 267.801 337.473C267.743 336.969 267.413 336.526 266.929 336.304C264.604 335.238 260.027 333.08 255.329 330.669C250.602 328.243 245.86 325.615 243.139 323.606C238.237 319.988 234.425 315.891 232.682 313.755C232.503 313.535 232.453 313.321 232.474 313.157C232.514 312.856 232.577 312.541 232.669 312.267C232.768 311.976 232.864 311.841 232.902 311.803C233.008 311.696 233.37 311.51 233.963 311.353C234.217 311.286 234.454 311.239 234.627 311.21C234.713 311.195 234.781 311.185 234.825 311.179C234.847 311.175 234.863 311.173 234.871 311.172L234.876 311.172L234.877 311.172L234.878 311.171L234.879 311.171L236.233 311.015M233.219 308.506C233.182 308.515 233.145 308.525 233.107 308.535C232.454 308.707 231.36 309.061 230.632 309.794C230.15 310.279 229.877 310.875 229.712 311.36C229.542 311.864 229.448 312.372 229.395 312.778C229.258 313.816 229.622 314.788 230.228 315.531C232.093 317.817 236.085 322.104 241.237 325.907C244.187 328.084 249.14 330.815 253.86 333.238C257.473 335.092 261.012 336.797 263.536 337.982C262.101 339.332 260.183 341.324 258.165 343.641C255.087 347.173 251.656 351.597 249.189 355.927C248.186 357.688 247.145 359.482 246.107 361.271C242.851 366.883 239.62 372.451 237.646 376.83C236.706 378.917 237.73 381.233 239.766 382.245L270.51 397.532C272.362 398.453 274.522 398.066 275.986 396.894C281.789 392.247 292.545 387.7 302.492 388.936C310.136 389.886 318.361 393.879 327.626 398.866C331.284 400.834 334.634 403.304 337.72 405.716C338.434 406.274 339.138 406.832 339.831 407.382C342.088 409.171 344.224 410.866 346.162 412.115C347.403 412.916 348.908 412.992 350.183 412.588C351.086 412.302 352.082 412.008 353.148 411.694C357.389 410.445 362.741 408.868 367.775 406.099C372.924 403.265 377.31 399.734 380.238 397.143C381.282 396.22 381.785 394.837 381.375 393.436C380.919 391.88 379.957 388.925 378.121 383.825C376.628 379.675 373.69 376.101 370.709 373.345C368.16 370.987 365.51 369.165 363.536 368.035C363.544 367.924 363.552 367.81 363.558 367.693C363.591 367.094 363.602 366.358 363.607 365.563C363.61 365.101 363.61 364.618 363.611 364.122C363.612 362.883 363.613 361.567 363.65 360.317L363.838 353.973C364.211 353.886 364.637 353.788 365.109 353.679C368.904 352.809 375.661 351.259 381.083 349.032C394.093 343.689 404.012 334.479 410.228 328.696C410.606 328.344 410.969 327.889 411.189 327.314C411.29 327.051 411.409 326.701 411.491 326.322C411.569 325.961 411.636 325.476 411.557 324.979C411.408 324.035 410.753 323.219 410.361 322.781C410.325 322.74 410.289 322.701 410.253 322.662C410.403 322.204 410.604 321.44 410.487 320.704C410.338 319.76 409.683 318.945 409.291 318.507C409.255 318.466 409.219 318.426 409.183 318.388C409.333 317.929 409.534 317.166 409.417 316.43C409.268 315.486 408.613 314.671 408.221 314.232C408.185 314.192 408.149 314.152 408.113 314.114C408.263 313.655 408.464 312.892 408.348 312.156C408.191 311.169 407.481 310.315 407.079 309.878C406.359 309.094 405.374 308.727 404.457 308.635C402.61 308.451 398.232 308.083 395.109 308.412C393.171 308.617 390.819 309.183 389.006 309.676C388.088 309.926 387.286 310.164 386.713 310.339C386.434 310.424 386.209 310.495 386.05 310.545L285.971 308.614L247.288 296.029C246.633 295.816 245.858 295.714 245.057 295.884C244.666 295.966 244.153 296.097 243.643 296.295C243.155 296.485 242.542 296.785 242.065 297.266C241.269 298.067 240.994 299.234 240.877 299.921C240.864 300 240.852 300.078 240.841 300.153C240.804 300.163 240.767 300.172 240.729 300.182C240.076 300.355 238.982 300.709 238.254 301.442C237.458 302.243 237.183 303.41 237.066 304.097C237.053 304.176 237.041 304.254 237.03 304.33C236.993 304.339 236.956 304.348 236.918 304.358C236.265 304.531 235.171 304.885 234.443 305.618C233.646 306.419 233.371 307.586 233.255 308.273C233.242 308.352 233.23 308.43 233.219 308.506ZM240.04 305.548L240.04 305.542C240.04 305.533 240.041 305.516 240.041 305.492C240.043 305.446 240.045 305.373 240.051 305.282C240.062 305.098 240.085 304.847 240.131 304.577C240.238 303.944 240.413 303.563 240.525 303.451C240.631 303.344 240.992 303.158 241.585 303.001C241.839 302.934 242.076 302.887 242.249 302.857C242.335 302.843 242.403 302.833 242.447 302.826C242.469 302.823 242.485 302.821 242.494 302.82L242.498 302.82L242.5 302.819L242.501 302.819L243.856 302.663M243.851 301.372L243.852 301.366C243.852 301.357 243.852 301.34 243.852 301.316C243.854 301.27 243.856 301.197 243.862 301.106C243.873 300.922 243.896 300.671 243.942 300.401C244.049 299.768 244.224 299.387 244.336 299.275C244.379 299.231 244.528 299.124 244.843 299.002C245.135 298.888 245.464 298.801 245.755 298.74M243.851 301.372L243.851 301.373L243.851 301.374L243.851 301.375M240.04 305.548L240.04 305.549L240.04 305.55L240.04 305.551L240.045 306.839L238.69 306.995L238.689 306.995L238.688 306.996L238.687 306.996L238.682 306.996C238.674 306.997 238.658 306.999 238.636 307.002C238.592 307.009 238.524 307.019 238.438 307.033C238.265 307.063 238.028 307.11 237.774 307.177C237.181 307.334 236.82 307.52 236.714 307.627C236.602 307.739 236.427 308.12 236.32 308.753C236.274 309.023 236.251 309.274 236.24 309.458C236.234 309.549 236.231 309.622 236.23 309.669C236.23 309.692 236.229 309.709 236.229 309.718L236.229 309.724L236.229 309.725L236.229 309.726L236.229 309.727" fill="#19191B"/>
</g>
<path d="M322.172 227.262C313.489 227.459 306.254 229.808 303.722 230.958C301.273 227.426 294.434 221.671 280.92 223.073C266.674 224.552 251.888 250.67 257.043 272.6C260.808 288.617 266.674 290.342 266.674 290.342C261.584 296.945 258.274 305.403 263.046 313.257C271.728 327.549 322.541 332.229 358.258 313.257C367.646 308.27 374.027 302.785 378.346 297.469C381.075 298.89 383.986 299.458 387.018 299.458C399.217 299.458 399.76 275.557 399.217 258.063C398.675 240.568 382.124 220.116 366.93 219.377C354.774 218.786 351.381 226.851 351.203 230.958C345.144 229.644 330.854 227.065 322.172 227.262Z" fill="white"/>
<path d="M311.792 245.958C312.052 248.314 313.09 253.532 315.166 255.552C316.296 256.652 317.478 257.452 318.46 257.994C319.194 258.399 320.184 257.601 320.344 256.778C320.442 256.276 320.608 255.696 320.875 255.047C321.204 254.247 321.544 253.527 321.856 252.916C322.247 252.152 323.391 252.282 323.832 253.019C324.62 254.337 325.927 255.801 327.883 256.562C329.467 257.178 330.85 257.429 331.929 257.493C332.786 257.544 332.992 256.574 332.358 255.995C331.403 255.125 330.466 253.98 330.218 252.775C329.803 250.755 330.045 249.577 330.218 249.24" stroke="black" stroke-width="4" stroke-linecap="round"/>
<path d="M321.235 276.141C321.235 278.435 319.94 280.295 318.66 280.295C317.38 280.295 316.084 278.435 316.084 276.141C316.084 273.847 316.857 271.711 318.917 271.711C320.462 271.711 321.235 273.847 321.235 276.141Z" fill="black"/>
<path d="M310.654 280.917C310.733 281.886 308.996 284.73 306.579 284.892C304.162 285.053 301.98 282.471 301.9 281.503C301.821 280.535 303.145 279.657 305.562 279.496C307.98 279.334 310.574 279.949 310.654 280.917Z" fill="black"/>
<path d="M298.916 276.141C298.916 278.435 297.621 280.295 296.34 280.295C295.06 280.295 293.765 278.435 293.765 276.141C293.765 273.847 294.538 271.711 296.598 271.711C298.143 271.711 298.916 273.847 298.916 276.141Z" fill="black"/>
<path d="M275.97 247.221C274.783 251.574 273.253 257.816 273.253 267.18C273.253 277.529 274.326 282.703 274.326 282.703C266.38 289.11 256.101 301.824 263.115 313.257C271.883 327.549 323.198 332.229 359.267 313.257C368.748 308.27 375.193 302.785 379.554 297.469M266.78 290.342C266.78 290.342 260.856 288.617 257.053 272.6C251.847 250.67 266.78 224.552 281.166 223.073C294.814 221.671 301.719 227.426 304.193 230.958C306.75 229.808 314.057 227.459 322.825 227.262C331.593 227.065 346.024 229.644 352.143 230.958C352.322 226.851 355.749 218.786 368.025 219.377C383.369 220.116 400.083 240.568 400.631 258.063C401.179 275.557 403.408 295.762 388.312 299.458C385.357 300.182 382.31 298.89 379.554 297.469M363.367 250.67C363.367 254.367 361.175 258.063 361.175 270.629C361.175 282.457 368.944 291.997 379.554 297.469" stroke="black" stroke-width="4.5" stroke-linecap="round"/>
<defs>
<filter id="filter0_i_45_1060" x="228.821" y="299.264" width="182.812" height="112.561" filterUnits="userSpaceOnUse" color-interpolation-filters="sRGB">
<feFlood flood-opacity="0" result="BackgroundImageFix"/>
<feBlend mode="normal" in="SourceGraphic" in2="BackgroundImageFix" result="shape"/>
<feColorMatrix in="SourceAlpha" type="matrix" values="0 0 0 0 0 0 0 0 0 0 0 0 0 0 0 0 0 0 127 0" result="hardAlpha"/>
<feOffset dx="18"/>
<feGaussianBlur stdDeviation="2"/>
<feComposite in2="hardAlpha" operator="arithmetic" k2="-1" k3="1"/>
<feColorMatrix type="matrix" values="0 0 0 0 0 0 0 0 0 0 0 0 0 0 0 0 0 0 0.25 0"/>
<feBlend mode="normal" in2="shape" result="effect1_innerShadow_45_1060"/>
</filter>
<filter id="filter1_i_45_1060" x="225.366" y="295.799" width="186.226" height="121.029" filterUnits="userSpaceOnUse" color-interpolation-filters="sRGB">
<feFlood flood-opacity="0" result="BackgroundImageFix"/>
<feBlend mode="normal" in="SourceGraphic" in2="BackgroundImageFix" result="shape"/>
<feColorMatrix in="SourceAlpha" type="matrix" values="0 0 0 0 0 0 0 0 0 0 0 0 0 0 0 0 0 0 127 0" result="hardAlpha"/>
<feOffset dx="-28" dy="8"/>
<feGaussianBlur stdDeviation="2"/>
<feComposite in2="hardAlpha" operator="arithmetic" k2="-1" k3="1"/>
<feColorMatrix type="matrix" values="0 0 0 0 0 0 0 0 0 0 0 0 0 0 0 0 0 0 0.25 0"/>
<feBlend mode="normal" in2="shape" result="effect1_innerShadow_45_1060"/>
</filter>
<linearGradient id="paint0_linear_45_1060" x1="63.3993" y1="-26.5" x2="362.581" y2="-57.8062" gradientUnits="userSpaceOnUse">
<stop stop-color="#FFE0AF"/>
<stop offset="1" stop-color="#FFDB5A"/>
</linearGradient>
<clipPath id="clip0_45_1060">
<rect width="82.4097" height="82.4097" fill="white" transform="translate(165 245.099)"/>
</clipPath>
</defs>
</svg>
