<svg width="450" height="464" viewBox="0 0 450 464" fill="none" xmlns="http://www.w3.org/2000/svg">
<rect width="450" height="464" rx="40" fill="url(#paint0_linear_45_1017)"/>
<path d="M62.6211 104V72.8906H69.0664V98.6719H82.4727V104H62.6211ZM86.5117 104V80.668H92.8711V104H86.5117ZM89.6914 77.6172C87.7578 77.6172 86.2109 76.1562 86.2109 74.3945C86.2109 72.5898 87.7578 71.1289 89.6914 71.1289C91.582 71.1289 93.1289 72.5898 93.1289 74.3945C93.1289 76.1562 91.582 77.6172 89.6914 77.6172ZM111.133 87.5859C110.875 85.9531 109.414 84.8789 107.309 84.8789C105.246 84.8789 103.656 85.8672 103.699 87.2852C103.656 88.3164 104.516 89.1328 106.707 89.6055L110.875 90.4648C115.387 91.4102 117.578 93.4297 117.621 96.7812C117.578 101.379 113.453 104.473 107.266 104.473C100.949 104.473 97.2539 101.637 96.7383 97.082H103.141C103.441 98.9297 104.945 99.875 107.266 99.875C109.586 99.875 111.133 98.9297 111.133 97.4258C111.133 96.2227 110.145 95.4922 107.953 95.0195L104.086 94.2461C99.6602 93.3867 97.3398 91.0664 97.3828 87.6289C97.3398 83.1602 101.207 80.3672 107.223 80.3672C113.109 80.3672 116.762 83.1602 117.105 87.5859H111.133ZM133.82 80.668V85.4375H129.438V96.8242C129.438 98.6719 130.34 99.1445 131.629 99.1875C132.273 99.1875 133.391 99.1445 134.164 99.0586V104.086C133.477 104.215 132.359 104.301 130.77 104.301C126.172 104.301 123.035 102.238 123.078 97.7266V85.4375H119.855V80.668H123.078V75.082H129.438V80.668H133.82ZM158.441 104.473C151.395 104.473 147.012 99.6172 147.012 92.3984C147.012 85.1797 151.395 80.3672 158.441 80.3672C165.488 80.3672 169.914 85.1797 169.914 92.3984C169.914 99.6172 165.488 104.473 158.441 104.473ZM158.484 99.5312C161.75 99.5312 163.426 96.4805 163.426 92.3984C163.426 88.2734 161.75 85.2227 158.484 85.2227C155.176 85.2227 153.457 88.2734 153.457 92.3984C153.457 96.4805 155.176 99.5312 158.484 99.5312ZM186.328 80.668V85.4375H181.688V104H175.328V85.4375H172.02V80.668H175.328V78.9062C175.328 74.0078 178.293 71.4297 182.977 71.4297C184.438 71.4297 185.641 71.5586 186.758 71.8164V76.6289C185.855 76.543 185.168 76.5 184.824 76.5C182.762 76.5 181.688 77.3164 181.688 79.25V80.668H186.328ZM221.133 83.7188C220.617 80.2812 217.953 78.1758 214.344 78.1758C209.488 78.1758 206.309 81.9141 206.309 88.4453C206.309 95.1484 209.531 98.7148 214.301 98.7148C217.867 98.7148 220.488 96.7383 221.133 93.3867L227.664 93.4297C226.934 99.1875 222.121 104.43 214.215 104.43C205.879 104.43 199.734 98.5859 199.734 88.4453C199.734 78.3047 206.008 72.4609 214.215 72.4609C221.391 72.4609 226.805 76.5859 227.664 83.7188H221.133ZM230.93 97.4688C230.93 92.2695 235.141 90.5508 239.609 90.293C241.285 90.1855 244.422 90.0352 245.41 89.9922V88.1016C245.367 86.168 244.035 85.0078 241.672 85.0078C239.523 85.0078 238.148 85.9961 237.805 87.5859H231.746C232.133 83.5469 235.656 80.3672 241.844 80.3672C246.914 80.3672 251.727 82.6445 251.727 88.2734V104H245.711V100.777H245.539C244.379 102.926 242.188 104.43 238.707 104.43C234.238 104.43 230.93 102.109 230.93 97.4688ZM237.031 97.2969C237.031 99.1016 238.492 100.047 240.512 100.047C243.391 100.047 245.453 98.1133 245.41 95.6641V93.9453C244.443 93.9883 241.736 94.1387 240.641 94.2461C238.449 94.4609 237.031 95.4922 237.031 97.2969ZM268.871 80.668V85.4375H264.488V96.8242C264.488 98.6719 265.391 99.1445 266.68 99.1875C267.324 99.1875 268.441 99.1445 269.215 99.0586V104.086C268.527 104.215 267.41 104.301 265.82 104.301C261.223 104.301 258.086 102.238 258.129 97.7266V85.4375H254.906V80.668H258.129V75.082H264.488V80.668H268.871ZM285.844 87.5859C285.586 85.9531 284.125 84.8789 282.02 84.8789C279.957 84.8789 278.367 85.8672 278.41 87.2852C278.367 88.3164 279.227 89.1328 281.418 89.6055L285.586 90.4648C290.098 91.4102 292.289 93.4297 292.332 96.7812C292.289 101.379 288.164 104.473 281.977 104.473C275.66 104.473 271.965 101.637 271.449 97.082H277.852C278.152 98.9297 279.656 99.875 281.977 99.875C284.297 99.875 285.844 98.9297 285.844 97.4258C285.844 96.2227 284.855 95.4922 282.664 95.0195L278.797 94.2461C274.371 93.3867 272.051 91.0664 272.094 87.6289C272.051 83.1602 275.918 80.3672 281.934 80.3672C287.82 80.3672 291.473 83.1602 291.816 87.5859H285.844ZM68.8516 129.891V161H62.4922V129.891H68.8516ZM84.2773 161.473C77.2305 161.473 72.8477 156.617 72.8477 149.398C72.8477 142.18 77.2305 137.367 84.2773 137.367C91.3242 137.367 95.75 142.18 95.75 149.398C95.75 156.617 91.3242 161.473 84.2773 161.473ZM84.3203 156.531C87.5859 156.531 89.2617 153.48 89.2617 149.398C89.2617 145.273 87.5859 142.223 84.3203 142.223C81.0117 142.223 79.293 145.273 79.293 149.398C79.293 153.48 81.0117 156.531 84.3203 156.531ZM110.23 161.473C103.184 161.473 98.8008 156.617 98.8008 149.398C98.8008 142.18 103.184 137.367 110.23 137.367C117.277 137.367 121.703 142.18 121.703 149.398C121.703 156.617 117.277 161.473 110.23 161.473ZM110.273 156.531C113.539 156.531 115.215 153.48 115.215 149.398C115.215 145.273 113.539 142.223 110.273 142.223C106.965 142.223 105.246 145.273 105.246 149.398C105.246 153.48 106.965 156.531 110.273 156.531ZM125.699 161V129.891H132.059V146.605H132.402L139.965 137.668H147.27L138.59 147.766L147.742 161H140.266L133.863 151.504L132.059 153.523V161H125.699ZM150.234 161V137.668H156.594V161H150.234ZM153.414 134.617C151.48 134.617 149.934 133.156 149.934 131.395C149.934 129.59 151.48 128.129 153.414 128.129C155.305 128.129 156.852 129.59 156.852 131.395C156.852 133.156 155.305 134.617 153.414 134.617ZM167.895 147.508V161H161.535V137.668H167.594V141.75H167.852C168.926 139.043 171.418 137.367 174.855 137.367C179.711 137.367 182.934 140.676 182.891 146.133V161H176.574V147.25C176.574 144.371 174.984 142.652 172.363 142.652C169.699 142.652 167.895 144.414 167.895 147.508ZM198.316 170.238C191.871 170.238 187.918 167.359 187.531 162.934H193.805C194.148 164.781 195.91 165.641 198.445 165.641C201.41 165.641 203.387 164.395 203.387 161.129V156.875H203.086C202.227 158.766 200.164 160.656 196.426 160.656C191.141 160.656 186.93 156.961 186.93 149.184C186.93 141.277 191.27 137.367 196.426 137.367C200.336 137.367 202.227 139.688 203.086 141.578H203.344V137.668H209.66V161.258C209.66 167.188 204.934 170.238 198.316 170.238ZM198.402 155.887C201.582 155.887 203.387 153.395 203.387 149.27C203.387 145.102 201.582 142.438 198.402 142.438C195.18 142.438 193.461 145.23 193.461 149.27C193.461 153.309 195.18 155.887 198.402 155.887ZM237.16 137.668V142.438H232.52V161H226.16V142.438H222.852V137.668H226.16V135.906C226.16 131.008 229.125 128.43 233.809 128.43C235.27 128.43 236.473 128.559 237.59 128.816V133.629C236.688 133.543 236 133.5 235.656 133.5C233.594 133.5 232.52 134.316 232.52 136.25V137.668H237.16ZM250.523 161.473C243.477 161.473 239.094 156.617 239.094 149.398C239.094 142.18 243.477 137.367 250.523 137.367C257.57 137.367 261.996 142.18 261.996 149.398C261.996 156.617 257.57 161.473 250.523 161.473ZM250.566 156.531C253.832 156.531 255.508 153.48 255.508 149.398C255.508 145.273 253.832 142.223 250.566 142.223C247.258 142.223 245.539 145.273 245.539 149.398C245.539 153.48 247.258 156.531 250.566 156.531ZM265.992 161V137.668H272.137V141.707H272.395C273.254 138.828 275.402 137.324 278.023 137.324C278.668 137.324 279.484 137.41 280.043 137.539V143.211C279.441 143.039 278.238 142.867 277.336 142.867C274.457 142.867 272.352 144.887 272.352 147.723V161H265.992ZM61.375 211.469C61.375 206.27 65.5859 204.551 70.0547 204.293C71.7305 204.186 74.8672 204.035 75.8555 203.992V202.102C75.8125 200.168 74.4805 199.008 72.1172 199.008C69.9688 199.008 68.5938 199.996 68.25 201.586H62.1914C62.5781 197.547 66.1016 194.367 72.2891 194.367C77.3594 194.367 82.1719 196.645 82.1719 202.273V218H76.1562V214.777H75.9844C74.8242 216.926 72.6328 218.43 69.1523 218.43C64.6836 218.43 61.375 216.109 61.375 211.469ZM67.4766 211.297C67.4766 213.102 68.9375 214.047 70.957 214.047C73.8359 214.047 75.8984 212.113 75.8555 209.664V207.945C74.8887 207.988 72.1816 208.139 71.0859 208.246C68.8945 208.461 67.4766 209.492 67.4766 211.297ZM95.6211 218.387C90.293 218.387 86.125 214.133 86.125 206.355C86.125 198.363 90.4648 194.367 95.6211 194.367C99.5312 194.367 101.379 196.688 102.238 198.578H102.453V186.891H108.812V218H102.539V214.262H102.238C101.336 216.195 99.4023 218.387 95.6211 218.387ZM97.5977 213.316C100.777 213.316 102.582 210.523 102.582 206.312C102.582 202.102 100.777 199.438 97.5977 199.438C94.375 199.438 92.6562 202.23 92.6562 206.312C92.6562 210.438 94.375 213.316 97.5977 213.316ZM124.41 218.473C117.363 218.473 112.98 213.617 112.98 206.398C112.98 199.18 117.363 194.367 124.41 194.367C131.457 194.367 135.883 199.18 135.883 206.398C135.883 213.617 131.457 218.473 124.41 218.473ZM124.453 213.531C127.719 213.531 129.395 210.48 129.395 206.398C129.395 202.273 127.719 199.223 124.453 199.223C121.145 199.223 119.426 202.273 119.426 206.398C119.426 210.48 121.145 213.531 124.453 213.531ZM139.879 226.766V194.668H146.152V198.578H146.41C147.27 196.688 149.16 194.367 153.07 194.367C158.227 194.367 162.523 198.363 162.523 206.355C162.523 214.133 158.398 218.387 153.07 218.387C149.246 218.387 147.312 216.195 146.41 214.262H146.238V226.766H139.879ZM146.109 206.312C146.109 210.523 147.914 213.316 151.051 213.316C154.316 213.316 156.035 210.438 156.035 206.312C156.035 202.23 154.316 199.438 151.051 199.438C147.871 199.438 146.109 202.102 146.109 206.312ZM178.938 194.668V199.438H174.555V210.824C174.555 212.672 175.457 213.145 176.746 213.188C177.391 213.188 178.508 213.145 179.281 213.059V218.086C178.594 218.215 177.477 218.301 175.887 218.301C171.289 218.301 168.152 216.238 168.195 211.727V199.438H164.973V194.668H168.195V189.082H174.555V194.668H178.938ZM182.934 218V194.668H189.293V218H182.934ZM186.113 191.617C184.18 191.617 182.633 190.156 182.633 188.395C182.633 186.59 184.18 185.129 186.113 185.129C188.004 185.129 189.551 186.59 189.551 188.395C189.551 190.156 188.004 191.617 186.113 191.617ZM204.719 218.473C197.672 218.473 193.289 213.617 193.289 206.398C193.289 199.18 197.672 194.367 204.719 194.367C211.766 194.367 216.191 199.18 216.191 206.398C216.191 213.617 211.766 218.473 204.719 218.473ZM204.762 213.531C208.027 213.531 209.703 210.48 209.703 206.398C209.703 202.273 208.027 199.223 204.762 199.223C201.453 199.223 199.734 202.273 199.734 206.398C199.734 210.48 201.453 213.531 204.762 213.531ZM226.547 204.508V218H220.188V194.668H226.246V198.75H226.504C227.578 196.043 230.07 194.367 233.508 194.367C238.363 194.367 241.586 197.676 241.543 203.133V218H235.227V204.25C235.227 201.371 233.637 199.652 231.016 199.652C228.352 199.652 226.547 201.414 226.547 204.508Z" fill="#594C4C"/>
<g filter="url(#filter0_i_45_1017)">
<path d="M341.823 345.634C352.828 341 361.392 332.69 366.872 327.352C367.1 327.13 367.289 326.872 367.403 326.569C367.561 326.151 367.753 325.521 367.698 325.038C367.589 324.074 366.418 322.942 366.418 322.942C366.418 322.942 366.992 321.755 366.902 320.96C366.793 319.997 365.622 318.864 365.622 318.864C365.622 318.864 366.196 317.677 366.106 316.883C365.997 315.919 364.826 314.787 364.826 314.787C364.826 314.787 365.4 313.6 365.311 312.806C365.253 312.298 364.901 311.744 364.581 311.333C364.246 310.904 363.754 310.664 363.23 310.59C361.647 310.369 358.053 309.934 355.539 310.155C352.451 310.426 347.8 311.967 347.8 311.967L261.931 307.638L229.041 294.675C228.663 294.526 228.257 294.465 227.861 294.546C227.275 294.666 226.41 294.916 225.951 295.4C225.15 296.243 225.096 298.312 225.096 298.312C225.096 298.312 223.316 298.488 222.58 299.263C221.78 300.107 221.726 302.176 221.726 302.176C221.726 302.176 219.946 302.351 219.21 303.127C218.409 303.97 218.355 306.039 218.355 306.039C218.355 306.039 216.575 306.215 215.839 306.99C215.381 307.473 215.168 308.357 215.069 309.025C214.985 309.593 215.145 310.16 215.467 310.626C216.947 312.766 220.164 316.835 224.355 320.476C229.084 324.585 240.622 331.114 244.56 333.263C242.595 334.757 234.961 343.016 230.625 350.888C226.841 357.758 222.594 364.968 220.244 370.301C219.692 371.553 220.198 373.013 221.348 373.692L247.187 388.941C248.213 389.546 249.487 389.363 250.403 388.595C255.689 384.166 265.367 379.928 274.298 381.424C281.097 382.563 288.224 386.704 295.974 391.642C302.319 395.686 307.427 401.601 311.53 404.721C312.18 405.215 313.018 405.308 313.784 405.063C317.792 403.782 323.423 402.496 328.742 399.457C333.097 396.969 336.857 393.805 339.393 391.456C339.976 390.916 340.244 390.13 340.059 389.335C339.722 387.888 338.99 385.094 337.565 380.224C335.409 372.855 328.52 367.123 325.346 365.178C325.648 364.387 325.61 360.455 325.797 357.099L326.191 350.058C328.4 349.469 335.958 348.104 341.823 345.634Z" fill="white"/>
</g>
<g filter="url(#filter1_i_45_1017)">
<path fill-rule="evenodd" clip-rule="evenodd" d="M228.115 295.865C228.218 295.844 228.371 295.851 228.574 295.931L261.753 308.985L348.308 313.352L348.535 313.277L348.545 313.273L348.582 313.261C348.615 313.251 348.665 313.235 348.729 313.214C348.858 313.173 349.048 313.113 349.285 313.04C349.76 312.895 350.426 312.698 351.186 312.493C352.725 312.077 354.575 311.649 356.005 311.524C358.363 311.318 361.833 311.73 363.431 311.953C363.698 311.991 363.852 312.098 363.928 312.195C364.058 312.362 364.176 312.534 364.261 312.694C364.303 312.773 364.331 312.837 364.349 312.887C364.363 312.927 364.367 312.948 364.368 312.952C364.368 312.956 364.369 312.974 364.367 313.007C364.364 313.048 364.358 313.103 364.345 313.17C364.32 313.308 364.277 313.463 364.224 313.62C364.173 313.775 364.118 313.912 364.076 314.011C364.055 314.06 364.038 314.098 364.028 314.121C364.022 314.133 364.018 314.141 364.016 314.145L364.016 314.147L364.015 314.148L364.015 314.149L363.563 315.081L364.3 315.793L364.301 315.793L364.304 315.796C364.308 315.801 364.317 315.809 364.328 315.821C364.351 315.844 364.387 315.882 364.432 315.93C364.523 316.029 364.644 316.167 364.764 316.326C364.887 316.487 364.995 316.65 365.072 316.798C365.11 316.871 365.135 316.93 365.15 316.975C365.162 317.01 365.166 317.029 365.167 317.033C365.167 317.037 365.168 317.055 365.166 317.088C365.163 317.129 365.156 317.184 365.144 317.251C365.118 317.389 365.075 317.544 365.023 317.701C364.971 317.856 364.916 317.993 364.874 318.092C364.854 318.141 364.837 318.179 364.826 318.202C364.821 318.214 364.817 318.222 364.815 318.226L364.815 318.227L364.814 318.229L364.813 318.229L364.362 319.162L365.099 319.874L365.099 319.874L365.1 319.875L365.101 319.875L365.103 319.877C365.107 319.882 365.115 319.89 365.127 319.902C365.15 319.925 365.186 319.962 365.231 320.011C365.322 320.11 365.442 320.248 365.563 320.407C365.686 320.568 365.794 320.731 365.87 320.879C365.908 320.952 365.933 321.011 365.949 321.056C365.961 321.091 365.965 321.11 365.965 321.114C365.966 321.118 365.966 321.136 365.964 321.169C365.961 321.21 365.955 321.265 365.942 321.332C365.917 321.47 365.874 321.625 365.821 321.782C365.77 321.937 365.715 322.074 365.673 322.173C365.652 322.222 365.635 322.26 365.625 322.283C365.619 322.295 365.615 322.303 365.613 322.307L365.613 322.309L365.612 322.31L365.612 322.31L365.16 323.243L365.897 323.955L365.898 323.955L365.899 323.956L365.899 323.956L365.901 323.958C365.906 323.963 365.914 323.971 365.925 323.983C365.949 324.006 365.985 324.043 366.029 324.092C366.12 324.191 366.241 324.329 366.362 324.488C366.485 324.649 366.592 324.812 366.669 324.96C366.707 325.033 366.732 325.092 366.747 325.137C366.76 325.172 366.763 325.191 366.764 325.195C366.764 325.2 366.765 325.226 366.76 325.278C366.755 325.338 366.743 325.414 366.722 325.504C366.681 325.687 366.617 325.882 366.552 326.054C366.527 326.12 366.471 326.215 366.348 326.334C360.842 331.687 352.417 339.829 341.639 344.359C337.19 346.228 331.807 347.433 328.479 348.179C327.488 348.401 326.678 348.582 326.131 348.728L325.193 348.977L324.743 357.034C324.674 358.259 324.635 359.569 324.6 360.757C324.586 361.217 324.573 361.659 324.559 362.07C324.533 362.819 324.504 363.463 324.465 363.962C324.445 364.211 324.425 364.406 324.403 364.55C324.388 364.653 324.376 364.7 324.374 364.709L323.958 365.798L324.95 366.404C326.438 367.314 328.863 369.156 331.173 371.662C333.486 374.172 335.604 377.266 336.602 380.668C338.029 385.533 338.754 388.3 339.083 389.71C339.142 389.961 339.075 390.235 338.824 390.467C336.319 392.782 332.632 395.874 328.387 398.295C324.291 400.63 320.039 401.885 316.388 402.962C315.424 403.247 314.502 403.519 313.636 403.795C313.202 403.934 312.809 403.857 312.547 403.658C311.04 402.515 309.4 400.988 307.544 399.261C306.948 398.706 306.329 398.13 305.686 397.54C303.082 395.151 300.14 392.593 296.855 390.504C289.11 385.578 281.749 381.278 274.635 380.088C265.208 378.511 255.138 382.948 249.636 387.548C249.085 388.009 248.39 388.062 247.894 387.77L221.982 372.505C221.39 372.157 221.189 371.456 221.432 370.906C223.184 366.937 226.003 361.915 228.928 356.707C229.88 355.011 230.843 353.295 231.784 351.589C233.899 347.757 236.84 343.796 239.513 340.594C242.211 337.362 244.534 335.027 245.388 334.379C245.76 334.097 245.965 333.633 245.93 333.153C245.894 332.673 245.624 332.245 245.215 332.023C243.253 330.954 239.392 328.793 235.435 326.389C231.453 323.97 227.464 321.359 225.189 319.386C221.09 315.832 217.938 311.852 216.504 309.782C216.356 309.569 216.319 309.365 216.342 309.21C216.384 308.925 216.447 308.627 216.533 308.37C216.626 308.096 216.712 307.971 216.746 307.936C216.84 307.837 217.154 307.67 217.667 307.535C217.886 307.478 218.09 307.44 218.24 307.416C218.313 307.404 218.372 307.396 218.41 307.391C218.429 307.389 218.442 307.387 218.45 307.387L218.454 307.386L218.455 307.386L218.455 307.386L218.456 307.386L219.621 307.271M217.108 304.816C217.076 304.824 217.044 304.832 217.011 304.841C216.447 304.988 215.5 305.296 214.856 305.974C214.43 306.421 214.18 306.98 214.026 307.437C213.866 307.91 213.772 308.389 213.715 308.774C213.569 309.754 213.854 310.686 214.352 311.405C215.887 313.62 219.188 317.786 223.496 321.521C225.963 323.66 230.13 326.374 234.106 328.789C237.149 330.638 240.134 332.343 242.263 333.53C240.996 334.775 239.299 336.616 237.506 338.764C234.773 342.038 231.712 346.149 229.48 350.195C228.572 351.84 227.631 353.515 226.693 355.187C223.749 360.428 220.829 365.63 219.017 369.735C218.154 371.69 218.967 373.913 220.683 374.924L246.595 390.188C248.156 391.108 250.017 390.795 251.303 389.719C256.401 385.456 265.739 381.411 274.225 382.831C280.746 383.922 287.681 387.914 295.48 392.875C298.559 394.833 301.359 397.259 303.936 399.624C304.532 400.17 305.12 400.718 305.699 401.257C307.582 403.01 309.365 404.67 310.99 405.904C312.032 406.694 313.319 406.804 314.421 406.452C315.203 406.203 316.064 405.95 316.986 405.678C320.653 404.599 325.281 403.236 329.668 400.735C334.157 398.175 338.011 394.935 340.59 392.55C341.51 391.7 341.979 390.402 341.666 389.062C341.319 387.575 340.576 384.748 339.144 379.865C337.979 375.892 335.562 372.428 333.084 369.739C330.965 367.44 328.746 365.646 327.086 364.525C327.097 364.42 327.106 364.311 327.115 364.201C327.159 363.634 327.19 362.935 327.216 362.181C327.231 361.743 327.244 361.285 327.258 360.815C327.293 359.64 327.331 358.392 327.397 357.207L327.733 351.194C328.054 351.12 328.422 351.038 328.83 350.947C332.104 350.216 337.934 348.913 342.639 346.936C353.93 342.192 362.68 333.703 368.163 328.372C368.497 328.047 368.82 327.625 369.025 327.085C369.118 326.838 369.23 326.509 369.31 326.151C369.387 325.811 369.458 325.352 369.404 324.879C369.302 323.98 368.764 323.19 368.44 322.765C368.41 322.725 368.38 322.687 368.351 322.65C368.492 322.218 368.685 321.499 368.605 320.798C368.503 319.899 367.965 319.109 367.642 318.684C367.612 318.644 367.582 318.606 367.552 318.569C367.693 318.137 367.886 317.418 367.807 316.717C367.705 315.818 367.167 315.028 366.843 314.603C366.813 314.563 366.783 314.525 366.754 314.488C366.895 314.056 367.088 313.337 367.008 312.636C366.902 311.696 366.317 310.869 365.985 310.444C365.39 309.682 364.556 309.31 363.773 309.2C362.196 308.979 358.456 308.521 355.773 308.756C354.107 308.902 352.077 309.38 350.511 309.803C349.717 310.017 349.024 310.223 348.528 310.374C348.287 310.448 348.092 310.51 347.955 310.553L262.288 306.232L229.502 293.331C228.947 293.113 228.286 292.997 227.595 293.138C227.258 293.207 226.815 293.318 226.373 293.493C225.95 293.661 225.416 293.931 224.994 294.375C224.29 295.115 224.023 296.215 223.904 296.864C223.89 296.939 223.878 297.012 223.867 297.083C223.835 297.091 223.803 297.099 223.77 297.108C223.206 297.256 222.259 297.564 221.615 298.241C220.911 298.981 220.643 300.081 220.525 300.73C220.511 300.805 220.499 300.878 220.487 300.95C220.456 300.958 220.423 300.966 220.391 300.974C219.827 301.122 218.88 301.43 218.236 302.107C217.532 302.848 217.264 303.948 217.145 304.597C217.132 304.671 217.119 304.745 217.108 304.816ZM223.032 302.18L223.032 302.175C223.033 302.166 223.033 302.15 223.034 302.128C223.037 302.083 223.041 302.015 223.048 301.929C223.063 301.754 223.09 301.516 223.136 301.262C223.246 300.664 223.406 300.307 223.505 300.203C223.598 300.104 223.913 299.937 224.426 299.803C224.645 299.745 224.849 299.707 224.998 299.683C225.072 299.671 225.131 299.663 225.168 299.659C225.187 299.656 225.201 299.655 225.208 299.654L225.212 299.653L225.214 299.653L225.215 299.653L226.379 299.539M226.411 298.314L226.412 298.309C226.412 298.3 226.413 298.284 226.414 298.261C226.416 298.217 226.42 298.148 226.428 298.062C226.443 297.888 226.469 297.65 226.516 297.395C226.625 296.798 226.786 296.44 226.884 296.337C226.922 296.297 227.053 296.199 227.326 296.091C227.579 295.99 227.864 295.916 228.115 295.865M226.411 298.314L226.411 298.315L226.411 298.316L226.411 298.317M223.032 302.18L223.032 302.181L223.032 302.182L223.032 302.183L223 303.405L221.836 303.519L221.835 303.52L221.834 303.52L221.833 303.52L221.829 303.52C221.821 303.521 221.808 303.523 221.789 303.525C221.751 303.53 221.693 303.538 221.619 303.549C221.469 303.573 221.265 303.612 221.046 303.669C220.533 303.803 220.219 303.971 220.125 304.069C220.027 304.173 219.866 304.53 219.757 305.128C219.71 305.383 219.684 305.62 219.669 305.795C219.662 305.881 219.657 305.95 219.655 305.994C219.654 306.016 219.653 306.032 219.653 306.041L219.653 306.047L219.653 306.048L219.653 306.049L219.653 306.05" fill="#19191B"/>
</g>
<g filter="url(#filter2_i_45_1017)">
<path d="M299.505 226.276C306.978 226.96 313.084 229.695 315.203 230.977C317.509 227.614 323.722 222.294 335.293 224.445C347.489 226.711 358.787 253.429 353.129 274.873C348.996 290.535 343.844 291.914 343.844 291.914C347.866 298.744 350.25 307.314 345.702 314.829C337.427 328.505 293.372 330.286 263.638 309.474C255.823 304.004 250.627 298.208 247.199 292.697C244.768 293.952 242.227 294.351 239.614 294.181C229.099 293.495 229.956 269.776 231.393 252.468C232.83 235.16 248.228 215.822 261.365 215.944C271.875 216.042 274.353 224.226 274.278 228.306C279.573 227.344 292.033 225.592 299.505 226.276Z" fill="#FBFBFB"/>
</g>
<path fill-rule="evenodd" clip-rule="evenodd" d="M308.817 244.849C308.09 244.721 307.402 245.226 307.281 245.977C307.111 247.038 306.733 248.764 306.163 250.427C305.572 252.154 304.86 253.556 304.137 254.218C303.261 255.021 302.364 255.611 301.6 256.023C301.529 255.424 301.387 254.746 301.146 253.999C300.616 252.358 300.027 251.023 299.643 250.249C298.962 248.875 297.259 249.254 296.81 250.362C296.32 251.57 295.077 253.464 293.025 254.163C292.452 254.358 291.919 254.495 291.431 254.586C292.026 253.892 292.58 253.031 292.829 252.044C293.096 250.985 293.196 250.104 293.201 249.409C293.206 248.757 293.129 248.166 292.954 247.745C292.663 247.043 291.878 246.714 291.2 247.011C290.522 247.309 290.209 248.119 290.5 248.822C290.493 248.806 290.49 248.798 290.49 248.798C290.486 248.799 290.533 248.973 290.53 249.373C290.527 249.817 290.462 250.471 290.244 251.333C290.114 251.848 289.74 252.437 289.171 253.032C288.618 253.61 287.974 254.096 287.473 254.414C286.954 254.743 286.678 255.343 286.741 255.948C286.808 256.586 287.253 257.166 287.933 257.325C289.136 257.605 291.247 257.682 293.873 256.787C295.821 256.124 297.211 254.791 298.133 253.499C298.292 253.916 298.455 254.373 298.613 254.861C299.037 256.178 299.013 257.048 298.953 257.415C298.858 257.996 299.073 258.526 299.395 258.868C299.727 259.222 300.33 259.523 301.013 259.29C302.139 258.905 304.069 257.981 305.914 256.29C307.181 255.129 308.074 253.137 308.682 251.361C309.311 249.523 309.725 247.638 309.916 246.444C310.037 245.692 309.545 244.978 308.817 244.849Z" fill="#19191B"/>
<path d="M306.678 280.098C306.557 281.047 307.879 283.945 309.928 284.239C311.977 284.533 313.977 282.11 314.098 281.161C314.219 280.212 313.14 279.273 311.091 278.98C309.042 278.686 306.799 279.148 306.678 280.098Z" fill="#19191B"/>
<path d="M317.214 276.023C317.107 277.935 318.225 279.563 319.416 279.64C320.607 279.718 321.899 278.247 322.006 276.336C322.112 274.425 321.493 272.598 319.576 272.472C318.139 272.379 317.321 274.112 317.214 276.023Z" fill="#19191B"/>
<path fill-rule="evenodd" clip-rule="evenodd" d="M270.909 221.453C272.606 223.725 273.142 226.463 273.109 228.248L273.078 229.939L274.668 229.649C279.957 228.686 292.246 226.963 299.519 227.629C306.77 228.293 312.681 230.959 314.643 232.149L315.686 232.781L316.385 231.759C318.419 228.788 324.133 223.726 335.141 225.775C337.784 226.267 340.524 228.123 343.093 231.151C345.65 234.164 347.951 238.24 349.724 242.948C353.276 252.377 354.63 264.116 351.894 274.501C349.862 282.216 347.612 286.287 345.96 288.399C345.313 289.227 344.759 289.753 344.345 290.081C342.769 287.575 341.012 285.339 339.341 283.508C339.357 283.431 339.373 283.348 339.39 283.259C339.515 282.603 339.687 281.627 339.876 280.33C340.254 277.736 340.702 273.859 340.992 268.683C341.519 259.243 340.544 252.846 339.763 248.402C339.63 247.647 338.938 247.146 338.217 247.282C337.497 247.417 337.02 248.14 337.153 248.895C337.913 253.218 338.853 259.375 338.342 268.51C338.057 273.6 337.618 277.392 337.252 279.901C337.069 281.155 336.905 282.089 336.787 282.704C336.728 283.012 336.681 283.24 336.649 283.388C336.633 283.463 336.621 283.517 336.613 283.552C336.61 283.569 336.607 283.581 336.605 283.589L336.603 283.596L336.603 283.596L336.603 283.596L336.603 283.597L336.603 283.597L336.424 284.353L336.949 284.909C338.9 286.975 340.993 289.636 342.755 292.629C342.765 292.647 342.775 292.665 342.786 292.683C343.832 294.466 344.759 296.367 345.467 298.329C347.365 303.588 347.643 309.131 344.63 314.12C342.819 317.119 338.895 319.668 333.258 321.4C327.669 323.117 320.61 323.965 312.842 323.745C297.296 323.306 279.132 318.601 264.536 308.364C257.475 303.412 252.628 298.212 249.315 293.245C258.342 288.08 265.206 278.969 265.863 267.215C266.216 260.902 265.972 256.762 265.662 253.727C265.572 252.854 265.471 252.019 265.381 251.28C265.322 250.793 265.268 250.349 265.226 249.963C265.112 248.922 265.057 248.092 265.102 247.296C265.145 246.53 264.586 245.871 263.854 245.823C263.123 245.775 262.495 246.357 262.452 247.123C262.394 248.16 262.47 249.178 262.589 250.268C262.641 250.749 262.698 251.215 262.758 251.703C262.842 252.391 262.932 253.125 263.023 254.012C263.318 256.903 263.558 260.89 263.214 267.042C262.591 278.177 255.807 286.817 246.794 291.483C244.326 292.76 242.131 293.575 240.233 292.9C234.68 290.924 232.378 285.579 231.743 278.032C231.218 271.792 231.874 264.476 232.527 257.18C232.665 255.647 232.802 254.115 232.928 252.594C233.618 244.278 237.678 235.37 243.207 228.549C248.771 221.683 255.557 217.244 261.535 217.299C266.41 217.344 269.257 219.244 270.909 221.453ZM246.923 294.5C244.703 295.558 242.014 296.464 239.388 295.53C232.28 293 229.761 286.133 229.099 278.265C228.551 271.748 229.237 264.114 229.892 256.818C230.028 255.308 230.162 253.812 230.284 252.343C231.031 243.336 235.379 233.905 241.18 226.747C246.944 219.635 254.408 214.456 261.548 214.521C267.169 214.573 270.806 216.816 272.997 219.747C274.67 221.985 275.441 224.546 275.68 226.655C281.568 225.667 292.729 224.22 299.74 224.861C306.463 225.477 312.12 227.708 314.944 229.176C317.937 225.51 324.49 220.973 335.596 223.04C339.043 223.681 342.28 226.017 345.075 229.311C347.881 232.619 350.331 236.994 352.193 241.937C355.912 251.809 357.371 264.171 354.453 275.249C352.357 283.209 349.97 287.666 348.017 290.163C347.151 291.27 346.37 291.993 345.738 292.462C346.584 294.024 347.339 295.664 347.95 297.356C350.032 303.126 350.475 309.649 346.875 315.611C344.554 319.455 339.879 322.264 334.014 324.066C328.101 325.883 320.755 326.747 312.78 326.522C296.839 326.072 278.16 321.258 263.065 310.67C255.595 305.431 250.445 299.873 246.923 294.5Z" fill="#19191B"/>
<path fill-rule="evenodd" clip-rule="evenodd" d="M297.125 272.71C297.03 273.313 297.43 273.884 298.017 273.985C299.275 274.202 300.502 274.532 301.574 275.07C302.02 275.294 302.469 275.569 302.841 275.862C303.107 276.379 303.723 276.601 304.245 276.356C304.785 276.103 305.021 275.447 304.771 274.89C304.606 274.521 304.384 274.296 304.153 274.114C303.643 273.711 303.062 273.359 302.512 273.083C301.181 272.414 299.729 272.038 298.362 271.802C297.774 271.701 297.22 272.107 297.125 272.71Z" fill="#19191B"/>
<path fill-rule="evenodd" clip-rule="evenodd" d="M296.651 274.952C296.598 275.581 297.055 276.137 297.67 276.195C298.315 276.255 298.941 276.299 299.554 276.343C300.925 276.439 302.228 276.531 303.528 276.79C304.135 276.91 304.719 276.506 304.833 275.886C304.947 275.266 304.548 274.665 303.941 274.545C302.499 274.257 300.971 274.149 299.538 274.048C298.959 274.007 298.395 273.967 297.859 273.917C297.244 273.86 296.703 274.323 296.651 274.952Z" fill="#19191B"/>
<path d="M365.633 294.794C365.719 293.25 364.607 291.921 363.148 291.826L359.188 291.567C357.73 291.472 356.477 292.647 356.391 294.191L354.984 319.354C354.898 320.898 356.01 322.227 357.469 322.322L361.429 322.581C362.888 322.676 364.14 321.501 364.226 319.957L365.633 294.794Z" fill="#7C7262"/>
<path fill-rule="evenodd" clip-rule="evenodd" d="M359.031 294.363L362.992 294.622L361.586 319.785L357.625 319.526L359.031 294.363ZM363.148 291.826C364.607 291.921 365.719 293.25 365.633 294.794L364.226 319.957C364.14 321.501 362.888 322.676 361.429 322.581L357.469 322.322C356.01 322.227 354.898 320.898 354.984 319.354L356.391 294.191C356.477 292.647 357.73 291.472 359.188 291.567L363.148 291.826Z" fill="#19191B"/>
<path d="M344.061 281.248C343.398 293.099 350.907 303.23 360.831 303.878C370.755 304.526 379.337 295.444 380 283.594C380.662 271.743 373.154 261.612 363.23 260.964C353.305 260.317 344.723 269.398 344.061 281.248Z" fill="#7C7262"/>
<path fill-rule="evenodd" clip-rule="evenodd" d="M360.986 301.094C352.828 300.562 346.111 292.076 346.707 281.421C347.302 270.767 354.916 263.216 363.074 263.748C371.232 264.28 377.95 272.767 377.354 283.421C376.758 294.076 369.145 301.627 360.986 301.094ZM360.831 303.878C350.907 303.23 343.398 293.099 344.061 281.248C344.723 269.398 353.305 260.317 363.23 260.964C373.154 261.612 380.662 271.743 380 283.594C379.337 295.444 370.755 304.526 360.831 303.878Z" fill="#19191B"/>
<path d="M349.195 281.583C348.72 290.076 354.082 297.336 361.171 297.798C368.26 298.261 374.391 291.751 374.866 283.259C375.34 274.766 369.979 267.506 362.89 267.044C355.801 266.581 349.67 273.091 349.195 281.583Z" fill="#C2E5FF"/>
<path fill-rule="evenodd" clip-rule="evenodd" d="M361.326 295.024C355.998 294.676 351.42 289.06 351.828 281.755C352.236 274.45 357.407 269.471 362.735 269.819C368.063 270.166 372.641 275.782 372.233 283.087C371.825 290.392 366.654 295.371 361.326 295.024ZM361.171 297.798C354.082 297.336 348.72 290.076 349.195 281.583C349.67 273.091 355.801 266.581 362.89 267.044C369.979 267.506 375.34 274.766 374.866 283.259C374.391 291.751 368.26 298.261 361.171 297.798Z" fill="#19191B"/>
<path fill-rule="evenodd" clip-rule="evenodd" d="M366.934 274.461C366.386 274.968 366.337 275.845 366.825 276.419C367.132 276.782 367.427 277.145 367.655 277.515C367.889 277.893 367.985 278.173 368.002 278.36C368.029 278.654 368.056 278.895 368.082 279.12C368.117 279.427 368.148 279.702 368.17 280.037C368.219 280.801 368.853 281.381 369.584 281.333C370.315 281.284 370.868 280.624 370.818 279.86C370.794 279.488 370.747 279.062 370.705 278.684C370.682 278.47 370.66 278.271 370.645 278.106C370.57 277.287 370.224 276.569 369.884 276.017C369.537 275.456 369.125 274.957 368.808 274.584C368.321 274.009 367.482 273.954 366.934 274.461Z" fill="white"/>
<path fill-rule="evenodd" clip-rule="evenodd" d="M369.983 281.555C369.262 281.688 368.782 282.408 368.913 283.162C368.936 283.298 368.972 283.408 369 283.483C369.003 283.491 369.006 283.499 369.008 283.506C369.165 284.141 369.736 284.591 370.384 284.548C371.115 284.499 371.668 283.839 371.618 283.075C371.601 282.811 371.524 282.605 371.486 282.514C371.29 281.854 370.65 281.433 369.983 281.555ZM369.048 283.602L369.048 283.602C369.048 283.602 369.048 283.602 369.048 283.602C369.048 283.602 369.048 283.602 369.048 283.602Z" fill="white"/>
<path d="M219.594 302.527L222.142 302.96L222.301 300.334" stroke="#131314" stroke-width="3"/>
<path d="M222.694 298.962L225.242 299.395L225.401 296.768" stroke="#131314" stroke-width="3"/>
<path d="M223.668 306.96C223.234 308.476 222.168 310.093 220.804 309.703C219.44 309.312 219.433 306.199 219.867 304.684C220.301 303.168 224.149 303.238 225.513 303.629C226.877 304.02 224.102 305.445 223.668 306.96Z" fill="#BFBFBF"/>
<path d="M227.042 303.474C226.608 304.989 225.542 306.607 224.178 306.216C222.814 305.825 222.456 301.863 223.477 300.374C224.497 298.884 228.221 299.358 228.966 299.868C230.33 300.259 227.476 301.958 227.042 303.474Z" fill="#BFBFBF"/>
<path d="M230.602 299.497C230.168 301.012 228.25 302.335 226.886 301.944C225.522 301.553 225.705 297.636 226.655 296.533C227.922 295.064 230.379 297.007 230.928 297.164C232.292 297.555 231.036 297.981 230.602 299.497Z" fill="#BFBFBF"/>
<defs>
<filter id="filter0_i_45_1017" x="215.046" y="294.51" width="156.661" height="110.683" filterUnits="userSpaceOnUse" color-interpolation-filters="sRGB">
<feFlood flood-opacity="0" result="BackgroundImageFix"/>
<feBlend mode="normal" in="SourceGraphic" in2="BackgroundImageFix" result="shape"/>
<feColorMatrix in="SourceAlpha" type="matrix" values="0 0 0 0 0 0 0 0 0 0 0 0 0 0 0 0 0 0 127 0" result="hardAlpha"/>
<feOffset dx="18"/>
<feGaussianBlur stdDeviation="2"/>
<feComposite in2="hardAlpha" operator="arithmetic" k2="-1" k3="1"/>
<feColorMatrix type="matrix" values="0 0 0 0 0 0 0 0 0 0 0 0 0 0 0 0 0 0 0.25 0"/>
<feBlend mode="normal" in2="shape" result="effect1_innerShadow_45_1017"/>
</filter>
<filter id="filter1_i_45_1017" x="209.677" y="293.077" width="159.746" height="117.566" filterUnits="userSpaceOnUse" color-interpolation-filters="sRGB">
<feFlood flood-opacity="0" result="BackgroundImageFix"/>
<feBlend mode="normal" in="SourceGraphic" in2="BackgroundImageFix" result="shape"/>
<feColorMatrix in="SourceAlpha" type="matrix" values="0 0 0 0 0 0 0 0 0 0 0 0 0 0 0 0 0 0 127 0" result="hardAlpha"/>
<feOffset dx="-28" dy="8"/>
<feGaussianBlur stdDeviation="2"/>
<feComposite in2="hardAlpha" operator="arithmetic" k2="-1" k3="1"/>
<feColorMatrix type="matrix" values="0 0 0 0 0 0 0 0 0 0 0 0 0 0 0 0 0 0 0.25 0"/>
<feBlend mode="normal" in2="shape" result="effect1_innerShadow_45_1017"/>
</filter>
<filter id="filter2_i_45_1017" x="230.545" y="215.943" width="128.085" height="113.176" filterUnits="userSpaceOnUse" color-interpolation-filters="sRGB">
<feFlood flood-opacity="0" result="BackgroundImageFix"/>
<feBlend mode="normal" in="SourceGraphic" in2="BackgroundImageFix" result="shape"/>
<feColorMatrix in="SourceAlpha" type="matrix" values="0 0 0 0 0 0 0 0 0 0 0 0 0 0 0 0 0 0 127 0" result="hardAlpha"/>
<feOffset dx="20" dy="8"/>
<feGaussianBlur stdDeviation="2"/>
<feComposite in2="hardAlpha" operator="arithmetic" k2="-1" k3="1"/>
<feColorMatrix type="matrix" values="0 0 0 0 0 0 0 0 0 0 0 0 0 0 0 0 0 0 0.25 0"/>
<feBlend mode="normal" in2="shape" result="effect1_innerShadow_45_1017"/>
</filter>
<linearGradient id="paint0_linear_45_1017" x1="63.3993" y1="-26.5" x2="454.766" y2="292.983" gradientUnits="userSpaceOnUse">
<stop stop-color="#FFE0B0"/>
<stop offset="1" stop-color="#FFE587"/>
</linearGradient>
</defs>
</svg>
