<svg width="450" height="464" viewBox="0 0 450 464" fill="none" xmlns="http://www.w3.org/2000/svg">
<rect width="450" height="464" rx="40" fill="url(#paint0_linear_106_1389)"/>
<path d="M62.6211 104V72.8906H69.0664V98.6719H82.4727V104H62.6211ZM86.5117 104V80.668H92.8711V104H86.5117ZM89.6914 77.6172C87.7578 77.6172 86.2109 76.1562 86.2109 74.3945C86.2109 72.5898 87.7578 71.1289 89.6914 71.1289C91.582 71.1289 93.1289 72.5898 93.1289 74.3945C93.1289 76.1562 91.582 77.6172 89.6914 77.6172ZM111.133 87.5859C110.875 85.9531 109.414 84.8789 107.309 84.8789C105.246 84.8789 103.656 85.8672 103.699 87.2852C103.656 88.3164 104.516 89.1328 106.707 89.6055L110.875 90.4648C115.387 91.4102 117.578 93.4297 117.621 96.7812C117.578 101.379 113.453 104.473 107.266 104.473C100.949 104.473 97.2539 101.637 96.7383 97.082H103.141C103.441 98.9297 104.945 99.875 107.266 99.875C109.586 99.875 111.133 98.9297 111.133 97.4258C111.133 96.2227 110.145 95.4922 107.953 95.0195L104.086 94.2461C99.6602 93.3867 97.3398 91.0664 97.3828 87.6289C97.3398 83.1602 101.207 80.3672 107.223 80.3672C113.109 80.3672 116.762 83.1602 117.105 87.5859H111.133ZM133.82 80.668V85.4375H129.438V96.8242C129.438 98.6719 130.34 99.1445 131.629 99.1875C132.273 99.1875 133.391 99.1445 134.164 99.0586V104.086C133.477 104.215 132.359 104.301 130.77 104.301C126.172 104.301 123.035 102.238 123.078 97.7266V85.4375H119.855V80.668H123.078V75.082H129.438V80.668H133.82ZM158.441 104.473C151.395 104.473 147.012 99.6172 147.012 92.3984C147.012 85.1797 151.395 80.3672 158.441 80.3672C165.488 80.3672 169.914 85.1797 169.914 92.3984C169.914 99.6172 165.488 104.473 158.441 104.473ZM158.484 99.5312C161.75 99.5312 163.426 96.4805 163.426 92.3984C163.426 88.2734 161.75 85.2227 158.484 85.2227C155.176 85.2227 153.457 88.2734 153.457 92.3984C153.457 96.4805 155.176 99.5312 158.484 99.5312ZM186.328 80.668V85.4375H181.688V104H175.328V85.4375H172.02V80.668H175.328V78.9062C175.328 74.0078 178.293 71.4297 182.977 71.4297C184.438 71.4297 185.641 71.5586 186.758 71.8164V76.6289C185.855 76.543 185.168 76.5 184.824 76.5C182.762 76.5 181.688 77.3164 181.688 79.25V80.668H186.328ZM211.293 104H200.336V72.8906H211.422C220.789 72.8906 226.504 78.7344 226.504 88.4023C226.504 98.1562 220.789 104 211.293 104ZM206.781 98.457H211.035C216.965 98.457 220.059 95.3633 220.059 88.4023C220.059 81.4844 216.965 78.4336 211.078 78.4336H206.781V98.457ZM241.543 104.473C234.496 104.473 230.113 99.6172 230.113 92.3984C230.113 85.1797 234.496 80.3672 241.543 80.3672C248.59 80.3672 253.016 85.1797 253.016 92.3984C253.016 99.6172 248.59 104.473 241.543 104.473ZM241.586 99.5312C244.852 99.5312 246.527 96.4805 246.527 92.3984C246.527 88.2734 244.852 85.2227 241.586 85.2227C238.277 85.2227 236.559 88.2734 236.559 92.3984C236.559 96.4805 238.277 99.5312 241.586 99.5312ZM267.496 113.238C261.051 113.238 257.098 110.359 256.711 105.934H262.984C263.328 107.781 265.09 108.641 267.625 108.641C270.59 108.641 272.566 107.395 272.566 104.129V99.875H272.266C271.406 101.766 269.344 103.656 265.605 103.656C260.32 103.656 256.109 99.9609 256.109 92.1836C256.109 84.2773 260.449 80.3672 265.605 80.3672C269.516 80.3672 271.406 82.6875 272.266 84.5781H272.523V80.668H278.84V104.258C278.84 110.188 274.113 113.238 267.496 113.238ZM267.582 98.8867C270.762 98.8867 272.566 96.3945 272.566 92.2695C272.566 88.1016 270.762 85.4375 267.582 85.4375C264.359 85.4375 262.641 88.2305 262.641 92.2695C262.641 96.3086 264.359 98.8867 267.582 98.8867ZM297.102 87.5859C296.844 85.9531 295.383 84.8789 293.277 84.8789C291.215 84.8789 289.625 85.8672 289.668 87.2852C289.625 88.3164 290.484 89.1328 292.676 89.6055L296.844 90.4648C301.355 91.4102 303.547 93.4297 303.59 96.7812C303.547 101.379 299.422 104.473 293.234 104.473C286.918 104.473 283.223 101.637 282.707 97.082H289.109C289.41 98.9297 290.914 99.875 293.234 99.875C295.555 99.875 297.102 98.9297 297.102 97.4258C297.102 96.2227 296.113 95.4922 293.922 95.0195L290.055 94.2461C285.629 93.3867 283.309 91.0664 283.352 87.6289C283.309 83.1602 287.176 80.3672 293.191 80.3672C299.078 80.3672 302.73 83.1602 303.074 87.5859H297.102ZM68.8516 129.891V161H62.4922V129.891H68.8516ZM84.2773 161.473C77.2305 161.473 72.8477 156.617 72.8477 149.398C72.8477 142.18 77.2305 137.367 84.2773 137.367C91.3242 137.367 95.75 142.18 95.75 149.398C95.75 156.617 91.3242 161.473 84.2773 161.473ZM84.3203 156.531C87.5859 156.531 89.2617 153.48 89.2617 149.398C89.2617 145.273 87.5859 142.223 84.3203 142.223C81.0117 142.223 79.293 145.273 79.293 149.398C79.293 153.48 81.0117 156.531 84.3203 156.531ZM110.23 161.473C103.184 161.473 98.8008 156.617 98.8008 149.398C98.8008 142.18 103.184 137.367 110.23 137.367C117.277 137.367 121.703 142.18 121.703 149.398C121.703 156.617 117.277 161.473 110.23 161.473ZM110.273 156.531C113.539 156.531 115.215 153.48 115.215 149.398C115.215 145.273 113.539 142.223 110.273 142.223C106.965 142.223 105.246 145.273 105.246 149.398C105.246 153.48 106.965 156.531 110.273 156.531ZM125.699 161V129.891H132.059V146.605H132.402L139.965 137.668H147.27L138.59 147.766L147.742 161H140.266L133.863 151.504L132.059 153.523V161H125.699ZM150.234 161V137.668H156.594V161H150.234ZM153.414 134.617C151.48 134.617 149.934 133.156 149.934 131.395C149.934 129.59 151.48 128.129 153.414 128.129C155.305 128.129 156.852 129.59 156.852 131.395C156.852 133.156 155.305 134.617 153.414 134.617ZM167.895 147.508V161H161.535V137.668H167.594V141.75H167.852C168.926 139.043 171.418 137.367 174.855 137.367C179.711 137.367 182.934 140.676 182.891 146.133V161H176.574V147.25C176.574 144.371 174.984 142.652 172.363 142.652C169.699 142.652 167.895 144.414 167.895 147.508ZM198.316 170.238C191.871 170.238 187.918 167.359 187.531 162.934H193.805C194.148 164.781 195.91 165.641 198.445 165.641C201.41 165.641 203.387 164.395 203.387 161.129V156.875H203.086C202.227 158.766 200.164 160.656 196.426 160.656C191.141 160.656 186.93 156.961 186.93 149.184C186.93 141.277 191.27 137.367 196.426 137.367C200.336 137.367 202.227 139.688 203.086 141.578H203.344V137.668H209.66V161.258C209.66 167.188 204.934 170.238 198.316 170.238ZM198.402 155.887C201.582 155.887 203.387 153.395 203.387 149.27C203.387 145.102 201.582 142.438 198.402 142.438C195.18 142.438 193.461 145.23 193.461 149.27C193.461 153.309 195.18 155.887 198.402 155.887ZM237.16 137.668V142.438H232.52V161H226.16V142.438H222.852V137.668H226.16V135.906C226.16 131.008 229.125 128.43 233.809 128.43C235.27 128.43 236.473 128.559 237.59 128.816V133.629C236.688 133.543 236 133.5 235.656 133.5C233.594 133.5 232.52 134.316 232.52 136.25V137.668H237.16ZM250.523 161.473C243.477 161.473 239.094 156.617 239.094 149.398C239.094 142.18 243.477 137.367 250.523 137.367C257.57 137.367 261.996 142.18 261.996 149.398C261.996 156.617 257.57 161.473 250.523 161.473ZM250.566 156.531C253.832 156.531 255.508 153.48 255.508 149.398C255.508 145.273 253.832 142.223 250.566 142.223C247.258 142.223 245.539 145.273 245.539 149.398C245.539 153.48 247.258 156.531 250.566 156.531ZM265.992 161V137.668H272.137V141.707H272.395C273.254 138.828 275.402 137.324 278.023 137.324C278.668 137.324 279.484 137.41 280.043 137.539V143.211C279.441 143.039 278.238 142.867 277.336 142.867C274.457 142.867 272.352 144.887 272.352 147.723V161H265.992ZM61.375 211.469C61.375 206.27 65.5859 204.551 70.0547 204.293C71.7305 204.186 74.8672 204.035 75.8555 203.992V202.102C75.8125 200.168 74.4805 199.008 72.1172 199.008C69.9688 199.008 68.5938 199.996 68.25 201.586H62.1914C62.5781 197.547 66.1016 194.367 72.2891 194.367C77.3594 194.367 82.1719 196.645 82.1719 202.273V218H76.1562V214.777H75.9844C74.8242 216.926 72.6328 218.43 69.1523 218.43C64.6836 218.43 61.375 216.109 61.375 211.469ZM67.4766 211.297C67.4766 213.102 68.9375 214.047 70.957 214.047C73.8359 214.047 75.8984 212.113 75.8555 209.664V207.945C74.8887 207.988 72.1816 208.139 71.0859 208.246C68.8945 208.461 67.4766 209.492 67.4766 211.297ZM95.6211 218.387C90.293 218.387 86.125 214.133 86.125 206.355C86.125 198.363 90.4648 194.367 95.6211 194.367C99.5312 194.367 101.379 196.688 102.238 198.578H102.453V186.891H108.812V218H102.539V214.262H102.238C101.336 216.195 99.4023 218.387 95.6211 218.387ZM97.5977 213.316C100.777 213.316 102.582 210.523 102.582 206.312C102.582 202.102 100.777 199.438 97.5977 199.438C94.375 199.438 92.6562 202.23 92.6562 206.312C92.6562 210.438 94.375 213.316 97.5977 213.316ZM124.41 218.473C117.363 218.473 112.98 213.617 112.98 206.398C112.98 199.18 117.363 194.367 124.41 194.367C131.457 194.367 135.883 199.18 135.883 206.398C135.883 213.617 131.457 218.473 124.41 218.473ZM124.453 213.531C127.719 213.531 129.395 210.48 129.395 206.398C129.395 202.273 127.719 199.223 124.453 199.223C121.145 199.223 119.426 202.273 119.426 206.398C119.426 210.48 121.145 213.531 124.453 213.531ZM139.879 226.766V194.668H146.152V198.578H146.41C147.27 196.688 149.16 194.367 153.07 194.367C158.227 194.367 162.523 198.363 162.523 206.355C162.523 214.133 158.398 218.387 153.07 218.387C149.246 218.387 147.312 216.195 146.41 214.262H146.238V226.766H139.879ZM146.109 206.312C146.109 210.523 147.914 213.316 151.051 213.316C154.316 213.316 156.035 210.438 156.035 206.312C156.035 202.23 154.316 199.438 151.051 199.438C147.871 199.438 146.109 202.102 146.109 206.312ZM178.938 194.668V199.438H174.555V210.824C174.555 212.672 175.457 213.145 176.746 213.188C177.391 213.188 178.508 213.145 179.281 213.059V218.086C178.594 218.215 177.477 218.301 175.887 218.301C171.289 218.301 168.152 216.238 168.195 211.727V199.438H164.973V194.668H168.195V189.082H174.555V194.668H178.938ZM182.934 218V194.668H189.293V218H182.934ZM186.113 191.617C184.18 191.617 182.633 190.156 182.633 188.395C182.633 186.59 184.18 185.129 186.113 185.129C188.004 185.129 189.551 186.59 189.551 188.395C189.551 190.156 188.004 191.617 186.113 191.617ZM204.719 218.473C197.672 218.473 193.289 213.617 193.289 206.398C193.289 199.18 197.672 194.367 204.719 194.367C211.766 194.367 216.191 199.18 216.191 206.398C216.191 213.617 211.766 218.473 204.719 218.473ZM204.762 213.531C208.027 213.531 209.703 210.48 209.703 206.398C209.703 202.273 208.027 199.223 204.762 199.223C201.453 199.223 199.734 202.273 199.734 206.398C199.734 210.48 201.453 213.531 204.762 213.531ZM226.547 204.508V218H220.188V194.668H226.246V198.75H226.504C227.578 196.043 230.07 194.367 233.508 194.367C238.363 194.367 241.586 197.676 241.543 203.133V218H235.227V204.25C235.227 201.371 233.637 199.652 231.016 199.652C228.352 199.652 226.547 201.414 226.547 204.508Z" fill="#594C4C"/>
<path fill-rule="evenodd" clip-rule="evenodd" d="M260.415 357.023C262.517 356.794 264.407 358.31 264.636 360.407C264.883 362.665 265.512 366.371 266.573 369.967C267.687 373.738 269.073 376.661 270.461 378.024C271.948 379.483 273.488 380.656 274.897 381.566C275.15 380.54 275.505 379.435 275.984 378.26C276.758 376.361 277.558 374.665 278.283 373.254C279.499 370.887 281.881 370.055 283.852 370.209C285.751 370.359 287.695 371.413 288.786 373.321C290.112 375.643 292.264 378.075 295.36 379.29C295.791 379.459 296.212 379.613 296.623 379.752C295.892 378.529 295.308 377.183 295.014 375.741C294.529 373.363 294.408 371.38 294.488 369.804C294.562 368.347 294.824 366.945 295.353 365.907C296.311 364.026 298.617 363.276 300.502 364.232C302.334 365.161 303.096 367.36 302.257 369.21C302.262 369.212 302.172 369.505 302.137 370.192C302.092 371.062 302.149 372.401 302.519 374.218C302.797 375.583 304.093 377.37 306.005 379.075C307.558 380.459 308.37 382.609 307.837 384.726C307.565 385.803 306.934 386.855 305.904 387.61C304.864 388.373 303.648 388.665 302.487 388.615C299.796 388.501 296.397 387.908 292.556 386.4C288.59 384.844 285.722 382.19 283.749 379.564C283.525 380.068 283.3 380.594 283.078 381.138C282.567 382.393 282.29 383.445 282.15 384.275C281.823 386.205 280.629 387.815 279.253 388.794C277.889 389.764 275.459 390.66 273 389.325C270.669 388.059 267.819 386.149 265.091 383.471C262.204 380.639 260.384 376.046 259.227 372.126C258.018 368.031 257.311 363.871 257.023 361.235C256.794 359.137 258.313 357.251 260.415 357.023Z" fill="white"/>
<path d="M260.87 432.961C261.022 435.007 257.683 441.018 253.035 441.36C248.387 441.702 244.191 436.245 244.038 434.199C243.886 432.153 246.432 430.298 251.08 429.956C255.727 429.614 260.717 430.915 260.87 432.961Z" fill="white"/>
<path d="M238 422.742C238 426.75 235.485 430 233 430C230.515 430 228 426.75 228 422.742C228 418.733 229.5 415 233.5 415C236.5 415 238 418.733 238 422.742Z" fill="white"/>
<path d="M284 422.742C284 426.75 281.234 430 278.5 430C275.766 430 273 426.75 273 422.742C273 418.733 274.65 415 279.05 415C282.35 415 284 418.733 284 422.742Z" fill="white"/>
<path fill-rule="evenodd" clip-rule="evenodd" d="M248.923 322.25C242.309 313.898 227.925 303.644 202.847 306.483C194.76 307.398 187.018 312.054 180.239 318.755C173.423 325.493 167.308 334.559 162.463 344.898C152.79 365.537 147.906 391.851 153.124 416.062C156.858 433.385 161.705 443.327 165.873 449.037C167.486 451.247 168.999 452.824 170.304 453.945C169.366 455.405 168.469 456.901 167.624 458.428C166.615 460.25 167.289 462.538 169.131 463.536C170.972 464.535 173.282 463.867 174.291 462.045C175.611 459.66 177.078 457.349 178.638 455.137C178.672 455.091 178.705 455.045 178.737 454.998C183.041 448.922 188.045 443.593 192.646 439.507L194.236 438.095L193.845 436.02L193.845 436.018L193.842 436.005L193.829 435.93C193.816 435.858 193.796 435.743 193.77 435.586C193.719 435.271 193.642 434.785 193.549 434.127C193.364 432.812 193.112 430.811 192.859 428.125C192.353 422.753 191.842 414.637 191.842 403.778C191.842 384.33 194.719 371.411 196.966 362.339C197.466 360.32 196.218 358.282 194.179 357.788C192.14 357.293 190.082 358.528 189.582 360.546C187.255 369.941 184.24 383.504 184.24 403.778C184.24 414.871 184.762 423.22 185.289 428.823C185.553 431.625 185.818 433.74 186.02 435.169C186.026 435.212 186.032 435.254 186.038 435.295C182.286 438.775 178.34 442.983 174.694 447.722C173.949 447.01 173.044 446.011 172.035 444.628C168.667 440.016 164.148 431.142 160.559 414.492C155.751 392.185 160.233 367.54 169.359 348.065C173.914 338.347 179.556 330.066 185.611 324.081C191.703 318.059 197.945 314.613 203.711 313.96C228.417 311.164 240.354 322.574 244.409 328.951L246.245 331.839L249.327 330.312C253.797 328.099 267.324 323.272 283.605 322.869C299.945 322.464 327.305 327.819 339.09 330.607L341.847 331.259L343.258 328.841L343.26 328.839L343.262 328.835L343.263 328.832L343.265 328.829C343.276 328.812 343.297 328.777 343.328 328.728C343.39 328.629 343.492 328.47 343.635 328.259C343.922 327.837 344.371 327.209 344.987 326.447C346.22 324.92 348.101 322.877 350.651 320.87C355.722 316.88 363.423 313.032 374.125 313.6C387.437 314.307 401.014 322.837 411.535 336.134C422.011 349.373 429.053 366.867 429.555 384.546C429.648 387.816 429.765 391.107 429.881 394.398C430.358 407.854 430.834 421.296 429.699 433.224C429.502 435.293 431.037 437.129 433.127 437.324C435.217 437.518 437.071 435.999 437.268 433.93C438.454 421.467 437.953 407.389 437.473 393.897C437.358 390.665 437.244 387.468 437.155 384.334C436.602 364.903 428.906 345.883 417.52 331.493C406.18 317.16 390.772 306.946 374.532 306.085C361.594 305.398 352.117 310.102 345.921 314.978C342.837 317.404 340.562 319.873 339.048 321.748C338.776 322.084 338.529 322.402 338.305 322.698C325.378 319.785 299.692 314.942 283.415 315.345C268.528 315.713 255.724 319.49 248.923 322.25ZM361.588 364.997C363.688 364.997 365.39 366.681 365.39 368.76C365.39 371.047 365.081 373.259 364.674 375.578C364.49 376.625 364.302 377.613 364.107 378.645C363.833 380.085 363.544 381.608 363.227 383.49C362.204 389.569 361.168 397.986 361.168 411.096C361.168 424.165 365.486 435.83 372.646 445.526C373.885 447.203 373.515 449.558 371.82 450.784C370.125 452.011 367.747 451.645 366.508 449.967C358.47 439.081 353.565 425.881 353.565 411.096C353.565 397.549 354.64 388.718 355.728 382.253C356.038 380.411 356.378 378.613 356.675 377.036C356.869 376.01 357.045 375.078 357.184 374.289C357.568 372.101 357.787 370.393 357.787 368.76C357.787 366.681 359.489 364.997 361.588 364.997Z" fill="white"/>
<path d="M239.844 335.35C230.848 324.753 247.876 325.082 257.514 326.571L301.156 336.818C293.048 338.725 287.203 345.559 275.381 346.111C262.868 346.696 244.469 340.8 239.844 335.35Z" fill="#FFE99C"/>
<path d="M299.836 283.461C299.768 286.327 296.584 289.282 293.328 289.204C290.072 289.126 287.505 286.033 287.574 283.168C287.642 280.302 290.321 278.75 293.577 278.828C296.833 278.906 299.905 280.596 299.836 283.461Z" fill="#FFE99C"/>
<path d="M336.738 319.03C339.599 340.57 320.63 339.408 294.973 338.794C269.316 338.18 249.271 336.804 246.004 314.498C243.369 296.503 265.449 282.874 291.106 283.488C316.763 284.102 333.94 297.963 336.738 319.03Z" fill="#FFE99C"/>
<path d="M276.107 286.197C270.533 289.052 259.459 297.596 259.754 308.929C260.049 320.262 264.034 330.582 265.989 334.325" stroke="white" stroke-opacity="0.4" stroke-width="2"/>
<path d="M290.538 284.655C286.651 289.359 280.366 305.497 280.181 313.193C279.894 325.22 281.043 336.337 281.043 336.337" stroke="white" stroke-opacity="0.4" stroke-width="2"/>
<path d="M300.896 285.61C306.597 290.623 313.488 301.721 316.57 310.997C319.204 318.927 315.943 337.172 315.943 337.172" stroke="white" stroke-opacity="0.4" stroke-width="2"/>
<path d="M262.083 290.58C266.485 293.989 279.475 297.367 290.206 298.568C300.937 299.769 312.057 295.866 317.029 291.895" stroke="white" stroke-opacity="0.4" stroke-width="2"/>
<path d="M246.769 309.326C253.903 313.586 290.987 321.144 305.711 321.118C320.435 321.093 326.576 316.899 333.118 309.741" stroke="white" stroke-opacity="0.4" stroke-width="2"/>
<path d="M255.704 330.303C254.046 330.578 250.203 331.399 248.101 332.481C245.999 333.563 242.595 335.81 241.155 336.798" stroke="white" stroke-opacity="0.4" stroke-width="2"/>
<path d="M262.929 334.016C261.424 334.452 258.121 335.741 256.949 337.412C255.776 339.083 254.641 341.84 254.219 343.01" stroke="white" stroke-opacity="0.4" stroke-width="2"/>
<path d="M273.256 336.387C272.606 337.236 271.341 339.503 271.475 341.771C271.61 344.039 272.092 345.561 272.317 346.038" stroke="white" stroke-opacity="0.4" stroke-width="2"/>
<path d="M243.763 326.478C243.768 329.546 245.892 336.109 254.345 337.821C262.798 339.534 280.442 341.749 288.207 342.643" stroke="white" stroke-opacity="0.4" stroke-width="2"/>
<path d="M239.843 335.351L237.556 337.292L237.556 337.292L239.843 335.351ZM275.381 346.111L275.521 349.108L275.381 346.111ZM298.821 339.586C300.344 338.934 301.05 337.171 300.398 335.648C299.746 334.124 297.983 333.418 296.46 334.07L298.821 339.586ZM237.556 337.292C239.098 339.108 241.536 340.716 244.226 342.086C246.982 343.49 250.273 344.78 253.769 345.86C260.723 348.008 268.812 349.421 275.521 349.108L275.241 343.115C269.438 343.386 262.07 342.144 255.54 340.127C252.294 339.125 249.335 337.955 246.95 336.74C244.497 335.491 242.901 334.317 242.13 333.409L237.556 337.292ZM252.512 322.416C250.116 322.273 247.574 322.29 245.206 322.551C242.884 322.808 240.513 323.321 238.598 324.303C236.665 325.294 234.721 327.045 234.471 329.85C234.241 332.433 235.567 334.949 237.556 337.292L242.13 333.409C240.492 331.479 240.433 330.549 240.447 330.382C240.451 330.346 240.453 330.31 240.529 330.218C240.629 330.096 240.862 329.885 241.336 329.642C242.316 329.14 243.861 328.736 245.864 328.515C247.822 328.299 250.015 328.278 252.154 328.406L252.512 322.416ZM275.521 349.108C281.069 348.849 285.513 346.985 289.266 344.946C291.109 343.945 292.868 342.854 294.419 341.931C296.019 340.978 297.439 340.177 298.821 339.586L296.46 334.07C294.687 334.829 292.977 335.806 291.349 336.775C289.673 337.774 288.106 338.748 286.403 339.674C283.064 341.487 279.533 342.914 275.241 343.115L275.521 349.108Z" fill="white"/>
<path d="M299.511 284.397C299.579 281.532 296.834 278.906 293.578 278.828C290.322 278.75 287.564 280.773 287.495 283.638" stroke="white" stroke-width="6"/>
<path d="M333.764 319.425C334.427 324.42 333.758 327.613 332.466 329.728C331.195 331.811 329.031 333.322 325.671 334.351C322.269 335.393 317.907 335.856 312.646 335.995C308.054 336.116 302.962 335.99 297.432 335.853C296.645 335.834 295.849 335.814 295.045 335.795C282.096 335.485 271.205 334.969 263.138 331.969C259.186 330.499 256.055 328.477 253.727 325.693C251.405 322.917 249.724 319.195 248.973 314.064C247.878 306.588 251.815 299.69 259.606 294.513C267.405 289.331 278.708 286.192 291.034 286.487C303.347 286.782 313.393 290.248 320.639 295.947C327.857 301.625 332.465 309.643 333.764 319.425Z" stroke="white" stroke-width="6"/>
<path d="M301.57 307.085C305.428 313.906 305.573 329.642 305.164 336.658C308.78 336.855 317.312 337.099 321.209 336.579C327 335.807 331.689 334.284 334.776 333.048C337.377 332.006 338.928 329.434 338.611 326.65C337.988 321.157 336.202 313.264 332.836 304.362C327.278 289.66 306.824 282.542 300.21 286.537C295.429 289.425 296.747 298.559 301.57 307.085Z" fill="#FFE99C" stroke="white" stroke-width="6"/>
<path d="M258.496 304.044C253.675 310.391 252.347 323.342 253.831 327.611C252.296 324.219 247.356 322.003 247.291 312.975C247.131 290.71 283.356 283.727 285.815 286.185C290.53 290.899 265.571 294.731 258.496 304.044Z" fill="#FFE99C" stroke="white" stroke-width="6"/>
<defs>
<linearGradient id="paint0_linear_106_1389" x1="63.3993" y1="-26.5" x2="454.766" y2="292.983" gradientUnits="userSpaceOnUse">
<stop stop-color="#FFE0B0"/>
<stop offset="1" stop-color="#FFE587"/>
</linearGradient>
</defs>
</svg>
