<svg width="450" height="464" viewBox="0 0 450 464" fill="none" xmlns="http://www.w3.org/2000/svg">
<rect width="450" height="464" rx="40" fill="url(#paint0_linear_106_1406)"/>
<path d="M69.0664 72.8906V104H62.6211V72.8906H69.0664ZM90.6797 72.8906V104H84.3203V72.8906H90.6797ZM106.105 104.473C99.0586 104.473 94.6758 99.6172 94.6758 92.3984C94.6758 85.1797 99.0586 80.3672 106.105 80.3672C113.152 80.3672 117.578 85.1797 117.578 92.3984C117.578 99.6172 113.152 104.473 106.105 104.473ZM106.148 99.5312C109.414 99.5312 111.09 96.4805 111.09 92.3984C111.09 88.2734 109.414 85.2227 106.148 85.2227C102.84 85.2227 101.121 88.2734 101.121 92.3984C101.121 96.4805 102.84 99.5312 106.148 99.5312ZM134.895 87.5859C134.637 85.9531 133.176 84.8789 131.07 84.8789C129.008 84.8789 127.418 85.8672 127.461 87.2852C127.418 88.3164 128.277 89.1328 130.469 89.6055L134.637 90.4648C139.148 91.4102 141.34 93.4297 141.383 96.7812C141.34 101.379 137.215 104.473 131.027 104.473C124.711 104.473 121.016 101.637 120.5 97.082H126.902C127.203 98.9297 128.707 99.875 131.027 99.875C133.348 99.875 134.895 98.9297 134.895 97.4258C134.895 96.2227 133.906 95.4922 131.715 95.0195L127.848 94.2461C123.422 93.3867 121.102 91.0664 121.145 87.6289C121.102 83.1602 124.969 80.3672 130.984 80.3672C136.871 80.3672 140.523 83.1602 140.867 87.5859H134.895ZM157.582 80.668V85.4375H153.199V96.8242C153.199 98.6719 154.102 99.1445 155.391 99.1875C156.035 99.1875 157.152 99.1445 157.926 99.0586V104.086C157.238 104.215 156.121 104.301 154.531 104.301C149.934 104.301 146.797 102.238 146.84 97.7266V85.4375H143.617V80.668H146.84V75.082H153.199V80.668H157.582ZM171.719 104V80.668H177.777V84.75H178.035C179.023 82.043 181.387 80.3672 184.523 80.3672C187.746 80.3672 190.109 82.043 190.883 84.75H191.098C192.086 82.0859 194.707 80.3672 198.145 80.3672C202.484 80.3672 205.492 83.2461 205.492 88.3164V104H199.133V89.5625C199.133 86.8984 197.586 85.6094 195.48 85.6094C193.074 85.6094 191.699 87.2852 191.699 89.7344V104H185.512V89.3906C185.512 87.0703 184.051 85.6094 181.902 85.6094C179.754 85.6094 178.078 87.3281 178.078 89.9922V104H171.719ZM213.27 112.766C212.023 112.766 210.863 112.723 210.047 112.637V107.695C210.863 107.738 211.809 107.781 212.625 107.781C213.871 107.781 214.902 107.652 215.676 105.633L216.062 104.645L207.684 80.668H214.344L219.242 97.8555H219.5L224.441 80.668H231.188L222.078 106.578C220.746 110.316 218.211 112.766 213.27 112.766ZM255.508 104H244.551V72.8906H255.637C265.004 72.8906 270.719 78.7344 270.719 88.4023C270.719 98.1562 265.004 104 255.508 104ZM250.996 98.457H255.25C261.18 98.457 264.273 95.3633 264.273 88.4023C264.273 81.4844 261.18 78.4336 255.293 78.4336H250.996V98.457ZM285.758 104.473C278.711 104.473 274.328 99.6172 274.328 92.3984C274.328 85.1797 278.711 80.3672 285.758 80.3672C292.805 80.3672 297.23 85.1797 297.23 92.3984C297.23 99.6172 292.805 104.473 285.758 104.473ZM285.801 99.5312C289.066 99.5312 290.742 96.4805 290.742 92.3984C290.742 88.2734 289.066 85.2227 285.801 85.2227C282.492 85.2227 280.773 88.2734 280.773 92.3984C280.773 96.4805 282.492 99.5312 285.801 99.5312ZM311.711 113.238C305.266 113.238 301.312 110.359 300.926 105.934H307.199C307.543 107.781 309.305 108.641 311.84 108.641C314.805 108.641 316.781 107.395 316.781 104.129V99.875H316.48C315.621 101.766 313.559 103.656 309.82 103.656C304.535 103.656 300.324 99.9609 300.324 92.1836C300.324 84.2773 304.664 80.3672 309.82 80.3672C313.73 80.3672 315.621 82.6875 316.48 84.5781H316.738V80.668H323.055V104.258C323.055 110.188 318.328 113.238 311.711 113.238ZM311.797 98.8867C314.977 98.8867 316.781 96.3945 316.781 92.2695C316.781 88.1016 314.977 85.4375 311.797 85.4375C308.574 85.4375 306.855 88.2305 306.855 92.2695C306.855 96.3086 308.574 98.8867 311.797 98.8867Z" fill="#594C4C"/>
<path fill-rule="evenodd" clip-rule="evenodd" d="M266.362 342.023C268.434 341.792 270.298 343.308 270.526 345.409C270.791 347.844 271.465 351.836 272.603 355.712C273.792 359.761 275.286 362.957 276.824 364.474C278.569 366.196 280.38 367.549 282.006 368.569C282.277 367.363 282.681 366.048 283.253 364.636C284.139 362.451 285.058 360.517 285.874 358.943C287.087 356.604 289.422 355.78 291.365 355.947C293.24 356.108 295.149 357.183 296.202 359.112C297.616 361.699 300.001 364.515 303.518 365.902C304.263 366.196 304.982 366.447 305.671 366.66C304.718 365.201 303.945 363.565 303.587 361.797C303.073 359.261 302.945 357.153 303.029 355.482C303.108 353.932 303.385 352.466 303.927 351.396C304.88 349.516 307.155 348.775 309.009 349.741C310.82 350.685 311.559 352.909 310.704 354.765C310.705 354.762 310.706 354.761 310.707 354.761C310.713 354.764 310.608 355.095 310.568 355.875C310.52 356.831 310.582 358.288 310.981 360.255C311.306 361.861 312.837 363.902 314.97 365.773C316.543 367.154 317.36 369.319 316.848 371.449C316.273 373.84 314.171 375.476 311.619 375.403C308.733 375.319 305.014 374.707 300.78 373.036C296.39 371.304 293.272 368.281 291.18 365.345C290.865 366.04 290.548 366.776 290.235 367.548C289.639 369.017 289.337 370.234 289.196 371.173C288.904 373.123 287.74 374.756 286.392 375.753C285.055 376.741 282.677 377.655 280.246 376.361C277.723 375.017 274.571 372.932 271.56 369.961C268.533 366.975 266.604 362.103 265.368 357.897C264.082 353.517 263.329 349.066 263.023 346.247C262.795 344.146 264.29 342.255 266.362 342.023Z" fill="white"/>
<path d="M289 412.774C289 417.317 286.234 421 283.5 421C280.766 421 278 417.317 278 412.774C278 408.231 279.65 404 284.05 404C287.35 404 289 408.231 289 412.774Z" fill="white"/>
<path d="M267.159 423.728C267.323 425.929 263.73 432.396 258.73 432.764C253.73 433.132 249.216 427.261 249.052 425.06C248.887 422.859 251.626 420.863 256.627 420.496C261.627 420.128 266.994 421.527 267.159 423.728Z" fill="white"/>
<path d="M242 412.774C242 417.317 238.982 421 236 421C233.018 421 230 417.317 230 412.774C230 408.231 231.8 404 236.6 404C240.2 404 242 408.231 242 412.774Z" fill="white"/>
<path fill-rule="evenodd" clip-rule="evenodd" d="M226.419 280.598C218.982 274.015 211.09 270.102 205.001 270.549C204.779 270.565 204.318 270.666 203.607 271.521C202.854 272.424 202.052 273.918 201.292 276.117C199.777 280.5 198.747 286.731 198.107 293.959C196.834 308.343 197.182 325.672 197.654 337.67C197.736 339.743 196.11 341.49 194.023 341.571C191.936 341.652 190.177 340.037 190.096 337.964C189.621 325.915 189.254 308.187 190.572 293.301C191.227 285.894 192.319 278.936 194.137 273.677C195.044 271.055 196.21 268.614 197.778 266.732C199.386 264.801 201.595 263.265 204.443 263.055C213.7 262.375 223.606 268.044 231.451 274.988C239.423 282.044 246.25 291.279 249.158 299.353C251.063 304.641 253.543 314.844 255.129 321.849C262.666 318.945 275.813 315.274 290.972 314.898C308.45 314.465 336.057 319.673 349.985 322.813C354.765 314.552 361.931 303.302 369.491 293.685C373.656 288.387 378.028 283.471 382.262 279.815C386.326 276.305 390.935 273.355 395.513 273.193C400.883 273.002 405.055 275.448 408.072 279.003C410.996 282.448 412.921 286.999 414.197 291.542C416.748 300.625 417.057 310.976 416.457 316.258C416.023 320.075 414.891 325.09 413.8 329.919C413.452 331.463 413.107 332.988 412.791 334.449C412.118 337.564 411.558 340.437 411.265 342.839C410.953 345.399 411.027 346.853 411.206 347.444C411.859 349.603 412.391 351.047 412.743 351.919C412.918 352.355 413.049 352.647 413.127 352.814C413.165 352.897 413.191 352.949 413.202 352.972C413.204 352.976 413.207 352.982 413.207 352.982C414.171 354.807 413.473 357.066 411.639 358.039C409.797 359.017 407.505 358.326 406.521 356.496L409.857 354.725C406.521 356.496 406.521 356.496 406.521 356.496L406.519 356.492L406.514 356.482L406.505 356.466L406.484 356.426C406.469 356.396 406.45 356.359 406.428 356.316C406.384 356.228 406.328 356.113 406.26 355.967C406.125 355.676 405.943 355.264 405.721 354.714C405.277 353.613 404.672 351.957 403.961 349.607C403.287 347.38 403.438 344.536 403.755 341.936C404.092 339.177 404.713 336.027 405.395 332.871C405.758 331.196 406.134 329.528 406.502 327.897C407.564 323.189 408.557 318.789 408.94 315.415C409.44 311.019 409.181 301.644 406.91 293.561C405.776 289.521 404.226 286.129 402.289 283.847C400.445 281.675 398.37 280.61 395.782 280.702C393.995 280.765 391.11 282.131 387.225 285.486C383.51 288.693 379.478 293.19 375.453 298.309C367.418 308.531 359.764 320.785 355.186 328.939L353.791 331.423L351.006 330.763C338.312 327.757 308.807 321.973 291.161 322.41C273.574 322.846 258.959 328.064 254.107 330.47L249.734 332.638L248.718 327.889C247.381 321.639 244.208 307.917 242.036 301.884C239.666 295.305 233.729 287.068 226.419 280.598ZM194.777 342.623C196.806 343.118 198.046 345.153 197.548 347.168C195.125 356.964 192.021 370.92 192.021 391.923C192.021 403.642 192.572 412.402 193.118 418.205C193.391 421.106 193.662 423.268 193.863 424.69C193.963 425.402 194.046 425.928 194.102 426.27C194.13 426.441 194.151 426.566 194.165 426.644L194.18 426.727L194.183 426.741L194.183 426.743L194.574 428.82L192.987 430.23C190.897 432.089 188.719 434.194 186.548 436.506C185.123 438.024 182.73 438.106 181.202 436.691C179.675 435.276 179.592 432.898 181.016 431.381C182.822 429.458 184.635 427.665 186.412 426.02C186.399 425.927 186.385 425.832 186.371 425.733C186.155 424.197 185.87 421.92 185.586 418.903C185.019 412.87 184.457 403.876 184.457 391.923C184.457 370.093 187.699 355.493 190.202 345.375C190.7 343.36 192.749 342.128 194.777 342.623ZM411.919 357.997C413.86 357.231 416.059 358.173 416.83 360.102C417.682 362.231 418.752 364.61 419.92 367.206C424.364 377.083 430.23 390.118 430.904 404.654C432.359 436.045 416.892 457.044 413.455 461.711C413.242 462 413.075 462.226 412.962 462.389C411.768 464.092 409.411 464.512 407.697 463.327C405.982 462.141 405.559 459.8 406.752 458.097C406.873 457.925 407.044 457.692 407.259 457.399C410.617 452.83 424.678 433.694 423.347 405C422.747 392.048 417.701 380.788 413.311 370.99C412.045 368.165 410.834 365.462 409.8 362.876C409.029 360.947 409.977 358.763 411.919 357.997Z" fill="white"/>
<path d="M250.063 333.545C240.207 321.933 258.865 322.294 269.426 323.926L317.245 335.153C308.362 337.243 301.957 344.731 289.004 345.336C275.292 345.977 255.132 339.516 250.063 333.545Z" fill="#FFE99C"/>
<path d="M315.8 276.688C315.725 279.828 312.237 283.067 308.669 282.981C305.101 282.896 302.289 279.506 302.364 276.367C302.439 273.227 305.374 271.527 308.941 271.612C312.509 271.697 315.876 273.549 315.8 276.688Z" fill="#FFE99C"/>
<path d="M356.234 315.662C359.369 339.264 338.584 337.991 310.471 337.318C282.358 336.645 260.394 335.137 256.814 310.697C253.927 290.978 278.12 276.045 306.234 276.718C334.347 277.391 353.168 292.578 356.234 315.662Z" fill="#FFE99C"/>
<path d="M289.799 279.686C283.691 282.814 271.557 292.176 271.88 304.594C272.203 317.012 276.569 328.32 278.712 332.421" stroke="white" stroke-opacity="0.4" stroke-width="2"/>
<path d="M305.61 277.996C301.35 283.151 294.463 300.834 294.262 309.266C293.946 322.444 295.206 334.626 295.206 334.626" stroke="white" stroke-opacity="0.4" stroke-width="2"/>
<path d="M316.961 279.043C323.207 284.536 330.758 296.696 334.134 306.859C337.021 315.549 333.448 335.541 333.448 335.541" stroke="white" stroke-opacity="0.4" stroke-width="2"/>
<path d="M274.43 284.489C279.253 288.224 293.488 291.925 305.246 293.241C317.004 294.557 329.188 290.281 334.636 285.93" stroke="white" stroke-opacity="0.4" stroke-width="2"/>
<path d="M257.651 305.029C265.468 309.697 306.102 317.978 322.236 317.951C338.369 317.923 345.098 313.327 352.266 305.484" stroke="white" stroke-opacity="0.4" stroke-width="2"/>
<path d="M267.442 328.015C265.625 328.316 261.415 329.215 259.111 330.401C256.808 331.587 253.077 334.048 251.5 335.131" stroke="white" stroke-opacity="0.4" stroke-width="2"/>
<path d="M275.359 332.082C273.71 332.56 270.091 333.973 268.806 335.804C267.521 337.634 266.277 340.655 265.815 341.937" stroke="white" stroke-opacity="0.4" stroke-width="2"/>
<path d="M286.674 334.68C285.962 335.611 284.576 338.094 284.723 340.58C284.87 343.065 285.399 344.733 285.645 345.256" stroke="white" stroke-opacity="0.4" stroke-width="2"/>
<path d="M254.356 323.823C254.362 327.185 256.689 334.376 265.951 336.252C275.214 338.129 294.546 340.556 303.055 341.536" stroke="white" stroke-opacity="0.4" stroke-width="2"/>
<path d="M250.063 333.545L247.776 335.487L247.776 335.487L250.063 333.545ZM289.003 345.336L289.143 348.333L289.003 345.336ZM314.573 337.922C316.096 337.27 316.803 335.507 316.151 333.984C315.499 332.46 313.736 331.754 312.213 332.406L314.573 337.922ZM247.776 335.487C249.428 337.433 252.06 339.174 254.995 340.67C257.998 342.199 261.588 343.607 265.407 344.786C273.006 347.133 281.834 348.674 289.143 348.333L288.863 342.339C282.461 342.638 274.353 341.269 267.177 339.053C263.609 337.951 260.351 336.664 257.719 335.323C255.021 333.949 253.232 332.642 252.35 331.604L247.776 335.487ZM263.928 319.659C261.314 319.503 258.545 319.522 255.971 319.806C253.442 320.085 250.883 320.643 248.83 321.696C246.758 322.758 244.724 324.607 244.462 327.544C244.221 330.258 245.614 332.939 247.776 335.487L252.35 331.604C250.538 329.469 250.412 328.374 250.439 328.076C250.446 328 250.466 327.599 251.567 327.035C252.686 326.461 254.418 326.014 256.629 325.77C258.794 325.531 261.213 325.508 263.569 325.649L263.928 319.659ZM289.143 348.333C295.162 348.052 299.987 346.03 304.08 343.807C306.093 342.714 308.011 341.524 309.716 340.508C311.47 339.464 313.04 338.578 314.573 337.922L312.213 332.406C310.288 333.229 308.429 334.292 306.647 335.353C304.816 336.443 303.09 337.517 301.217 338.534C297.539 340.532 293.626 342.117 288.863 342.339L289.143 348.333Z" fill="white"/>
<path d="M315.442 277.714C315.517 274.574 312.509 271.697 308.941 271.612C305.374 271.527 302.351 273.742 302.276 276.882" stroke="white" stroke-width="6"/>
<path d="M353.26 316.057C353.992 321.568 353.26 325.141 351.799 327.534C350.358 329.895 347.915 331.584 344.192 332.725C340.427 333.878 335.616 334.386 329.843 334.538C324.804 334.672 319.217 334.533 313.158 334.383C312.296 334.362 311.424 334.34 310.543 334.319C296.366 333.98 284.381 333.417 275.488 330.109C271.124 328.485 267.646 326.245 265.056 323.148C262.472 320.058 260.612 315.927 259.783 310.262C258.562 301.925 262.964 294.27 271.559 288.559C280.162 282.843 292.608 279.393 306.162 279.717C319.703 280.041 330.774 283.853 338.772 290.144C346.742 296.412 351.827 305.267 353.26 316.057Z" stroke="white" stroke-width="6"/>
<path d="M317.699 302.574C321.927 310.047 322.086 327.29 321.637 334.978C325.6 335.194 334.949 335.461 339.219 334.891C345.818 334.011 351.111 332.242 354.482 330.861C357.075 329.799 358.629 327.228 358.334 324.441C357.697 318.408 355.736 309.579 351.959 299.59C345.868 283.481 323.457 275.681 316.21 280.059C310.971 283.223 312.415 293.232 317.699 302.574Z" fill="#FFE99C" stroke="white" stroke-width="6"/>
<path d="M270.502 299.242C265.219 306.196 263.764 320.387 265.39 325.065C263.708 321.348 258.295 318.92 258.224 309.027C258.049 284.631 297.742 276.98 300.436 279.673C305.602 284.838 278.254 289.038 270.502 299.242Z" fill="#FFE99C" stroke="white" stroke-width="6"/>
<defs>
<linearGradient id="paint0_linear_106_1406" x1="63.3993" y1="-26.5" x2="454.766" y2="292.983" gradientUnits="userSpaceOnUse">
<stop stop-color="#FFCB7A"/>
<stop offset="1" stop-color="#FFDB5A"/>
</linearGradient>
</defs>
</svg>
