<svg width="450" height="464" viewBox="0 0 450 464" fill="none" xmlns="http://www.w3.org/2000/svg">
<rect width="450" height="464" rx="40" fill="url(#paint0_linear_276_1886)"/>
<path d="M69.0664 72.8906V104H62.6211V72.8906H69.0664ZM90.6797 72.8906V104H84.3203V72.8906H90.6797ZM106.105 104.473C99.0586 104.451 94.6543 99.6172 94.6758 92.3984C94.6543 85.2012 99.0586 80.3672 106.105 80.3672C113.174 80.3672 117.557 85.2012 117.578 92.3984C117.557 99.6172 113.174 104.451 106.105 104.473ZM101.121 92.3984C101.121 96.4805 102.818 99.5098 106.148 99.5312C109.393 99.5098 111.111 96.4805 111.09 92.3984C111.111 88.2949 109.393 85.2227 106.148 85.2227C102.818 85.2227 101.121 88.2949 101.121 92.3984ZM134.895 87.5859C134.615 85.9531 133.197 84.9004 131.07 84.8789C129.008 84.9004 127.439 85.8672 127.461 87.2852C127.439 88.3379 128.256 89.1543 130.469 89.6055L134.637 90.4648C139.17 91.4102 141.361 93.4297 141.383 96.7812C141.361 101.379 137.236 104.451 131.027 104.473C124.732 104.451 121.037 101.637 120.5 97.082H126.902C127.203 98.9082 128.686 99.8535 131.027 99.875C133.348 99.8535 134.895 98.9297 134.895 97.4258C134.895 96.2227 133.906 95.4707 131.715 95.0195L127.848 94.2461C123.4 93.3652 121.123 91.0879 121.145 87.6289C121.123 83.1602 124.969 80.3672 130.984 80.3672C136.871 80.3672 140.523 83.1602 140.867 87.5859H134.895ZM157.582 80.668V85.4375H153.199V96.8242C153.178 98.6934 154.102 99.1445 155.391 99.1875C156.035 99.1875 157.152 99.123 157.926 99.0586V104.086C157.238 104.193 156.1 104.322 154.531 104.301C149.934 104.322 146.797 102.26 146.84 97.7266V85.4375H143.617V80.668H146.84V75.082H153.199V80.668H157.582ZM171.719 104V80.668H177.777V84.75H178.035C179.023 82.0215 181.387 80.3672 184.523 80.3672C187.725 80.3672 190.109 82.0645 190.883 84.75H191.098C192.064 82.1074 194.729 80.3672 198.145 80.3672C202.463 80.3672 205.492 83.2246 205.492 88.3164V104H199.133V89.5625C199.154 86.8984 197.564 85.6094 195.48 85.6094C193.096 85.6094 191.678 87.2637 191.699 89.7344V104H185.512V89.3906C185.533 87.0918 184.072 85.6094 181.902 85.6094C179.732 85.6094 178.057 87.3496 178.078 89.9922V104H171.719ZM213.27 112.766C212.023 112.744 210.863 112.723 210.047 112.637V107.695C210.863 107.76 211.83 107.781 212.625 107.781C213.893 107.781 214.902 107.652 215.676 105.633L216.062 104.645L207.684 80.668H214.344L219.242 97.8555H219.5L224.441 80.668H231.188L222.078 106.578C220.746 110.338 218.189 112.744 213.27 112.766ZM255.508 104H244.551V72.8906H255.637C265.004 72.8906 270.74 78.7129 270.719 88.4023C270.74 98.1348 265.004 104 255.508 104ZM250.996 98.457H255.25C261.18 98.457 264.273 95.3848 264.273 88.4023C264.273 81.4844 261.18 78.4336 255.293 78.4336H250.996V98.457ZM285.758 104.473C278.711 104.451 274.307 99.6172 274.328 92.3984C274.307 85.2012 278.711 80.3672 285.758 80.3672C292.826 80.3672 297.209 85.2012 297.23 92.3984C297.209 99.6172 292.826 104.451 285.758 104.473ZM280.773 92.3984C280.773 96.4805 282.471 99.5098 285.801 99.5312C289.045 99.5098 290.764 96.4805 290.742 92.3984C290.764 88.2949 289.045 85.2227 285.801 85.2227C282.471 85.2227 280.773 88.2949 280.773 92.3984ZM311.711 113.238C305.266 113.238 301.291 110.338 300.926 105.934H307.199C307.543 107.803 309.305 108.641 311.84 108.641C314.783 108.641 316.76 107.373 316.781 104.129V99.875H316.48C315.643 101.766 313.58 103.678 309.82 103.656C304.557 103.678 300.324 99.9609 300.324 92.1836C300.324 84.2988 304.664 80.3672 309.82 80.3672C313.73 80.3672 315.621 82.6875 316.48 84.5781H316.738V80.668H323.055V104.258C323.033 110.209 318.35 113.238 311.711 113.238ZM306.855 92.2695C306.834 96.3086 308.574 98.8652 311.797 98.8867C314.977 98.8652 316.781 96.416 316.781 92.2695C316.781 88.123 314.998 85.4375 311.797 85.4375C308.553 85.4375 306.834 88.252 306.855 92.2695Z" fill="#594C4C"/>
<path d="M77.3125 138.375H80.125V153.344C80.125 158 76.6562 161.406 71.3125 161.406C65.9688 161.406 62.5 158 62.5 153.344V138.375H65.3125V153.125C65.3125 156.406 67.5938 158.781 71.3125 158.781C75.0625 158.781 77.3125 156.406 77.3125 153.125V138.375ZM94.2188 148.438C93.8438 147.031 92.7812 146.094 90.7812 146.094C88.6875 146.094 87.1875 147.219 87.1875 148.656C87.1875 149.781 88.0938 150.562 90.0938 151.031L92.625 151.656C95.6562 152.375 97.1562 153.875 97.1562 156.25C97.1562 159.188 94.75 161.344 90.5 161.344C86.6875 161.344 84.4062 159.656 83.9688 156.562H86.7812C87.0938 158.219 88.3125 159 90.4375 159C92.8438 159 94.375 158 94.375 156.406C94.375 155.219 93.5312 154.406 91.5938 153.969L89.0312 153.375C86.0625 152.688 84.5 151.062 84.5 148.812C84.5 145.906 87.0312 143.812 90.7812 143.812C94.2812 143.812 96.5 145.688 96.8438 148.438H94.2188ZM107.781 161.344C102.875 161.344 99.8438 157.875 99.8438 152.656C99.8438 147.438 102.906 143.812 107.531 143.812C111.094 143.812 114.844 146 114.844 152.281V153.406H102.531C102.656 157 104.75 158.969 107.781 158.969C109.812 158.969 111.094 158.094 111.719 157.031H114.594C113.781 159.594 111.281 161.344 107.781 161.344ZM102.562 151.125H112.125C112.125 148.281 110.312 146.188 107.531 146.188C104.594 146.188 102.719 148.5 102.562 151.125ZM126.375 167.375V144.031H128.969V146.719H129.281C129.844 145.812 130.906 143.812 134.188 143.812C138.438 143.812 141.406 147.188 141.406 152.562C141.406 157.938 138.438 161.344 134.219 161.344C130.969 161.344 129.844 159.344 129.281 158.406H129.062V167.375H126.375ZM129 152.5C129 156.312 130.719 158.938 133.844 158.938C137.062 158.938 138.719 156.125 138.719 152.5C138.719 148.969 137.094 146.219 133.844 146.219C130.656 146.219 129 148.75 129 152.5ZM147.594 150.812V161H144.906V138.375H147.594V146.688H147.812C148.594 144.938 150.125 143.812 152.812 143.812C156.281 143.812 158.594 145.875 158.594 150.219V161H155.906V150.406C155.906 147.75 154.438 146.219 152 146.219C149.469 146.219 147.594 147.875 147.594 150.812ZM169.844 161.344C165.219 161.344 162.094 157.875 162.094 152.594C162.094 147.312 165.219 143.812 169.844 143.812C174.438 143.812 177.531 147.312 177.531 152.594C177.531 157.875 174.438 161.344 169.844 161.344ZM169.844 158.969C173.25 158.969 174.844 155.969 174.844 152.594C174.844 149.219 173.25 146.188 169.844 146.188C166.375 146.188 164.781 149.219 164.781 152.594C164.781 155.969 166.375 158.969 169.844 158.969ZM188.469 144.031V146.281H184.906V156.125C184.906 158.312 185.969 158.656 187.125 158.656C187.625 158.656 188.312 158.625 188.719 158.594V161.094C188.312 161.156 187.625 161.219 186.844 161.219C184.594 161.219 182.188 159.812 182.188 156.812V146.281H179.625V144.031H182.188V139.969H184.906V144.031H188.469ZM198.688 161.344C194.062 161.344 190.938 157.875 190.938 152.594C190.938 147.312 194.062 143.812 198.688 143.812C203.281 143.812 206.375 147.312 206.375 152.594C206.375 157.875 203.281 161.344 198.688 161.344ZM198.688 158.969C202.094 158.969 203.688 155.969 203.688 152.594C203.688 149.219 202.094 146.188 198.688 146.188C195.219 146.188 193.625 149.219 193.625 152.594C193.625 155.969 195.219 158.969 198.688 158.969ZM219.344 148.438C218.969 147.031 217.906 146.094 215.906 146.094C213.812 146.094 212.312 147.219 212.312 148.656C212.312 149.781 213.219 150.562 215.219 151.031L217.75 151.656C220.781 152.375 222.281 153.875 222.281 156.25C222.281 159.188 219.875 161.344 215.625 161.344C211.812 161.344 209.531 159.656 209.094 156.562H211.906C212.219 158.219 213.438 159 215.562 159C217.969 159 219.5 158 219.5 156.406C219.5 155.219 218.656 154.406 216.719 153.969L214.156 153.375C211.188 152.688 209.625 151.062 209.625 148.812C209.625 145.906 212.156 143.812 215.906 143.812C219.406 143.812 221.625 145.688 221.969 148.438H219.344ZM241.219 144.031V146.281H237.656V156.125C237.656 158.312 238.719 158.656 239.875 158.656C240.375 158.656 241.062 158.625 241.469 158.594V161.094C241.062 161.156 240.375 161.219 239.594 161.219C237.344 161.219 234.938 159.812 234.938 156.812V146.281H232.375V144.031H234.938V139.969H237.656V144.031H241.219ZM251.438 161.344C246.812 161.344 243.688 157.875 243.688 152.594C243.688 147.312 246.812 143.812 251.438 143.812C256.031 143.812 259.125 147.312 259.125 152.594C259.125 157.875 256.031 161.344 251.438 161.344ZM251.438 158.969C254.844 158.969 256.438 155.969 256.438 152.594C256.438 149.219 254.844 146.188 251.438 146.188C247.969 146.188 246.375 149.219 246.375 152.594C246.375 155.969 247.969 158.969 251.438 158.969ZM278.281 144.031V146.281H274.531V161H271.812V146.281H269.094V144.031H271.812V141.719C271.812 138.969 273.656 137.312 276.656 137.312C277.312 137.312 278.094 137.406 278.656 137.5V139.906C278.094 139.812 277.594 139.781 277.25 139.781C275.375 139.781 274.531 140.562 274.531 142.312V144.031H278.281ZM281.469 161V144.031H284.156V161H281.469ZM282.812 141.219C281.781 141.219 280.938 140.438 280.938 139.438C280.938 138.438 281.781 137.656 282.812 137.656C283.844 137.656 284.719 138.438 284.719 139.438C284.719 140.438 283.844 141.219 282.812 141.219ZM291.125 150.812V161H288.438V144.031H291.031V146.688H291.25C292.062 144.969 293.625 143.812 296.219 143.812C299.656 143.812 301.938 145.906 301.938 150.219V161H299.25V150.406C299.25 147.781 297.812 146.219 295.406 146.219C292.938 146.219 291.125 147.875 291.125 150.812ZM312.656 161.344C308.438 161.344 305.438 157.938 305.438 152.562C305.438 147.188 308.438 143.812 312.688 143.812C315.969 143.812 317.031 145.812 317.594 146.719H317.781V138.375H320.5V161H317.875V158.406H317.594C317 159.344 315.906 161.344 312.656 161.344ZM313.031 158.938C316.125 158.938 317.875 156.312 317.875 152.5C317.875 148.75 316.188 146.219 313.031 146.219C309.781 146.219 308.156 148.969 308.156 152.5C308.156 156.125 309.812 158.938 313.031 158.938ZM71.5938 190.438C71.2188 189.031 70.1562 188.094 68.1562 188.094C66.0625 188.094 64.5625 189.219 64.5625 190.656C64.5625 191.781 65.4688 192.562 67.4688 193.031L70 193.656C73.0312 194.375 74.5312 195.875 74.5312 198.25C74.5312 201.188 72.125 203.344 67.875 203.344C64.0625 203.344 61.7812 201.656 61.3438 198.562H64.1562C64.4688 200.219 65.6875 201 67.8125 201C70.2188 201 71.75 200 71.75 198.406C71.75 197.219 70.9062 196.406 68.9688 195.969L66.4062 195.375C63.4375 194.688 61.875 193.062 61.875 190.812C61.875 187.906 64.4062 185.812 68.1562 185.812C71.6562 185.812 73.875 187.688 74.2188 190.438H71.5938ZM78.0312 203V186.031H80.7188V203H78.0312ZM79.375 183.219C78.3438 183.219 77.5 182.438 77.5 181.438C77.5 180.438 78.3438 179.656 79.375 179.656C80.4062 179.656 81.2812 180.438 81.2812 181.438C81.2812 182.438 80.4062 183.219 79.375 183.219ZM85 203V186.031H87.5938V188.688H87.8125C88.5312 186.875 90.1562 185.812 92.375 185.812C94.5938 185.812 96.0938 186.875 96.9062 188.688H97.0938C97.9688 186.938 99.75 185.812 102.188 185.812C105.219 185.812 107.375 187.656 107.375 191.656V203H104.688V191.688C104.688 189.188 103.094 188.219 101.25 188.219C98.875 188.219 97.5312 189.812 97.5312 191.969V203H94.8125V191.406C94.8125 189.5 93.4375 188.219 91.5 188.219C89.4688 188.219 87.6875 189.938 87.6875 192.406V203H85ZM111.688 203V186.031H114.375V203H111.688ZM113.031 183.219C112 183.219 111.156 182.438 111.156 181.438C111.156 180.438 112 179.656 113.031 179.656C114.062 179.656 114.938 180.438 114.938 181.438C114.938 182.438 114.062 183.219 113.031 183.219ZM121.344 180.375V203H118.656V180.375H121.344ZM124.812 198.188C124.812 194.281 128.25 193.406 131.188 193.188C132.266 193.109 135.016 192.969 135.781 192.938V191.562C135.781 189.406 134.5 188.156 131.938 188.156C129.781 188.156 128.5 189.156 128.125 190.438H125.312C125.656 187.719 128.312 185.812 132.062 185.812C134.281 185.812 138.438 186.469 138.438 191.812V203H135.781V200.688H135.656C135.094 201.844 133.531 203.406 130.594 203.406C127.375 203.406 124.812 201.5 124.812 198.188ZM127.5 198.312C127.5 200.094 129 201 131.062 201C134.094 201 135.781 198.969 135.781 196.844V195.125L131.5 195.438C129.062 195.594 127.5 196.469 127.5 198.312ZM142.75 203V186.031H145.344V188.625H145.531C146.156 186.906 147.906 185.75 149.906 185.75C150.312 185.75 151 185.781 151.312 185.812V188.531C151.125 188.469 150.375 188.344 149.688 188.344C147.25 188.344 145.438 190.031 145.438 192.312V203H142.75ZM161.156 198.188C161.156 194.281 164.594 193.406 167.531 193.188C168.609 193.109 171.359 192.969 172.125 192.938V191.562C172.125 189.406 170.844 188.156 168.281 188.156C166.125 188.156 164.844 189.156 164.469 190.438H161.656C162 187.719 164.656 185.812 168.406 185.812C170.625 185.812 174.781 186.469 174.781 191.812V203H172.125V200.688H172C171.438 201.844 169.875 203.406 166.938 203.406C163.719 203.406 161.156 201.5 161.156 198.188ZM163.844 198.312C163.844 200.094 165.344 201 167.406 201C170.438 201 172.125 198.969 172.125 196.844V195.125L167.844 195.438C165.406 195.594 163.844 196.469 163.844 198.312ZM179.438 203V180.375H182.125V188.719H182.344C182.938 187.812 183.938 185.812 187.25 185.812C191.5 185.812 194.5 189.188 194.5 194.562C194.5 199.938 191.5 203.344 187.281 203.344C184.031 203.344 182.938 201.344 182.344 200.406H182.031V203H179.438ZM182.062 194.5C182.062 198.312 183.781 200.938 186.875 200.938C190.094 200.938 191.781 198.125 191.781 194.5C191.781 190.969 190.156 188.219 186.875 188.219C183.75 188.219 182.062 190.75 182.062 194.5ZM197.188 198.188C197.188 194.281 200.625 193.406 203.562 193.188C204.641 193.109 207.391 192.969 208.156 192.938V191.562C208.156 189.406 206.875 188.156 204.312 188.156C202.156 188.156 200.875 189.156 200.5 190.438H197.688C198.031 187.719 200.688 185.812 204.438 185.812C206.656 185.812 210.812 186.469 210.812 191.812V203H208.156V200.688H208.031C207.469 201.844 205.906 203.406 202.969 203.406C199.75 203.406 197.188 201.5 197.188 198.188ZM199.875 198.312C199.875 200.094 201.375 201 203.438 201C206.469 201 208.156 198.969 208.156 196.844V195.125L203.875 195.438C201.438 195.594 199.875 196.469 199.875 198.312ZM217.812 192.812V203H215.125V186.031H217.719V188.688H217.938C218.75 186.969 220.312 185.812 222.906 185.812C226.344 185.812 228.625 187.906 228.625 192.219V203H225.938V192.406C225.938 189.781 224.5 188.219 222.094 188.219C219.625 188.219 217.812 189.875 217.812 192.812ZM239.344 203.344C235.125 203.344 232.125 199.938 232.125 194.562C232.125 189.188 235.125 185.812 239.375 185.812C242.656 185.812 243.719 187.812 244.281 188.719H244.469V180.375H247.188V203H244.562V200.406H244.281C243.688 201.344 242.594 203.344 239.344 203.344ZM239.719 200.938C242.812 200.938 244.562 198.312 244.562 194.5C244.562 190.75 242.875 188.219 239.719 188.219C236.469 188.219 234.844 190.969 234.844 194.5C234.844 198.125 236.5 200.938 239.719 200.938ZM258.781 203.344C254.156 203.344 251.031 199.875 251.031 194.594C251.031 189.312 254.156 185.812 258.781 185.812C263.375 185.812 266.469 189.312 266.469 194.594C266.469 199.875 263.375 203.344 258.781 203.344ZM258.781 200.969C262.188 200.969 263.781 197.969 263.781 194.594C263.781 191.219 262.188 188.188 258.781 188.188C255.312 188.188 253.719 191.219 253.719 194.594C253.719 197.969 255.312 200.969 258.781 200.969ZM272.688 192.812V203H270V186.031H272.594V188.688H272.812C273.625 186.969 275.188 185.812 277.781 185.812C281.219 185.812 283.5 187.906 283.5 192.219V203H280.812V192.406C280.812 189.781 279.375 188.219 276.969 188.219C274.5 188.219 272.688 189.875 272.688 192.812ZM294.938 203.344C290.031 203.344 287 199.875 287 194.656C287 189.438 290.062 185.812 294.688 185.812C298.25 185.812 302 188 302 194.281V195.406H289.688C289.812 199 291.906 200.969 294.938 200.969C296.969 200.969 298.25 200.094 298.875 199.031H301.75C300.938 201.594 298.438 203.344 294.938 203.344ZM289.719 193.125H299.281C299.281 190.281 297.469 188.188 294.688 188.188C291.75 188.188 289.875 190.5 289.719 193.125ZM311.906 203.344C307.688 203.344 304.688 199.938 304.688 194.562C304.688 189.188 307.688 185.812 311.938 185.812C315.219 185.812 316.281 187.812 316.844 188.719H317.031V180.375H319.75V203H317.125V200.406H316.844C316.25 201.344 315.156 203.344 311.906 203.344ZM312.281 200.938C315.375 200.938 317.125 198.312 317.125 194.5C317.125 190.75 315.438 188.219 312.281 188.219C309.031 188.219 307.406 190.969 307.406 194.5C307.406 198.125 309.062 200.938 312.281 200.938ZM69.0938 245.344C64.2812 245.344 61.3438 241.688 61.3438 236.594C61.3438 231.438 64.4062 227.812 69.0312 227.812C72.6562 227.812 75.3438 229.938 75.7812 233.156H73.0938C72.7188 231.594 71.3438 230.188 69.0938 230.188C66.0625 230.188 64.0312 232.688 64.0312 236.5C64.0312 240.438 66 242.938 69.0938 242.938C71.0938 242.938 72.625 241.875 73.0938 240H75.7812C75.3438 243.031 72.875 245.344 69.0938 245.344ZM78.2812 240.188C78.2812 236.281 81.7188 235.406 84.6562 235.188C85.7344 235.109 88.4844 234.969 89.25 234.938V233.562C89.25 231.406 87.9688 230.156 85.4062 230.156C83.25 230.156 81.9688 231.156 81.5938 232.438H78.7812C79.125 229.719 81.7812 227.812 85.5312 227.812C87.75 227.812 91.9062 228.469 91.9062 233.812V245H89.25V242.688H89.125C88.5625 243.844 87 245.406 84.0625 245.406C80.8438 245.406 78.2812 243.5 78.2812 240.188ZM80.9688 240.312C80.9688 242.094 82.4688 243 84.5312 243C87.5625 243 89.25 240.969 89.25 238.844V237.125L84.9688 237.438C82.5312 237.594 80.9688 238.469 80.9688 240.312ZM103.625 228.031V230.281H100.062V240.125C100.062 242.312 101.125 242.656 102.281 242.656C102.781 242.656 103.469 242.625 103.875 242.594V245.094C103.469 245.156 102.781 245.219 102 245.219C99.75 245.219 97.3438 243.812 97.3438 240.812V230.281H94.7812V228.031H97.3438V223.969H100.062V228.031H103.625ZM116.219 232.438C115.844 231.031 114.781 230.094 112.781 230.094C110.688 230.094 109.188 231.219 109.188 232.656C109.188 233.781 110.094 234.562 112.094 235.031L114.625 235.656C117.656 236.375 119.156 237.875 119.156 240.25C119.156 243.188 116.75 245.344 112.5 245.344C108.688 245.344 106.406 243.656 105.969 240.562H108.781C109.094 242.219 110.312 243 112.438 243C114.844 243 116.375 242 116.375 240.406C116.375 239.219 115.531 238.406 113.594 237.969L111.031 237.375C108.062 236.688 106.5 235.062 106.5 232.812C106.5 229.906 109.031 227.812 112.781 227.812C116.281 227.812 118.5 229.688 118.844 232.438H116.219Z" fill="#7B6C6C"/>
<g filter="url(#filter0_i_276_1886)">
<path d="M402.647 340.857C399.26 330.531 394.026 320.934 391.255 315.467L319.3 327.372L344.537 407.6C346.242 417.083 343.004 432.998 341 440.459C340.904 440.813 341.181 441.159 341.548 441.142L391.383 438.808C394.251 413.33 403.394 407.038 407.012 392.996C411.74 374.649 409.249 360.99 402.647 340.857Z" fill="white"/>
</g>
<path d="M280.647 273.413C280.647 273.413 283.046 276.86 285.368 281.256L376.579 314.1L340.952 440.52C320.952 440.322 282.709 438.637 289.738 433.483C296.767 428.328 310.506 376.576 316.497 351.345C305.676 346.221 285.448 339.711 271.973 324.533C259.53 310.519 257.454 294.841 254.557 284.232C254.557 284.232 254.797 282.018 256.456 281.344C257.944 280.739 260.553 281.719 260.553 281.719C260.553 281.719 261.658 278.734 263.317 278.059C264.805 277.454 267.414 278.434 267.414 278.434C267.414 278.434 268.519 275.449 270.178 274.775C271.667 274.17 274.275 275.15 274.275 275.15C274.275 275.15 275.38 272.165 277.039 271.49C278.528 270.885 280.647 273.413 280.647 273.413Z" fill="white"/>
<path fill-rule="evenodd" clip-rule="evenodd" d="M281.887 272.373C281.887 272.373 281.887 272.373 280.647 273.413C281.975 272.488 281.975 272.489 281.975 272.489L281.984 272.501L282.007 272.534C282.026 272.563 282.055 272.604 282.091 272.658C282.165 272.765 282.271 272.922 282.405 273.122C282.672 273.524 283.052 274.104 283.506 274.822C284.411 276.258 285.614 278.255 286.8 280.5L283.938 282.012C282.802 279.86 281.644 277.936 280.769 276.549C280.332 275.856 279.967 275.299 279.712 274.918C279.585 274.727 279.485 274.58 279.418 274.481C279.398 274.451 279.381 274.426 279.366 274.405C279.361 274.399 279.355 274.392 279.348 274.385C279.3 274.331 279.227 274.252 279.135 274.157C278.946 273.963 278.69 273.721 278.409 273.502C278.116 273.275 277.859 273.123 277.667 273.051C277.629 273.037 277.6 273.028 277.579 273.023C277.47 273.084 277.31 273.206 277.111 273.428C276.872 273.694 276.641 274.03 276.434 274.387C276.229 274.739 276.065 275.078 275.952 275.331C275.896 275.457 275.854 275.558 275.827 275.625C275.813 275.658 275.804 275.683 275.798 275.698L275.793 275.711L275.793 275.712L275.792 275.712L275.792 275.712L275.792 275.713L275.792 275.714L275.228 277.236L273.709 276.665L273.709 276.665L273.708 276.664L273.696 276.66C273.684 276.656 273.662 276.648 273.633 276.638C273.574 276.617 273.483 276.587 273.369 276.552C273.137 276.481 272.818 276.392 272.465 276.321C271.657 276.157 271.052 276.166 270.788 276.273C270.685 276.315 270.498 276.437 270.25 276.712C270.011 276.978 269.78 277.314 269.573 277.671C269.368 278.023 269.204 278.363 269.091 278.616C269.035 278.741 268.993 278.842 268.966 278.91C268.952 278.943 268.942 278.968 268.937 278.983L268.932 278.996L268.931 278.997L268.931 278.997L268.931 278.997L268.931 278.998V278.998L268.367 280.52L266.848 279.949L266.847 279.949L266.847 279.949L266.835 279.945C266.823 279.94 266.801 279.932 266.772 279.922C266.713 279.902 266.622 279.872 266.508 279.836C266.276 279.765 265.957 279.677 265.604 279.605C264.796 279.442 264.191 279.45 263.927 279.558C263.824 279.6 263.637 279.721 263.389 279.997C263.15 280.263 262.919 280.599 262.711 280.956C262.506 281.308 262.342 281.647 262.23 281.901C262.174 282.026 262.132 282.127 262.105 282.194C262.091 282.228 262.081 282.252 262.076 282.267L262.07 282.281L262.07 282.281L262.07 282.282L262.07 282.282L262.07 282.283L261.506 283.805L259.987 283.234L259.986 283.234L259.985 283.233L259.974 283.229C259.962 283.225 259.94 283.217 259.911 283.207C259.852 283.186 259.761 283.156 259.647 283.121C259.415 283.05 259.096 282.961 258.743 282.89C257.934 282.727 257.33 282.735 257.066 282.842C256.806 282.948 256.566 283.214 256.377 283.666C256.301 283.846 256.249 284.021 256.215 284.162C256.658 285.808 257.081 287.552 257.523 289.372C259.982 299.5 263.02 312.012 273.183 323.459C283.883 335.511 298.887 341.942 310.093 346.746C312.697 347.863 315.097 348.891 317.19 349.882L318.374 350.443L318.071 351.718C315.585 362.188 311.768 377.214 307.648 391.597C304.735 401.763 301.663 411.637 298.795 419.361C297.362 423.22 295.968 426.577 294.657 429.177C294.002 430.477 293.355 431.615 292.719 432.543C292.162 433.357 291.565 434.083 290.922 434.611C291.287 434.791 291.787 434.984 292.434 435.181C295.174 436.015 299.777 436.704 305.367 437.249C316.481 438.333 330.988 438.803 340.969 438.902L340.937 442.137C330.917 442.038 316.303 441.567 305.053 440.47C299.46 439.924 294.57 439.213 291.491 438.276C290.713 438.039 290.003 437.774 289.407 437.471C288.837 437.181 288.236 436.79 287.815 436.238C287.335 435.61 287.101 434.771 287.405 433.885C287.663 433.13 288.235 432.578 288.781 432.177C289.081 431.958 289.51 431.503 290.05 430.715C290.576 429.946 291.151 428.945 291.768 427.721C293.001 425.274 294.347 422.043 295.761 418.235C298.587 410.624 301.633 400.842 304.537 390.706C308.476 376.958 312.139 362.611 314.617 352.256C312.96 351.502 311.097 350.705 309.082 349.844C297.89 345.059 282.003 338.267 270.763 325.607C260.016 313.503 256.782 300.113 254.335 289.982C253.876 288.083 253.445 286.298 252.997 284.657L252.916 284.362L252.949 284.057L254.558 284.231C252.949 284.057 252.949 284.056 252.949 284.056L252.95 284.052L252.95 284.046L252.952 284.032C252.953 284.022 252.955 284.009 252.957 283.995C252.961 283.965 252.966 283.927 252.973 283.882C252.988 283.791 253.009 283.669 253.042 283.524C253.105 283.238 253.213 282.844 253.393 282.415C253.738 281.591 254.448 280.414 255.847 279.845C257.071 279.347 258.515 279.543 259.384 279.718C259.48 279.738 259.574 279.758 259.665 279.779C259.742 279.633 259.825 279.482 259.915 279.327C260.191 278.854 260.548 278.317 260.983 277.833C261.408 277.36 261.982 276.856 262.708 276.56C263.932 276.063 265.376 276.258 266.245 276.434C266.341 276.453 266.435 276.473 266.526 276.494C266.603 276.349 266.686 276.197 266.776 276.043C267.052 275.569 267.409 275.033 267.844 274.549C268.27 274.075 268.843 273.571 269.569 273.276C270.793 272.778 272.238 272.974 273.106 273.149C273.202 273.168 273.296 273.189 273.387 273.21C273.464 273.064 273.547 272.913 273.637 272.758C273.913 272.285 274.27 271.748 274.705 271.264C275.131 270.791 275.704 270.286 276.43 269.991C277.316 269.631 278.176 269.788 278.796 270.019C279.419 270.251 279.971 270.618 280.395 270.947C280.829 271.285 281.196 271.636 281.451 271.898C281.58 272.03 281.685 272.143 281.758 272.226C281.796 272.267 281.825 272.301 281.847 272.326C281.858 272.339 281.867 272.349 281.873 272.357L281.882 272.367L281.885 272.371L281.887 272.373ZM277.532 273.014C277.532 273.014 277.533 273.014 277.537 273.014C277.534 273.014 277.532 273.014 277.532 273.014ZM280.647 273.413L281.975 272.489L281.934 272.429L281.887 272.373L280.647 273.413Z" fill="#19191B"/>
<g filter="url(#filter1_i_276_1886)">
<path d="M314.172 224.331L314.114 224.643C311.796 229.284 307.729 236.063 305.335 246.633C302.689 258.315 302.455 264.403 302.455 264.403C292.757 269.809 278.313 281.318 282.505 295.835C287.744 313.982 339.362 331.536 380.797 318.406C414.162 307.832 419.82 285.428 420.65 279.183C421.314 274.187 420.24 264.331 418.554 255.006C418.164 252.849 417.601 251.882 417.438 249.506C417.234 246.536 422.344 236.874 423.593 233.94C424.842 231.006 427.447 214.343 419.602 212.859C413.326 211.672 398.983 225.637 392.596 232.768C386.725 229.879 372.748 223.652 363.804 221.861C354.86 220.069 346.849 221.042 343.961 221.753C344.005 218.546 343.993 211.292 343.586 207.924C343.079 203.716 335.013 187.836 327.383 186.693C321.332 185.787 316.423 212.21 314.172 224.331Z" fill="#FBFBFB"/>
</g>
<path fill-rule="evenodd" clip-rule="evenodd" d="M349.194 230.609C350.082 230.713 350.717 231.516 350.614 232.404C350.468 233.656 350.348 235.728 350.47 237.795C350.598 239.941 350.971 241.762 351.597 242.755C352.355 243.957 353.205 244.928 353.96 245.653C354.237 245.002 354.622 244.288 355.144 243.529C356.292 241.862 357.409 240.56 358.106 239.821C359.344 238.507 361.2 239.514 361.363 240.916C361.541 242.442 362.371 244.999 364.53 246.487C365.132 246.902 365.708 247.238 366.245 247.508C365.779 246.523 365.414 245.365 365.445 244.169C365.477 242.885 365.647 241.859 365.867 241.075C366.072 240.34 366.354 239.701 366.693 239.286C367.259 238.595 368.279 238.493 368.97 239.059C369.661 239.626 369.763 240.645 369.197 241.336C369.209 241.321 369.215 241.313 369.216 241.314C369.22 241.316 369.109 241.495 368.983 241.947C368.843 242.447 368.706 243.206 368.68 244.251C368.664 244.875 368.908 245.666 369.376 246.529C369.832 247.369 370.423 248.136 370.902 248.665C371.399 249.214 371.524 249.983 371.255 250.643C370.97 251.338 370.265 251.839 369.423 251.785C367.934 251.69 365.455 251.055 362.693 249.152C360.645 247.74 359.46 245.764 358.808 243.995C358.488 244.41 358.15 244.869 357.809 245.365C356.888 246.702 356.635 247.689 356.586 248.123C356.508 248.81 356.085 249.333 355.6 249.608C355.099 249.893 354.301 250.026 353.583 249.53C352.399 248.713 350.456 247.013 348.859 244.48C347.763 242.741 347.371 240.193 347.24 237.986C347.105 235.702 347.235 233.439 347.4 232.029C347.503 231.141 348.307 230.506 349.194 230.609Z" fill="#19191B"/>
<path d="M351.697 267.948C351.172 270.267 349.357 271.833 347.985 271.522C346.612 271.211 345.649 269.016 346.174 266.697C346.7 264.378 348.017 262.405 350.227 262.905C351.883 263.281 352.223 265.628 351.697 267.948Z" fill="#19191B"/>
<path d="M340.11 270.833C339.945 271.938 337.461 274.732 334.969 274.359C332.477 273.986 330.921 270.586 331.087 269.48C331.252 268.375 332.818 267.694 335.31 268.067C337.802 268.441 340.276 269.727 340.11 270.833Z" fill="#19191B"/>
<path d="M329.08 262.825C328.554 265.145 326.74 266.71 325.367 266.399C323.995 266.088 323.032 263.894 323.557 261.574C324.082 259.255 325.4 257.283 327.609 257.783C329.266 258.158 329.605 260.506 329.08 262.825Z" fill="#19191B"/>
<path fill-rule="evenodd" clip-rule="evenodd" d="M336.725 195.749C333.814 191.663 330.337 188.782 327.197 188.311C326.993 188.28 326.682 188.316 326.197 188.691C325.691 189.082 325.111 189.762 324.485 190.776C323.237 192.799 322.03 195.784 320.908 199.283C318.673 206.252 316.906 214.85 315.796 220.82C315.633 221.698 314.789 222.278 313.91 222.115C313.032 221.952 312.452 221.107 312.615 220.229C313.728 214.237 315.526 205.471 317.826 198.295C318.972 194.722 320.274 191.439 321.731 189.077C322.458 187.899 323.28 186.856 324.218 186.131C325.178 185.389 326.356 184.913 327.677 185.111C332.163 185.783 336.314 189.596 339.361 193.871C342.45 198.206 344.731 203.471 345.243 207.715C345.592 210.601 345.658 216.131 345.646 219.758C349.572 219.137 356.543 218.721 364.163 220.247C372.8 221.978 385.851 227.68 392.239 230.748C395.493 227.196 400.31 222.372 405.134 218.421C407.755 216.276 410.425 214.348 412.88 213.026C415.25 211.75 417.758 210.848 419.914 211.256C422.461 211.738 424.163 213.34 425.209 215.366C426.228 217.338 426.656 219.749 426.771 222.11C427.002 226.832 426.004 231.934 425.132 234.439C424.499 236.257 423.396 238.583 422.325 240.84C421.981 241.566 421.64 242.284 421.319 242.977C420.642 244.439 420.043 245.804 419.627 246.968C419.188 248.198 419.042 248.972 419.067 249.348C419.146 250.492 419.246 251.271 419.322 251.749C419.36 251.988 419.392 252.152 419.412 252.248C419.422 252.295 419.43 252.327 419.433 252.342C419.434 252.346 419.435 252.349 419.436 252.351C419.664 253.209 419.157 254.093 418.299 254.328C417.437 254.564 416.547 254.056 416.312 253.194L417.872 252.767C416.312 253.194 416.311 253.194 416.311 253.193L416.311 253.191L416.31 253.188L416.308 253.18C416.306 253.174 416.304 253.167 416.302 253.16C416.299 253.145 416.294 253.126 416.288 253.103C416.282 253.075 416.274 253.041 416.265 253.001C416.259 252.976 416.253 252.95 416.247 252.921C416.214 252.767 416.172 252.549 416.126 252.257C416.033 251.675 415.924 250.8 415.839 249.57C415.763 248.462 416.135 247.126 416.579 245.88C417.047 244.57 417.698 243.095 418.383 241.616C418.744 240.838 419.111 240.063 419.472 239.302C420.519 237.094 421.506 235.013 422.076 233.376C422.822 231.232 423.748 226.544 423.539 222.268C423.435 220.131 423.052 218.241 422.334 216.851C421.645 215.516 420.686 214.695 419.312 214.436C418.332 214.25 416.696 214.647 414.414 215.875C412.218 217.058 409.73 218.841 407.185 220.925C402.102 225.087 396.982 230.293 393.828 233.813L393.009 234.727L391.909 234.185C386.041 231.298 372.238 225.165 363.527 223.42C354.841 221.68 347.075 222.637 344.399 223.295L342.366 223.795L342.395 221.702C342.439 218.476 342.422 211.339 342.031 208.103C341.6 204.537 339.594 199.775 336.725 195.749ZM313.985 223.245C314.784 223.644 315.108 224.616 314.709 225.415C312.425 229.988 309.34 236.548 306.987 246.935C305.677 252.722 304.966 257.11 304.584 260.04C304.393 261.505 304.283 262.606 304.222 263.334C304.192 263.698 304.173 263.969 304.162 264.145C304.157 264.234 304.153 264.299 304.151 264.34C304.151 264.353 304.15 264.364 304.15 264.372L304.149 264.384L304.149 264.393L304.149 264.394L304.149 264.394L304.149 264.394L304.114 265.302L303.32 265.744C298.604 268.372 292.965 272.581 289.037 277.829C285.122 283.057 283.008 289.158 284.917 295.766C286.064 299.738 289.826 303.93 295.853 307.796C301.828 311.628 309.801 314.992 318.948 317.406C337.253 322.237 359.993 323.196 380.35 316.749C412.955 306.423 418.295 284.677 419.063 278.896C419.366 276.613 419.154 272.601 418.718 268.283C418.288 264.023 417.662 259.646 417.208 256.734C417.071 255.851 417.675 255.024 418.558 254.886C419.441 254.748 420.268 255.352 420.406 256.235C420.864 259.178 421.5 263.618 421.938 267.958C422.37 272.241 422.631 276.612 422.271 279.322C421.381 286.019 415.414 309.039 381.327 319.834C360.272 326.502 336.893 325.488 318.123 320.535C308.732 318.056 300.429 314.575 294.106 310.519C287.836 306.497 283.28 301.757 281.808 296.664C279.527 288.767 282.151 281.626 286.446 275.889C290.508 270.463 296.156 266.152 300.974 263.356C300.981 263.265 300.989 263.167 300.998 263.063C301.063 262.286 301.178 261.136 301.375 259.622C301.771 256.593 302.499 252.105 303.831 246.22C306.262 235.487 309.467 228.67 311.814 223.97C312.213 223.17 313.185 222.846 313.985 223.245Z" fill="#19191B"/>
<path fill-rule="evenodd" clip-rule="evenodd" d="M391.03 318.576C390.589 317.721 390.18 316.926 389.812 316.199L392.698 314.736C393.056 315.442 393.458 316.222 393.893 317.068C396.795 322.7 401.197 331.247 404.184 340.353C410.827 360.608 413.419 374.617 408.579 393.399C407.188 398.799 404.972 403.16 402.687 407.66C401.915 409.178 401.136 410.713 400.377 412.308C397.345 418.687 394.402 426.456 392.991 438.989L392.837 440.36L341.624 442.758C340.155 442.827 339.059 441.445 339.437 440.039C340.424 436.364 341.72 430.586 342.557 424.565C343.399 418.506 343.75 412.366 342.945 407.887L346.129 407.314C347.029 412.318 346.614 418.876 345.762 425.011C345.005 430.457 343.884 435.699 342.933 439.458L389.938 437.256C391.452 425.103 394.408 417.328 397.455 410.919C398.292 409.158 399.119 407.528 399.916 405.959C402.153 401.553 404.15 397.621 405.446 392.592C410.061 374.681 407.672 361.372 401.109 341.362C398.21 332.522 393.938 324.224 391.03 318.576Z" fill="#19191B"/>
<path d="M248.9 294.358L287.398 258.944C287.761 258.609 288.229 258.4 288.723 258.432C290.897 258.575 294.26 259.695 296.607 261.076C300.403 263.311 302.096 266.07 302.852 267.769C303.136 268.408 303.013 269.141 302.602 269.707L297.904 276.185C297.126 277.258 297.491 278.773 298.673 279.374L306.093 283.147C306.948 283.581 307.987 283.399 308.643 282.7L317.659 273.097C318.157 272.567 318.888 272.32 319.602 272.455C322.257 272.956 325.868 273.827 329.384 275.967C332.894 278.104 336.139 282.421 337.908 285.374C338.357 286.125 338.251 287.07 337.688 287.74L303.052 329.034C302.561 329.62 301.796 329.904 301.05 329.736C298.953 329.264 295.269 328.233 291.158 326.497C287.067 324.77 283.901 321.937 282.616 320.225C282.173 319.635 282.317 318.868 282.797 318.309L290.738 309.067C291.669 307.983 291.309 306.31 290.014 305.706L280.604 301.316C279.835 300.958 278.927 301.083 278.284 301.637L267.446 310.978C266.865 311.479 266.062 311.632 265.326 311.413C262.294 310.51 258.25 309.602 253.822 306.287C249.495 303.047 248.875 299.386 248.239 296.57C248.057 295.768 248.294 294.915 248.9 294.358Z" fill="#7C7262"/>
<path fill-rule="evenodd" clip-rule="evenodd" d="M288.829 256.818C291.306 256.981 294.912 258.201 297.428 259.682C301.571 262.121 303.467 265.171 304.33 267.112C304.883 268.353 304.61 269.695 303.912 270.657L299.214 277.135C299.02 277.404 299.111 277.782 299.407 277.933L306.826 281.705C307.04 281.813 307.3 281.768 307.464 281.593L316.48 271.99C317.346 271.068 318.631 270.625 319.903 270.866C322.625 271.38 326.461 272.295 330.225 274.586C334.078 276.931 337.488 281.525 339.296 284.544C340.126 285.929 339.9 287.621 338.928 288.781L304.292 330.074C303.439 331.091 302.072 331.625 300.695 331.315C298.517 330.825 294.739 329.766 290.529 327.988C286.179 326.152 282.782 323.141 281.322 321.197C280.287 319.817 280.761 318.197 281.57 317.255L289.511 308.013C289.744 307.742 289.654 307.323 289.33 307.172L279.921 302.783C279.728 302.693 279.501 302.725 279.341 302.863L268.503 312.204C267.48 313.085 266.098 313.331 264.864 312.964C264.539 312.867 264.197 312.769 263.84 312.666C260.945 311.837 257.04 310.718 252.852 307.582C248.261 304.145 247.383 300.181 246.762 297.38C246.728 297.225 246.694 297.074 246.661 296.927C246.361 295.603 246.741 294.146 247.805 293.168L286.302 257.754C286.914 257.191 287.798 256.751 288.829 256.818ZM288.627 260.048C288.624 260.049 288.62 260.05 288.615 260.052C288.591 260.062 288.547 260.086 288.493 260.135L249.995 295.549C249.848 295.685 249.754 295.933 249.817 296.214C249.849 296.353 249.88 296.493 249.911 296.634C250.514 299.337 251.17 302.281 254.792 304.992C258.481 307.754 261.844 308.723 264.725 309.553C265.087 309.657 265.441 309.759 265.788 309.862C266.026 309.933 266.25 309.874 266.39 309.753L277.228 300.412C278.353 299.442 279.942 299.223 281.289 299.851L290.698 304.24C292.964 305.297 293.595 308.225 291.965 310.121L284.025 319.364C284.019 319.37 284.014 319.377 284.009 319.383C285.188 320.883 288.064 323.435 291.788 325.007C295.798 326.701 299.39 327.704 301.405 328.158C301.52 328.184 301.683 328.149 301.813 327.995L336.449 286.701C336.601 286.52 336.59 286.322 336.52 286.206C334.791 283.319 331.711 279.278 328.543 277.35C325.274 275.361 321.889 274.534 319.302 274.045C319.146 274.016 318.968 274.067 318.839 274.205L309.823 283.808C308.674 285.031 306.856 285.35 305.36 284.589L297.94 280.817C295.872 279.765 295.233 277.114 296.595 275.235L301.293 268.758C301.416 268.588 301.39 268.463 301.374 268.427C300.726 266.971 299.236 264.501 295.787 262.471C293.613 261.191 290.499 260.174 288.627 260.048Z" fill="#19191B"/>
<path d="M268.186 308.592C266.537 310.937 261.093 309.95 256.026 306.387C250.96 302.823 248.19 298.034 249.839 295.689C251.489 293.343 256.933 294.331 261.999 297.894C267.065 301.457 269.835 306.247 268.186 308.592Z" fill="#C2E5FF"/>
<path fill-rule="evenodd" clip-rule="evenodd" d="M265.38 306.618C265.318 306.359 265.169 305.94 264.81 305.32C263.974 303.875 262.376 302.115 260.138 300.541C257.899 298.967 255.703 298.058 254.06 297.76C253.355 297.632 252.91 297.633 252.646 297.662C252.707 297.921 252.857 298.34 253.216 298.961C254.051 300.406 255.649 302.166 257.888 303.74C260.126 305.314 262.323 306.223 263.965 306.521C264.67 306.649 265.115 306.648 265.38 306.618ZM256.026 306.387C261.093 309.95 266.537 310.937 268.186 308.592C269.835 306.247 267.065 301.457 261.999 297.894C256.933 294.331 251.489 293.343 249.839 295.689C248.19 298.034 250.96 302.823 256.026 306.387Z" fill="#19191B"/>
<path d="M303.824 327.068C302.589 329.656 297.022 329.575 291.389 326.887C285.756 324.199 282.19 319.922 283.425 317.335C284.66 314.747 289.991 313.239 295.624 315.927C301.257 318.615 305.059 324.481 303.824 327.068Z" fill="#C2E5FF"/>
<path fill-rule="evenodd" clip-rule="evenodd" d="M300.763 325.574C300.757 325.549 300.75 325.523 300.742 325.496C300.597 324.982 300.256 324.252 299.656 323.401C298.454 321.698 296.515 319.938 294.231 318.848C291.978 317.773 289.907 317.595 288.406 317.845C287.226 318.041 286.672 318.428 286.457 318.619C286.519 318.828 286.71 319.273 287.317 320.001C288.397 321.296 290.288 322.776 292.782 323.966C295.276 325.156 297.617 325.696 299.303 325.72C300.06 325.731 300.511 325.65 300.763 325.574ZM300.821 325.929C300.821 325.932 300.821 325.934 300.821 325.934C300.821 325.934 300.821 325.932 300.821 325.929ZM291.389 326.887C297.022 329.575 302.589 329.656 303.824 327.068C305.059 324.481 301.257 318.615 295.624 315.927C289.991 313.239 284.66 314.747 283.425 317.335C282.19 319.922 285.756 324.199 291.389 326.887Z" fill="#19191B"/>
<path fill-rule="evenodd" clip-rule="evenodd" d="M265.939 289.386C264.463 288.805 263.086 288.484 262.315 288.369C261.432 288.238 260.822 287.414 260.954 286.531C261.085 285.647 261.908 285.037 262.792 285.169C263.805 285.319 265.42 285.704 267.125 286.375C268.82 287.043 270.721 288.039 272.203 289.472C274.88 292.059 277.206 295.468 278.052 296.872C278.513 297.637 278.266 298.631 277.501 299.092C276.735 299.554 275.741 299.307 275.28 298.542C274.518 297.277 272.359 294.122 269.954 291.798C268.896 290.775 267.426 289.971 265.939 289.386Z" fill="#19191B"/>
<path fill-rule="evenodd" clip-rule="evenodd" d="M296.417 310.44C296.29 310.421 296.164 310.403 296.037 310.384C295.153 310.253 294.544 309.429 294.675 308.546C294.807 307.662 295.63 307.052 296.514 307.184C296.637 307.202 296.762 307.22 296.89 307.238C298.648 307.491 300.955 307.822 303.969 309.922C305.533 311.011 306.982 312.412 308.018 313.507C308.542 314.061 308.973 314.55 309.274 314.902C309.425 315.079 309.543 315.221 309.625 315.321C309.667 315.371 309.699 315.411 309.721 315.438C309.732 315.452 309.741 315.463 309.747 315.471L309.755 315.48L309.757 315.483L309.758 315.485C309.758 315.485 309.759 315.485 308.535 316.459L309.759 315.485C310.315 316.184 310.199 317.202 309.499 317.758C308.8 318.315 307.782 318.199 307.226 317.5L307.226 317.499L307.222 317.495L307.204 317.472C307.187 317.451 307.161 317.419 307.126 317.376C307.056 317.291 306.95 317.164 306.814 317.005C306.541 316.686 306.147 316.238 305.667 315.731C304.696 314.704 303.421 313.484 302.119 312.577C299.739 310.918 298.058 310.676 296.417 310.44Z" fill="#19191B"/>
<path fill-rule="evenodd" clip-rule="evenodd" d="M284.173 271.566C283.168 271.208 282.239 270.993 281.726 270.908C280.844 270.762 280.248 269.929 280.394 269.048C280.54 268.166 281.374 267.57 282.255 267.716C282.956 267.832 284.072 268.095 285.259 268.518C286.432 268.935 287.784 269.547 288.877 270.405C290.806 271.918 292.518 273.869 293.157 274.682C293.708 275.385 293.586 276.402 292.883 276.954C292.18 277.506 291.163 277.383 290.611 276.68C290.076 275.999 288.544 274.256 286.88 272.951C286.176 272.399 285.191 271.928 284.173 271.566Z" fill="#19191B"/>
<path fill-rule="evenodd" clip-rule="evenodd" d="M314.641 288.463C313.319 287.987 312.093 287.703 311.405 287.59C310.523 287.446 309.926 286.614 310.07 285.732C310.215 284.85 311.047 284.253 311.929 284.397C312.811 284.542 314.229 284.876 315.737 285.419C317.233 285.958 318.928 286.741 320.283 287.831C322.731 289.799 324.904 292.351 325.707 293.407C326.248 294.118 326.11 295.133 325.399 295.674C324.688 296.215 323.673 296.077 323.132 295.366C322.43 294.443 320.435 292.106 318.255 290.352C317.296 289.581 315.975 288.944 314.641 288.463Z" fill="#19191B"/>
<path fill-rule="evenodd" clip-rule="evenodd" d="M296.485 280.633C297.174 281.202 297.273 282.222 296.704 282.911L284.124 298.172C283.556 298.861 282.536 298.959 281.846 298.391C281.157 297.822 281.059 296.803 281.627 296.113L294.207 280.853C294.776 280.163 295.795 280.065 296.485 280.633Z" fill="#B2B2B2"/>
<path fill-rule="evenodd" clip-rule="evenodd" d="M305.59 285.598C306.28 286.167 306.378 287.187 305.81 287.876L293.229 303.136C292.661 303.826 291.641 303.924 290.952 303.356C290.262 302.787 290.164 301.768 290.733 301.078L303.313 285.818C303.881 285.128 304.901 285.03 305.59 285.598Z" fill="#19191B"/>
<g filter="url(#filter2_i_276_1886)">
<path d="M350.524 306.856C360.695 319.751 374.06 328.684 382.948 334.736C383.88 335.37 384.16 336.616 383.595 337.591L367.853 364.745C367.219 365.838 365.787 366.158 364.735 365.458C356.644 360.08 343.944 352.896 334.002 341.96C322.664 329.488 317.198 314.866 312.733 305.182C312.646 304.995 312.588 304.801 312.569 304.596C312.494 303.787 312.407 301.61 313.527 300.827C314.198 300.357 315.205 300.215 316.109 300.201C317.262 300.182 318.353 299.459 318.832 298.41C319.162 297.686 319.617 296.942 320.202 296.532C320.873 296.063 321.88 295.921 322.784 295.907C323.937 295.888 325.029 295.165 325.507 294.116C325.837 293.392 326.292 292.647 326.877 292.238C327.549 291.769 328.555 291.627 329.459 291.612C330.612 291.594 331.704 290.871 332.182 289.821C332.512 289.097 332.967 288.353 333.552 287.944C334.697 287.143 336.39 288.095 337.115 288.579C337.351 288.738 337.531 288.955 337.675 289.2C339.511 292.33 345.192 300.096 350.524 306.856Z" fill="white"/>
</g>
<path fill-rule="evenodd" clip-rule="evenodd" d="M336.041 286.327C336.921 286.593 337.679 287.052 338.096 287.331C338.591 287.662 338.924 288.088 339.153 288.478C340.925 291.5 346.54 299.185 351.876 305.95C361.618 318.301 374.35 326.967 383.241 333.018C384.06 333.576 384.846 334.111 385.595 334.625C386.332 335.131 386.519 336.138 386.013 336.875C385.507 337.611 384.5 337.798 383.764 337.293C383.018 336.78 382.229 336.244 381.403 335.682C372.537 329.652 359.403 320.718 349.335 307.954C344.008 301.2 338.261 293.354 336.362 290.116C336.324 290.051 336.299 290.024 336.292 290.017C335.985 289.812 335.537 289.556 335.105 289.425C334.895 289.361 334.743 289.345 334.649 289.35C334.606 289.352 334.582 289.358 334.573 289.361C334.566 289.363 334.564 289.365 334.561 289.366C334.346 289.517 334.039 289.925 333.736 290.589C333.002 292.199 331.352 293.298 329.567 293.326C328.717 293.34 328.136 293.486 327.886 293.661C327.671 293.811 327.364 294.22 327.061 294.884C326.327 296.494 324.677 297.592 322.892 297.621C322.042 297.634 321.461 297.78 321.211 297.955C320.996 298.106 320.689 298.514 320.386 299.178C319.652 300.788 318.002 301.887 316.217 301.915C315.367 301.929 314.786 302.075 314.536 302.249C314.537 302.248 314.537 302.249 314.534 302.252C314.514 302.278 314.366 302.46 314.282 303.033C314.201 303.591 314.229 304.191 314.262 304.541C314.263 304.546 314.267 304.565 314.284 304.602C314.959 306.065 315.652 307.629 316.38 309.271C320.533 318.639 325.815 330.556 335.281 340.968C343.353 349.847 353.203 356.157 361.019 361.163C363.483 362.742 365.744 364.191 367.684 365.55C368.416 366.062 368.594 367.071 368.081 367.803C367.569 368.535 366.56 368.713 365.828 368.2C364.048 366.953 361.906 365.582 359.529 364.06C351.685 359.039 341.283 352.38 332.887 343.145C323.037 332.31 317.525 319.858 313.383 310.502C312.668 308.886 311.994 307.363 311.346 305.957C311.197 305.635 311.079 305.262 311.04 304.841C310.997 304.383 310.945 303.49 311.081 302.564C311.205 301.718 311.548 300.39 312.682 299.597C313.775 298.833 315.207 298.695 316.165 298.68C316.686 298.671 317.219 298.324 317.442 297.835C317.799 297.051 318.402 295.971 319.357 295.303C320.45 294.539 321.882 294.401 322.84 294.385C323.361 294.377 323.894 294.03 324.117 293.541C324.474 292.757 325.077 291.676 326.032 291.009C327.125 290.245 328.557 290.106 329.515 290.091C330.036 290.083 330.569 289.735 330.792 289.247C331.15 288.463 331.752 287.382 332.707 286.714C333.878 285.896 335.192 286.071 336.041 286.327ZM314.261 304.54C314.261 304.54 314.261 304.54 314.261 304.541C314.261 304.54 314.261 304.54 314.261 304.54Z" fill="#19191B"/>
<defs>
<filter id="filter0_i_276_1886" x="315.299" y="315.467" width="94.1577" height="129.675" filterUnits="userSpaceOnUse" color-interpolation-filters="sRGB">
<feFlood flood-opacity="0" result="BackgroundImageFix"/>
<feBlend mode="normal" in="SourceGraphic" in2="BackgroundImageFix" result="shape"/>
<feColorMatrix in="SourceAlpha" type="matrix" values="0 0 0 0 0 0 0 0 0 0 0 0 0 0 0 0 0 0 127 0" result="hardAlpha"/>
<feOffset dx="-22" dy="8"/>
<feGaussianBlur stdDeviation="2"/>
<feComposite in2="hardAlpha" operator="arithmetic" k2="-1" k3="1"/>
<feColorMatrix type="matrix" values="0 0 0 0 0 0 0 0 0 0 0 0 0 0 0 0 0 0 0.25 0"/>
<feBlend mode="normal" in2="shape" result="effect1_innerShadow_276_1886"/>
</filter>
<filter id="filter1_i_276_1886" x="277.76" y="186.67" width="147.268" height="140.304" filterUnits="userSpaceOnUse" color-interpolation-filters="sRGB">
<feFlood flood-opacity="0" result="BackgroundImageFix"/>
<feBlend mode="normal" in="SourceGraphic" in2="BackgroundImageFix" result="shape"/>
<feColorMatrix in="SourceAlpha" type="matrix" values="0 0 0 0 0 0 0 0 0 0 0 0 0 0 0 0 0 0 127 0" result="hardAlpha"/>
<feOffset dx="-20" dy="8"/>
<feGaussianBlur stdDeviation="2"/>
<feComposite in2="hardAlpha" operator="arithmetic" k2="-1" k3="1"/>
<feColorMatrix type="matrix" values="0 0 0 0 0 0 0 0 0 0 0 0 0 0 0 0 0 0 0.25 0"/>
<feBlend mode="normal" in2="shape" result="effect1_innerShadow_276_1886"/>
</filter>
<filter id="filter2_i_276_1886" x="312.529" y="287.635" width="75.3569" height="82.1944" filterUnits="userSpaceOnUse" color-interpolation-filters="sRGB">
<feFlood flood-opacity="0" result="BackgroundImageFix"/>
<feBlend mode="normal" in="SourceGraphic" in2="BackgroundImageFix" result="shape"/>
<feColorMatrix in="SourceAlpha" type="matrix" values="0 0 0 0 0 0 0 0 0 0 0 0 0 0 0 0 0 0 127 0" result="hardAlpha"/>
<feOffset dx="6" dy="8"/>
<feGaussianBlur stdDeviation="2"/>
<feComposite in2="hardAlpha" operator="arithmetic" k2="-1" k3="1"/>
<feColorMatrix type="matrix" values="0 0 0 0 0 0 0 0 0 0 0 0 0 0 0 0 0 0 0.25 0"/>
<feBlend mode="normal" in2="shape" result="effect1_innerShadow_276_1886"/>
</filter>
<linearGradient id="paint0_linear_276_1886" x1="63.3993" y1="-26.5" x2="454.766" y2="292.983" gradientUnits="userSpaceOnUse">
<stop stop-color="#FFCB7A"/>
<stop offset="1" stop-color="#FFDB5A"/>
</linearGradient>
</defs>
</svg>
