<svg width="732" height="464" viewBox="0 0 732 464" fill="none" xmlns="http://www.w3.org/2000/svg">
<rect width="732" height="464" rx="40" fill="url(#paint0_linear_52_1361)"/>
<path d="M72.9766 104.473C65.8438 104.473 61.5469 99.5312 61.5469 92.3984C61.5469 85.2656 65.8867 80.3672 72.9766 80.3672C78.9922 80.3672 83.0742 83.8906 83.332 89.2188H77.3594C76.9727 86.8984 75.4688 85.3086 73.0625 85.3086C70.0117 85.3086 67.9922 87.8867 67.9922 92.3125C67.9922 96.8242 69.9688 99.4023 73.0625 99.4023C75.2969 99.4023 76.9727 98.0273 77.3594 95.5352H83.332C83.0312 100.82 79.1641 104.473 72.9766 104.473ZM86.168 97.4688C86.168 92.2695 90.3789 90.5508 94.8477 90.293C96.5234 90.1855 99.6602 90.0352 100.648 89.9922V88.1016C100.605 86.168 99.2734 85.0078 96.9102 85.0078C94.7617 85.0078 93.3867 85.9961 93.043 87.5859H86.9844C87.3711 83.5469 90.8945 80.3672 97.082 80.3672C102.152 80.3672 106.965 82.6445 106.965 88.2734V104H100.949V100.777H100.777C99.6172 102.926 97.4258 104.43 93.9453 104.43C89.4766 104.43 86.168 102.109 86.168 97.4688ZM92.2695 97.2969C92.2695 99.1016 93.7305 100.047 95.75 100.047C98.6289 100.047 100.691 98.1133 100.648 95.6641V93.9453C99.6816 93.9883 96.9746 94.1387 95.8789 94.2461C93.6875 94.4609 92.2695 95.4922 92.2695 97.2969ZM124.109 80.668V85.4375H119.727V96.8242C119.727 98.6719 120.629 99.1445 121.918 99.1875C122.562 99.1875 123.68 99.1445 124.453 99.0586V104.086C123.766 104.215 122.648 104.301 121.059 104.301C116.461 104.301 113.324 102.238 113.367 97.7266V85.4375H110.145V80.668H113.367V75.082H119.727V80.668H124.109Z" fill="#594C4C"/>
<path d="M62.1562 167.375V144.031H64.75V146.719H65.0625C65.625 145.812 66.6875 143.812 69.9688 143.812C74.2188 143.812 77.1875 147.188 77.1875 152.562C77.1875 157.938 74.2188 161.344 70 161.344C66.75 161.344 65.625 159.344 65.0625 158.406H64.8438V167.375H62.1562ZM64.7812 152.5C64.7812 156.312 66.5 158.938 69.625 158.938C72.8438 158.938 74.5 156.125 74.5 152.5C74.5 148.969 72.875 146.219 69.625 146.219C66.4375 146.219 64.7812 148.75 64.7812 152.5ZM79.875 156.188C79.875 152.281 83.3125 151.406 86.25 151.188C87.3281 151.109 90.0781 150.969 90.8438 150.938V149.562C90.8438 147.406 89.5625 146.156 87 146.156C84.8438 146.156 83.5625 147.156 83.1875 148.438H80.375C80.7188 145.719 83.375 143.812 87.125 143.812C89.3438 143.812 93.5 144.469 93.5 149.812V161H90.8438V158.688H90.7188C90.1562 159.844 88.5938 161.406 85.6562 161.406C82.4375 161.406 79.875 159.5 79.875 156.188ZM82.5625 156.312C82.5625 158.094 84.0625 159 86.125 159C89.1562 159 90.8438 156.969 90.8438 154.844V153.125L86.5625 153.438C84.125 153.594 82.5625 154.469 82.5625 156.312ZM105.219 144.031V146.281H101.656V156.125C101.656 158.312 102.719 158.656 103.875 158.656C104.375 158.656 105.062 158.625 105.469 158.594V161.094C105.062 161.156 104.375 161.219 103.594 161.219C101.344 161.219 98.9375 159.812 98.9375 156.812V146.281H96.375V144.031H98.9375V139.969H101.656V144.031H105.219ZM111.75 150.812V161H109.062V138.375H111.75V146.688H111.969C112.75 144.938 114.281 143.812 116.969 143.812C120.438 143.812 122.75 145.875 122.75 150.219V161H120.062V150.406C120.062 147.75 118.594 146.219 116.156 146.219C113.625 146.219 111.75 147.875 111.75 150.812ZM142.5 144.031V146.281H138.938V156.125C138.938 158.312 140 158.656 141.156 158.656C141.656 158.656 142.344 158.625 142.75 158.594V161.094C142.344 161.156 141.656 161.219 140.875 161.219C138.625 161.219 136.219 159.812 136.219 156.812V146.281H133.656V144.031H136.219V139.969H138.938V144.031H142.5ZM152.719 161.344C148.094 161.344 144.969 157.875 144.969 152.594C144.969 147.312 148.094 143.812 152.719 143.812C157.312 143.812 160.406 147.312 160.406 152.594C160.406 157.875 157.312 161.344 152.719 161.344ZM152.719 158.969C156.125 158.969 157.719 155.969 157.719 152.594C157.719 149.219 156.125 146.188 152.719 146.188C149.25 146.188 147.656 149.219 147.656 152.594C147.656 155.969 149.25 158.969 152.719 158.969ZM178.906 161.344C174.094 161.344 171.156 157.688 171.156 152.594C171.156 147.438 174.219 143.812 178.844 143.812C182.469 143.812 185.156 145.938 185.594 149.156H182.906C182.531 147.594 181.156 146.188 178.906 146.188C175.875 146.188 173.844 148.688 173.844 152.5C173.844 156.438 175.812 158.938 178.906 158.938C180.906 158.938 182.438 157.875 182.906 156H185.594C185.156 159.031 182.688 161.344 178.906 161.344ZM188.094 156.188C188.094 152.281 191.531 151.406 194.469 151.188C195.547 151.109 198.297 150.969 199.062 150.938V149.562C199.062 147.406 197.781 146.156 195.219 146.156C193.062 146.156 191.781 147.156 191.406 148.438H188.594C188.938 145.719 191.594 143.812 195.344 143.812C197.562 143.812 201.719 144.469 201.719 149.812V161H199.062V158.688H198.938C198.375 159.844 196.812 161.406 193.875 161.406C190.656 161.406 188.094 159.5 188.094 156.188ZM190.781 156.312C190.781 158.094 192.281 159 194.344 159C197.375 159 199.062 156.969 199.062 154.844V153.125L194.781 153.438C192.344 153.594 190.781 154.469 190.781 156.312ZM213.438 144.031V146.281H209.875V156.125C209.875 158.312 210.938 158.656 212.094 158.656C212.594 158.656 213.281 158.625 213.688 158.594V161.094C213.281 161.156 212.594 161.219 211.812 161.219C209.562 161.219 207.156 159.812 207.156 156.812V146.281H204.594V144.031H207.156V139.969H209.875V144.031H213.438Z" fill="#7B6C6C"/>
<path fill-rule="evenodd" clip-rule="evenodd" d="M528.362 342.023C530.434 341.792 532.298 343.308 532.526 345.409C532.791 347.844 533.465 351.837 534.603 355.712C535.792 359.761 537.286 362.958 538.824 364.474C540.569 366.196 542.38 367.549 544.006 368.569C544.277 367.363 544.681 366.048 545.253 364.637C546.139 362.452 547.058 360.518 547.874 358.943C549.087 356.604 551.422 355.78 553.365 355.947C555.24 356.108 557.149 357.183 558.202 359.112C559.616 361.699 562.001 364.515 565.518 365.902C566.263 366.196 566.982 366.447 567.671 366.66C566.718 365.202 565.945 363.565 565.587 361.797C565.073 359.262 564.945 357.153 565.029 355.482C565.108 353.932 565.385 352.466 565.927 351.396C566.88 349.516 569.155 348.775 571.009 349.741C572.82 350.685 573.559 352.91 572.704 354.765C572.705 354.762 572.706 354.761 572.707 354.761C572.713 354.764 572.608 355.096 572.568 355.875C572.52 356.831 572.582 358.288 572.981 360.255C573.306 361.861 574.837 363.902 576.97 365.773C578.543 367.154 579.36 369.319 578.848 371.449C578.273 373.84 576.171 375.477 573.619 375.403C570.733 375.319 567.014 374.707 562.78 373.037C558.39 371.304 555.272 368.282 553.18 365.345C552.865 366.04 552.548 366.776 552.235 367.548C551.639 369.017 551.337 370.234 551.196 371.173C550.904 373.123 549.74 374.756 548.392 375.753C547.055 376.742 544.677 377.656 542.246 376.361C539.723 375.017 536.571 372.932 533.56 369.962C530.533 366.975 528.604 362.103 527.368 357.897C526.082 353.517 525.329 349.066 525.023 346.247C524.795 344.146 526.29 342.255 528.362 342.023Z" fill="white"/>
<path d="M551 412.774C551 417.317 548.234 421 545.5 421C542.766 421 540 417.317 540 412.774C540 408.231 541.65 404 546.05 404C549.35 404 551 408.231 551 412.774Z" fill="white"/>
<path d="M529.159 423.728C529.323 425.93 525.73 432.396 520.73 432.764C515.73 433.132 511.216 427.261 511.052 425.06C510.887 422.859 513.626 420.864 518.627 420.496C523.627 420.128 528.994 421.527 529.159 423.728Z" fill="white"/>
<path d="M504 412.774C504 417.317 500.982 421 498 421C495.018 421 492 417.317 492 412.774C492 408.231 493.8 404 498.6 404C502.2 404 504 408.231 504 412.774Z" fill="white"/>
<path fill-rule="evenodd" clip-rule="evenodd" d="M488.419 280.598C480.982 274.015 473.09 270.102 467.001 270.549C466.779 270.565 466.318 270.666 465.607 271.521C464.854 272.424 464.052 273.918 463.292 276.117C461.777 280.5 460.747 286.731 460.107 293.959C458.834 308.343 459.182 325.672 459.654 337.67C459.736 339.744 458.11 341.49 456.023 341.571C453.936 341.652 452.177 340.037 452.096 337.964C451.621 325.915 451.254 308.187 452.572 293.301C453.227 285.894 454.319 278.936 456.137 273.677C457.044 271.055 458.21 268.614 459.778 266.732C461.386 264.801 463.595 263.265 466.443 263.056C475.7 262.376 485.606 268.044 493.451 274.988C501.423 282.044 508.25 291.279 511.158 299.353C513.063 304.641 515.543 314.845 517.129 321.849C524.666 318.945 537.813 315.274 552.972 314.899C570.45 314.465 598.057 319.673 611.985 322.813C616.765 314.552 623.931 303.302 631.491 293.685C635.656 288.387 640.028 283.471 644.262 279.815C648.326 276.305 652.935 273.355 657.513 273.193C662.883 273.002 667.055 275.448 670.072 279.003C672.996 282.448 674.921 286.999 676.197 291.542C678.748 300.625 679.057 310.976 678.457 316.258C678.023 320.075 676.891 325.09 675.8 329.919C675.452 331.463 675.107 332.989 674.791 334.449C674.118 337.564 673.558 340.437 673.265 342.839C672.953 345.4 673.027 346.853 673.206 347.444C673.859 349.603 674.391 351.047 674.743 351.919C674.918 352.355 675.049 352.647 675.127 352.814C675.165 352.898 675.191 352.949 675.202 352.972C675.204 352.976 675.207 352.982 675.207 352.982C676.171 354.807 675.473 357.066 673.639 358.039C671.797 359.017 669.505 358.326 668.521 356.496L671.857 354.725C668.521 356.496 668.521 356.496 668.521 356.496L668.519 356.493L668.514 356.482L668.505 356.466L668.484 356.426C668.469 356.396 668.45 356.359 668.428 356.316C668.384 356.228 668.328 356.113 668.26 355.967C668.125 355.676 667.943 355.264 667.721 354.714C667.277 353.613 666.672 351.957 665.961 349.607C665.287 347.38 665.438 344.536 665.755 341.936C666.092 339.177 666.713 336.027 667.395 332.871C667.758 331.196 668.134 329.528 668.502 327.897C669.564 323.189 670.557 318.789 670.94 315.415C671.44 311.019 671.181 301.644 668.91 293.561C667.776 289.521 666.226 286.129 664.289 283.847C662.445 281.675 660.37 280.61 657.782 280.702C655.995 280.765 653.11 282.131 649.225 285.486C645.51 288.694 641.478 293.19 637.453 298.31C629.418 308.532 621.764 320.785 617.186 328.939L615.791 331.423L613.006 330.763C600.312 327.757 570.807 321.973 553.161 322.41C535.574 322.846 520.959 328.064 516.107 330.47L511.734 332.638L510.718 327.889C509.381 321.639 506.208 307.917 504.036 301.884C501.666 295.305 495.729 287.068 488.419 280.598ZM456.777 342.623C458.806 343.118 460.046 345.153 459.548 347.168C457.125 356.964 454.021 370.92 454.021 391.924C454.021 403.642 454.572 412.403 455.118 418.205C455.391 421.106 455.662 423.268 455.863 424.691C455.963 425.402 456.046 425.928 456.102 426.27C456.13 426.441 456.151 426.566 456.165 426.644L456.18 426.727L456.183 426.741L456.183 426.743L456.574 428.82L454.987 430.23C452.897 432.089 450.719 434.194 448.548 436.506C447.123 438.024 444.73 438.106 443.202 436.691C441.675 435.276 441.592 432.899 443.016 431.381C444.822 429.458 446.635 427.665 448.412 426.02C448.399 425.927 448.385 425.832 448.371 425.733C448.155 424.197 447.87 421.92 447.586 418.904C447.019 412.87 446.457 403.877 446.457 391.924C446.457 370.093 449.699 355.493 452.202 345.375C452.7 343.36 454.749 342.128 456.777 342.623ZM673.919 357.997C675.86 357.231 678.059 358.173 678.83 360.102C679.682 362.231 680.752 364.61 681.92 367.206C686.364 377.083 692.23 390.119 692.904 404.654C694.359 436.045 678.892 457.044 675.455 461.711C675.242 462 675.075 462.226 674.962 462.389C673.768 464.092 671.411 464.512 669.697 463.327C667.982 462.142 667.559 459.8 668.752 458.097C668.873 457.925 669.044 457.692 669.259 457.399C672.617 452.83 686.678 433.694 685.347 405C684.747 392.049 679.701 380.788 675.311 370.99C674.045 368.165 672.834 365.463 671.8 362.876C671.029 360.947 671.977 358.763 673.919 357.997Z" fill="white"/>
<path d="M512.063 333.545C502.207 321.934 520.865 322.294 531.426 323.926L579.245 335.153C570.362 337.243 563.957 344.731 551.004 345.336C537.292 345.977 517.132 339.516 512.063 333.545Z" fill="#FFE99C"/>
<path d="M577.8 276.688C577.725 279.828 574.237 283.067 570.669 282.981C567.101 282.896 564.289 279.506 564.364 276.367C564.439 273.227 567.374 271.527 570.941 271.612C574.509 271.697 577.876 273.549 577.8 276.688Z" fill="#FFE99C"/>
<path d="M618.234 315.662C621.369 339.264 600.584 337.991 572.471 337.318C544.358 336.645 522.394 335.137 518.814 310.697C515.927 290.979 540.12 276.045 568.234 276.718C596.347 277.391 615.168 292.578 618.234 315.662Z" fill="#FFE99C"/>
<path d="M551.799 279.686C545.691 282.814 533.557 292.176 533.88 304.594C534.203 317.012 538.569 328.32 540.712 332.421" stroke="white" stroke-opacity="0.4" stroke-width="2"/>
<path d="M567.61 277.996C563.35 283.151 556.463 300.834 556.262 309.266C555.946 322.444 557.206 334.626 557.206 334.626" stroke="white" stroke-opacity="0.4" stroke-width="2"/>
<path d="M578.961 279.043C585.207 284.536 592.758 296.696 596.134 306.86C599.021 315.549 595.448 335.541 595.448 335.541" stroke="white" stroke-opacity="0.4" stroke-width="2"/>
<path d="M536.43 284.489C541.253 288.224 555.488 291.926 567.246 293.241C579.004 294.557 591.188 290.281 596.636 285.93" stroke="white" stroke-opacity="0.4" stroke-width="2"/>
<path d="M519.651 305.029C527.468 309.697 568.102 317.978 584.236 317.951C600.369 317.923 607.098 313.327 614.266 305.484" stroke="white" stroke-opacity="0.4" stroke-width="2"/>
<path d="M529.442 328.015C527.625 328.316 523.415 329.215 521.111 330.401C518.808 331.587 515.077 334.049 513.5 335.131" stroke="white" stroke-opacity="0.4" stroke-width="2"/>
<path d="M537.359 332.083C535.71 332.56 532.091 333.973 530.806 335.804C529.521 337.635 528.277 340.656 527.815 341.937" stroke="white" stroke-opacity="0.4" stroke-width="2"/>
<path d="M548.674 334.68C547.962 335.611 546.576 338.095 546.723 340.58C546.87 343.066 547.399 344.733 547.645 345.256" stroke="white" stroke-opacity="0.4" stroke-width="2"/>
<path d="M516.356 323.824C516.362 327.185 518.689 334.376 527.951 336.253C537.214 338.129 556.546 340.557 565.055 341.536" stroke="white" stroke-opacity="0.4" stroke-width="2"/>
<path d="M512.063 333.545L509.776 335.487L509.776 335.487L512.063 333.545ZM551.003 345.336L551.143 348.333L551.003 345.336ZM576.573 337.922C578.096 337.27 578.803 335.507 578.151 333.984C577.499 332.46 575.736 331.754 574.213 332.406L576.573 337.922ZM509.776 335.487C511.428 337.433 514.06 339.174 516.995 340.67C519.998 342.199 523.588 343.607 527.407 344.786C535.006 347.133 543.834 348.674 551.143 348.333L550.863 342.339C544.461 342.639 536.353 341.27 529.177 339.054C525.609 337.952 522.351 336.664 519.719 335.324C517.021 333.949 515.232 332.643 514.35 331.604L509.776 335.487ZM525.928 319.66C523.314 319.503 520.545 319.522 517.971 319.806C515.442 320.086 512.883 320.643 510.83 321.696C508.758 322.758 506.724 324.607 506.462 327.544C506.221 330.258 507.614 332.94 509.776 335.487L514.35 331.604C512.538 329.47 512.412 328.374 512.439 328.076C512.446 328 512.466 327.6 513.567 327.035C514.686 326.461 516.418 326.014 518.629 325.77C520.794 325.531 523.213 325.508 525.569 325.649L525.928 319.66ZM551.143 348.333C557.162 348.052 561.987 346.03 566.08 343.807C568.093 342.714 570.011 341.524 571.716 340.508C573.47 339.464 575.04 338.578 576.573 337.922L574.213 332.406C572.288 333.229 570.429 334.292 568.647 335.353C566.816 336.443 565.09 337.517 563.217 338.534C559.539 340.532 555.626 342.117 550.863 342.339L551.143 348.333Z" fill="white"/>
<path d="M577.442 277.714C577.517 274.575 574.509 271.698 570.941 271.612C567.374 271.527 564.351 273.742 564.276 276.882" stroke="white" stroke-width="6"/>
<path d="M615.26 316.057C615.992 321.568 615.26 325.141 613.799 327.534C612.358 329.895 609.915 331.584 606.192 332.725C602.427 333.878 597.616 334.386 591.843 334.539C586.804 334.672 581.217 334.533 575.158 334.383C574.296 334.362 573.424 334.34 572.543 334.319C558.366 333.98 546.381 333.417 537.488 330.109C533.124 328.485 529.646 326.245 527.056 323.148C524.472 320.058 522.612 315.927 521.783 310.262C520.562 301.925 524.964 294.27 533.559 288.56C542.162 282.843 554.608 279.393 568.162 279.717C581.703 280.041 592.774 283.853 600.772 290.144C608.742 296.413 613.827 305.267 615.26 316.057Z" stroke="white" stroke-width="6"/>
<path d="M579.699 302.574C583.927 310.048 584.086 327.29 583.637 334.978C587.6 335.194 596.949 335.461 601.219 334.892C607.818 334.011 613.111 332.242 616.482 330.861C619.075 329.799 620.629 327.228 620.334 324.441C619.697 318.408 617.736 309.579 613.959 299.59C607.868 283.481 585.457 275.681 578.21 280.059C572.971 283.223 574.415 293.232 579.699 302.574Z" fill="#FFE99C" stroke="white" stroke-width="6"/>
<path d="M532.502 299.242C527.219 306.196 525.764 320.387 527.39 325.065C525.708 321.348 520.295 318.92 520.224 309.027C520.049 284.631 559.742 276.98 562.436 279.673C567.602 284.838 540.254 289.038 532.502 299.242Z" fill="#FFE99C" stroke="white" stroke-width="6"/>
<defs>
<linearGradient id="paint0_linear_52_1361" x1="103.129" y1="-26.5" x2="487.041" y2="483.293" gradientUnits="userSpaceOnUse">
<stop stop-color="#FFCB7A"/>
<stop offset="1" stop-color="#FFDB5A"/>
</linearGradient>
</defs>
</svg>
