<svg width="704" height="178" viewBox="0 0 704 178" fill="none" xmlns="http://www.w3.org/2000/svg">
<path d="M61.2368 129.575H78.2361L79.1308 43.811C76.7876 43.811 74.2952 43.8323 71.6537 43.8749C69.0548 43.9175 66.2428 43.9389 63.2179 43.9389V41.5743C68.0748 41.5317 72.4845 41.4891 76.4467 41.4465C80.409 41.4039 83.9665 41.3826 87.1193 41.3826C90.3146 41.34 93.1052 41.3186 95.4911 41.3186C97.9196 41.3186 100.029 41.3186 101.818 41.3186H111.085C112.576 41.3186 114.642 41.4252 117.284 41.6382C119.925 41.8512 122.78 42.2986 125.847 42.9802C128.915 43.6619 132.025 44.6418 135.178 45.92C138.373 47.1981 141.249 48.881 143.805 50.9687C146.361 53.0563 148.449 55.6552 150.068 58.7654C151.73 61.8329 152.56 65.4969 152.56 69.7574C152.56 75.3387 151.538 79.9613 149.493 83.6253C147.448 87.2894 144.444 90.2078 140.482 92.3807C136.52 94.5535 131.599 96.0873 125.719 96.982C119.882 97.8341 113.13 98.2601 105.461 98.2601H101.946L101.435 129.575H117.667V131.875H61.2368V129.575ZM129.937 69.6296C129.937 65.9656 129.618 62.7915 128.979 60.1074C128.34 57.4233 127.424 55.1439 126.231 53.2693C125.08 51.3947 123.674 49.8609 122.013 48.668C120.394 47.4751 118.562 46.5378 116.517 45.8561C114.514 45.1744 112.341 44.7057 109.998 44.4501C107.655 44.1945 105.226 44.0241 102.713 43.9389L101.946 95.3843C105.439 95.0009 108.507 94.3618 111.148 93.4671C113.833 92.5298 116.155 91.422 118.114 90.1439C120.074 88.8657 121.714 87.4811 123.035 85.9899C124.399 84.4561 125.528 82.9224 126.422 81.3886C128.467 77.8098 129.639 73.8901 129.937 69.6296ZM204.389 133.345C205.327 133.26 206.221 132.791 207.073 131.939C207.798 131.215 208.543 130.065 209.31 128.488C210.077 126.869 210.716 124.569 211.227 121.586L213.592 121.842C212.996 125.378 212.186 128.084 211.163 129.958C210.184 131.833 209.182 133.196 208.16 134.048C206.967 135.071 205.71 135.625 204.389 135.71C203.367 135.71 202.046 135.561 200.427 135.263C198.851 134.964 197.274 134.432 195.698 133.665C194.122 132.941 192.673 131.961 191.352 130.725C190.031 129.49 189.115 127.913 188.604 125.996C186.857 128.936 184.514 131.322 181.574 133.154C178.635 135.028 175.29 135.965 171.541 135.965C169.666 135.965 167.77 135.752 165.853 135.326C163.936 134.9 162.168 134.197 160.549 133.217C158.972 132.238 157.673 130.959 156.65 129.383C155.671 127.764 155.181 125.762 155.181 123.376C155.181 120.393 155.756 117.816 156.906 115.643C158.099 113.427 159.675 111.595 161.635 110.147C163.595 108.656 165.832 107.548 168.346 106.824C170.859 106.099 173.458 105.737 176.142 105.737C177.974 105.737 179.742 105.95 181.447 106.376C183.193 106.802 184.961 107.548 186.751 108.613C186.836 106.44 187.007 104.267 187.262 102.095C187.56 99.9217 187.816 97.898 188.029 96.0234C188.157 94.9156 188.242 94.0209 188.285 93.3393C188.37 92.6576 188.434 92.1037 188.476 91.6777C188.519 91.2516 188.54 90.9321 188.54 90.7191C188.583 90.506 188.604 90.3143 188.604 90.1439C188.604 86.2668 187.901 83.178 186.495 80.8773C185.089 78.5767 183.215 77.4263 180.871 77.4263C179.764 77.5115 178.635 77.7033 177.484 78.0015C176.334 78.2997 175.29 78.7258 174.353 79.2796C173.416 79.7909 172.649 80.4513 172.052 81.2608C171.456 82.0277 171.157 82.9437 171.157 84.0088C171.157 85.1591 171.52 86.0751 172.244 86.7568C172.968 87.3959 173.756 88.0563 174.608 88.7379C175.503 89.377 176.313 90.1226 177.037 90.9747C177.761 91.8268 178.123 92.9984 178.123 94.4896C178.123 96.066 177.868 97.3867 177.356 98.4519C176.888 99.4744 176.249 100.305 175.439 100.944C174.63 101.583 173.714 102.052 172.691 102.35C171.669 102.606 170.646 102.734 169.624 102.734C168.559 102.734 167.493 102.563 166.428 102.222C165.406 101.839 164.468 101.264 163.616 100.497C162.807 99.73 162.125 98.7288 161.571 97.4932C161.06 96.2577 160.804 94.7665 160.804 93.0197C160.804 90.6765 161.38 88.4397 162.53 86.3095C163.68 84.1792 165.193 82.3046 167.067 80.6856C168.942 79.0666 171.072 77.7672 173.458 76.7873C175.844 75.7647 178.272 75.2109 180.744 75.1257C183.044 75.1257 185.537 75.5943 188.221 76.5316C190.947 77.4689 193.482 79.0666 195.826 81.3247C198.212 83.5827 200.193 86.6077 201.769 90.3995C203.345 94.1914 204.134 98.9418 204.134 104.651C204.134 107.335 204.027 109.891 203.814 112.32C203.644 114.748 203.452 117.006 203.239 119.094C203.026 121.139 202.813 123.014 202.6 124.718C202.429 126.422 202.344 127.892 202.344 129.127C202.344 130.363 202.451 131.343 202.664 132.067C202.919 132.791 203.409 133.217 204.134 133.345H204.389ZM187.518 122.609C187.262 121.16 187.07 119.648 186.943 118.071C186.815 116.452 186.751 114.833 186.751 113.214V111.489C185.558 110.509 184.258 109.785 182.853 109.316C181.489 108.847 180.254 108.613 179.146 108.613C176.462 108.613 174.417 109.721 173.011 111.936C171.605 114.152 170.902 117.092 170.902 120.756C170.902 122.289 171.051 123.717 171.349 125.037C171.69 126.358 172.137 127.508 172.691 128.488C173.288 129.426 173.991 130.171 174.8 130.725C175.652 131.236 176.59 131.492 177.612 131.492C178.635 131.492 179.615 131.236 180.552 130.725C181.532 130.214 182.448 129.553 183.3 128.744C184.152 127.892 184.94 126.933 185.664 125.868C186.389 124.803 187.007 123.717 187.518 122.609ZM217.299 81.6442L223.625 81.5164C223.838 78.2358 224.073 74.657 224.328 70.78C224.584 66.8603 224.946 62.4933 225.415 57.6789H245.737L243.628 81.0051L255.004 80.7495V83.0502L243.373 83.3697C242.776 89.6752 242.137 96.0234 241.456 102.414C240.817 108.805 240.497 115.366 240.497 122.098C240.497 125.378 240.731 127.871 241.2 129.575C241.711 131.279 242.563 132.238 243.756 132.451H244.395C246.483 132.195 248.358 131.215 250.019 129.511C250.701 128.787 251.383 127.871 252.064 126.763C252.746 125.612 253.342 124.228 253.854 122.609C254.365 120.947 254.77 119.009 255.068 116.793C255.366 114.535 255.515 111.936 255.515 108.997H257.88C257.88 112.235 257.688 115.089 257.305 117.56C256.964 119.989 256.474 122.119 255.835 123.951C255.196 125.74 254.471 127.253 253.662 128.488C252.852 129.724 252.022 130.746 251.17 131.556C249.167 133.431 246.909 134.496 244.395 134.751C241.243 134.751 238.495 134.41 236.151 133.729C233.851 133.09 231.869 132.174 230.208 130.981C228.589 129.83 227.247 128.467 226.182 126.891C225.159 125.272 224.35 123.525 223.753 121.65C223.199 119.776 222.816 117.794 222.603 115.707C222.39 113.619 222.283 111.51 222.283 109.38C222.283 105.418 222.411 101.392 222.667 97.3015C222.922 93.2115 223.199 88.7379 223.498 83.881L217.299 84.0088V81.6442ZM260.18 41.4465L292.262 40.5518L291.559 91.8694C292.198 90.2078 293.008 88.4823 293.987 86.6929C294.967 84.9035 296.096 83.2419 297.375 81.7081C298.695 80.1743 300.187 78.8749 301.848 77.8098C303.51 76.7446 305.363 76.1056 307.408 75.8925C309.837 75.8925 312.116 76.3399 314.246 77.2346C316.376 78.0867 318.315 79.2796 320.062 80.8134C321.851 82.3046 323.427 84.0727 324.791 86.1177C326.197 88.1628 327.368 90.3356 328.306 92.6363C329.243 94.937 329.925 97.3015 330.351 99.73C330.777 102.116 330.947 104.459 330.862 106.76C330.819 109.146 330.756 111.595 330.67 114.109C330.585 116.282 330.479 118.689 330.351 121.331C330.266 123.93 330.138 126.486 329.967 129L338.978 129.127V131.492L303.51 130.725V128.361L310.412 128.488C310.966 122.779 311.306 117.07 311.434 111.361C311.562 105.609 311.498 99.7939 311.242 93.9144C311.285 91.2303 311.242 88.9297 311.115 87.0124C311.029 85.0952 310.774 83.5188 310.348 82.2833C309.964 81.0051 309.41 80.0678 308.686 79.4714C308.005 78.8749 307.11 78.5554 306.002 78.5128C305.278 78.7258 304.298 79.1518 303.062 79.7909C301.869 80.43 300.591 81.5377 299.228 83.1141C297.865 84.6905 296.48 86.8207 295.074 89.5048C293.711 92.1889 292.496 95.6399 291.431 99.8578L291.048 128.361H297.758V130.725H264.526V128.361H270.278L271.556 43.5554L260.18 43.811V41.4465Z" fill="#FFB941"/>
<path d="M376.459 102.063L380.255 101.986C380.383 100.018 380.524 97.8707 380.677 95.5445C380.83 93.1927 381.048 90.5725 381.329 87.6839H393.522L392.257 101.68L399.082 101.526V102.907L392.104 103.098C391.746 106.882 391.362 110.691 390.953 114.525C390.57 118.359 390.378 122.296 390.378 126.335C390.378 128.303 390.519 129.799 390.8 130.821C391.107 131.844 391.618 132.419 392.334 132.547H392.717C393.97 132.393 395.094 131.806 396.091 130.783C396.5 130.348 396.909 129.799 397.318 129.134C397.727 128.444 398.085 127.613 398.392 126.642C398.699 125.645 398.942 124.482 399.121 123.152C399.3 121.798 399.389 120.238 399.389 118.474H400.808C400.808 120.417 400.693 122.13 400.463 123.613C400.258 125.07 399.964 126.348 399.581 127.447C399.197 128.521 398.763 129.428 398.277 130.17C397.791 130.911 397.293 131.524 396.782 132.01C395.58 133.135 394.225 133.774 392.717 133.927C390.825 133.927 389.177 133.723 387.771 133.314C386.39 132.93 385.202 132.381 384.205 131.665C383.233 130.975 382.428 130.157 381.789 129.211C381.175 128.24 380.69 127.191 380.332 126.067C379.999 124.942 379.769 123.753 379.642 122.501C379.514 121.248 379.45 119.983 379.45 118.705C379.45 116.327 379.527 113.911 379.68 111.457C379.833 109.003 379.999 106.319 380.178 103.405L376.459 103.482V102.063ZM441.223 117.516C441.223 119.28 440.916 120.929 440.303 122.462C439.715 123.97 438.909 125.364 437.887 126.642C436.89 127.894 435.74 129.019 434.436 130.016C433.158 130.988 431.816 131.806 430.41 132.47C429.029 133.16 427.649 133.684 426.268 134.042C424.888 134.4 423.61 134.579 422.434 134.579H422.051C420.875 134.554 419.622 134.362 418.293 134.004C416.989 133.646 415.685 133.122 414.382 132.432C413.104 131.767 411.876 130.936 410.701 129.939C409.55 128.942 408.528 127.779 407.633 126.45C406.738 125.095 406.023 123.587 405.486 121.925C404.949 120.238 404.681 118.385 404.681 116.366C404.681 114.295 405 112.403 405.639 110.691C406.278 108.952 407.109 107.406 408.132 106.051C409.18 104.696 410.355 103.52 411.659 102.523C412.988 101.526 414.318 100.695 415.647 100.031C417.002 99.3661 418.293 98.8805 419.52 98.5737C420.772 98.2414 421.859 98.0752 422.779 98.0752H423.086C424.645 98.1263 426.179 98.4075 427.687 98.9188C429.195 99.4045 430.614 100.082 431.943 100.951C433.298 101.82 434.538 102.855 435.663 104.057C436.813 105.233 437.797 106.537 438.615 107.968C439.433 109.4 440.072 110.921 440.533 112.531C440.993 114.142 441.223 115.803 441.223 117.516ZM428.953 116.902C428.953 116.263 428.953 115.381 428.953 114.257C428.953 113.132 428.901 111.93 428.799 110.652C428.722 109.348 428.569 108.032 428.339 106.703C428.109 105.373 427.764 104.172 427.304 103.098C426.844 102.025 426.243 101.156 425.502 100.491C424.786 99.8007 423.878 99.4556 422.779 99.4556C420.683 99.4556 419.021 100.887 417.794 103.75C416.593 106.613 415.992 110.946 415.992 116.749C415.992 119.638 416.107 122.117 416.337 124.188C416.593 126.258 416.976 127.958 417.488 129.288C417.999 130.617 418.663 131.588 419.481 132.202C420.299 132.841 421.284 133.16 422.434 133.16H422.779C423.878 133.109 424.786 132.764 425.502 132.125C426.243 131.486 426.844 130.515 427.304 129.211C427.789 127.882 428.147 126.207 428.377 124.188C428.633 122.168 428.825 119.74 428.953 116.902Z" fill="#FFB941"/>
<path d="M469.366 129.791H484.666L485.471 52.6035C483.362 52.6035 481.119 52.6226 478.741 52.661C476.402 52.6993 473.872 52.7185 471.149 52.7185V50.5904C475.52 50.552 479.489 50.5137 483.055 50.4754C486.621 50.437 489.823 50.4178 492.66 50.4178C495.536 50.3795 498.048 50.3603 500.195 50.3603C502.381 50.3603 504.279 50.3603 505.889 50.3603H514.229C515.571 50.3603 517.431 50.4562 519.808 50.6479C522.186 50.8396 524.755 51.2422 527.515 51.8558C530.276 52.4693 533.075 53.3512 535.913 54.5015C538.789 55.6519 541.377 57.1665 543.678 59.0453C545.978 60.9242 547.857 63.2632 549.314 66.0624C550.81 68.8232 551.557 72.1208 551.557 75.9552C551.557 80.9784 550.637 85.1387 548.797 88.4364C546.956 91.734 544.253 94.3606 540.687 96.3161C537.121 98.2717 532.692 99.6521 527.4 100.457C522.147 101.224 516.07 101.608 509.168 101.608H506.004L505.544 129.791H520.153V131.861H469.366V129.791ZM531.197 75.8402C531.197 72.5426 530.909 69.6859 530.334 67.2702C529.759 64.8545 528.934 62.8031 527.861 61.1159C526.825 59.4288 525.56 58.0484 524.064 56.9747C522.607 55.9011 520.959 55.0575 519.118 54.444C517.316 53.8305 515.36 53.4087 513.251 53.1786C511.142 52.9486 508.957 52.7952 506.694 52.7185L506.004 99.0194C509.148 98.6743 511.909 98.0992 514.287 97.2939C516.702 96.4503 518.792 95.4534 520.556 94.3031C522.32 93.1527 523.796 91.9065 524.985 90.5645C526.212 89.1841 527.228 87.8037 528.033 86.4233C529.874 83.2023 530.928 79.6746 531.197 75.8402ZM601.309 102.068C601.309 104.1 600.657 105.941 599.354 107.589C598.05 109.2 596.363 110.58 594.292 111.731C592.26 112.881 589.979 113.801 587.448 114.491C584.955 115.143 582.501 115.488 580.086 115.527C579.932 115.527 579.587 115.508 579.05 115.469C578.514 115.431 577.862 115.316 577.095 115.124C576.328 114.894 575.465 114.549 574.507 114.089C573.548 113.629 572.589 112.958 571.631 112.076C571.746 115.488 572.053 118.422 572.551 120.876C573.088 123.291 573.778 125.285 574.622 126.857C575.504 128.391 576.52 129.522 577.67 130.251C578.859 130.941 580.143 131.286 581.524 131.286C582.329 131.286 583.402 131.018 584.745 130.481C586.125 129.944 587.544 129.12 589.001 128.008C590.496 126.896 591.953 125.477 593.372 123.752C594.791 122.026 595.979 119.955 596.938 117.54L598.606 113.284L600.677 113.974L599.756 116.562C598.913 118.824 597.801 120.972 596.42 123.004C595.04 125.036 593.43 126.857 591.589 128.468C589.787 130.04 587.774 131.305 585.55 132.264C583.326 133.261 580.948 133.836 578.418 133.99C574.008 133.836 570.269 133.05 567.202 131.631C564.134 130.213 561.642 128.41 559.725 126.225C557.808 124.039 556.408 121.604 555.526 118.92C554.682 116.236 554.261 113.533 554.261 110.81C554.261 109.008 554.529 107.053 555.066 104.944C555.641 102.796 556.466 100.649 557.539 98.5018C558.613 96.3161 559.916 94.2072 561.45 92.1749C563.022 90.1427 564.786 88.3405 566.742 86.7684C568.736 85.1962 570.902 83.9501 573.241 83.0298C575.619 82.0712 578.168 81.5919 580.891 81.5919C583.383 81.6686 585.607 82.052 587.563 82.7422C589.557 83.3941 591.301 84.276 592.797 85.388C594.331 86.4616 595.634 87.6886 596.708 89.069C597.782 90.4494 598.664 91.8874 599.354 93.3828C600.044 94.8399 600.542 96.3353 600.849 97.8691C601.156 99.3645 601.309 100.764 601.309 102.068ZM579.971 83.72C578.744 83.7967 577.593 84.4869 576.52 85.7906C575.484 87.0943 574.583 88.8773 573.816 91.1396C573.088 93.3636 572.513 95.9902 572.091 99.0194C571.669 102.049 571.458 105.308 571.458 108.797C572.417 109.909 573.375 110.772 574.334 111.385C575.293 111.999 576.175 112.459 576.98 112.766C577.785 113.034 578.456 113.207 578.993 113.284C579.53 113.36 579.856 113.399 579.971 113.399C581.466 113.36 582.693 113.034 583.652 112.421C584.649 111.807 585.416 110.964 585.952 109.89C586.528 108.816 586.93 107.532 587.16 106.036C587.39 104.541 587.505 102.873 587.505 101.033C587.505 98.7318 587.352 96.5462 587.045 94.4756C586.777 92.3667 586.336 90.5261 585.722 88.954C585.147 87.3435 584.38 86.0782 583.422 85.1579C582.463 84.1993 581.313 83.72 579.971 83.72ZM608.211 86.6533L613.905 86.5383C614.097 83.5858 614.308 80.3648 614.538 76.8755C614.768 73.3478 615.094 69.4175 615.516 65.0846H633.806L631.908 86.0782L642.146 85.8481V87.9187L631.678 88.2063C631.141 93.8813 630.566 99.5946 629.953 105.346C629.377 111.098 629.09 117.003 629.09 123.061C629.09 126.014 629.301 128.257 629.723 129.791C630.183 131.325 630.95 132.187 632.023 132.379H632.598C634.477 132.149 636.164 131.267 637.66 129.733C638.273 129.081 638.887 128.257 639.5 127.26C640.114 126.225 640.651 124.979 641.111 123.522C641.571 122.026 641.935 120.281 642.204 118.287C642.472 116.255 642.606 113.916 642.606 111.27H644.734C644.734 114.185 644.562 116.754 644.217 118.978C643.91 121.163 643.469 123.081 642.894 124.729C642.319 126.34 641.667 127.701 640.938 128.813C640.21 129.925 639.462 130.845 638.695 131.574C636.893 133.261 634.861 134.22 632.598 134.45C629.761 134.45 627.288 134.143 625.179 133.529C623.108 132.954 621.325 132.13 619.83 131.056C618.373 130.021 617.165 128.794 616.206 127.375C615.286 125.918 614.557 124.346 614.02 122.659C613.522 120.972 613.177 119.189 612.985 117.31C612.793 115.431 612.698 113.533 612.698 111.616C612.698 108.05 612.813 104.426 613.043 100.745C613.273 97.0639 613.522 93.0377 613.79 88.6664L608.211 88.7815V86.6533Z" fill="#FFB941"/>
<path fill-rule="evenodd" clip-rule="evenodd" d="M653.03 18.7792C651.942 22.4911 648.609 24.7819 645.585 23.896C642.561 23.0101 640.99 19.2829 642.078 15.5711C643.165 11.8593 646.498 9.56843 649.522 10.4543C652.547 11.3402 654.117 15.0674 653.03 18.7792ZM659.164 34.4271C656.943 37.1733 653.21 37.8366 650.826 35.9086C648.442 33.9806 648.311 30.1914 650.532 27.4452C652.753 24.699 656.486 24.0357 658.87 25.9637C661.253 27.8917 661.385 31.6809 659.164 34.4271ZM645.922 45.0216C643.224 52.2887 638.862 48.7489 635.268 45.8329C633.986 44.7924 632.801 43.8313 631.825 43.4689C630.368 42.9278 628.348 43.0151 626.34 43.1019C621.59 43.3072 616.912 43.5093 619.932 35.3729C623.073 26.9124 633.047 23.2014 637.765 24.9529C642.483 26.7044 649.063 36.5611 645.922 45.0216ZM619.276 27.3545C616.212 27.2599 613.811 24.4779 613.914 21.1409C614.018 17.8039 616.585 15.1754 619.65 15.27C622.714 15.3646 625.115 18.1466 625.012 21.4836C624.909 24.8207 622.341 27.4491 619.276 27.3545ZM632.313 19.406C635.416 19.955 638.425 17.613 639.033 14.1751C639.641 10.7371 637.619 7.50514 634.515 6.95621C631.412 6.40728 628.404 8.74928 627.795 12.1872C627.187 15.6251 629.21 18.8571 632.313 19.406Z" fill="#FFB941" fill-opacity="0.6"/>
<path fill-rule="evenodd" clip-rule="evenodd" d="M694.937 78.7757C692.329 80.3438 689.179 79.8925 687.901 77.7675C686.623 75.6426 687.702 72.6487 690.31 71.0806C692.918 69.5124 696.068 69.9638 697.345 72.0887C698.623 74.2137 697.545 77.2075 694.937 78.7757ZM690.144 91.1003C687.395 91.5052 684.881 89.8989 684.53 87.5124C684.178 85.1259 686.122 82.863 688.872 82.458C691.621 82.0531 694.135 83.6595 694.486 86.046C694.838 88.4325 692.894 90.6954 690.144 91.1003ZM676.836 90.171C671.4 92.9377 670.763 88.5638 670.238 84.9606L670.238 84.9606L670.238 84.9605C670.051 83.6748 669.878 82.4873 669.507 81.7573C668.952 80.6671 667.736 79.6406 666.528 78.6206C663.67 76.2069 660.855 73.8298 666.941 70.732C673.269 67.5109 681.019 70.681 682.815 74.2097C684.611 77.7383 683.164 86.9498 676.836 90.171ZM670.833 65.7428C669.11 64.0544 669.204 61.1648 671.043 59.2887C672.881 57.4127 675.769 57.2606 677.491 58.9491C679.214 60.6376 679.12 63.5272 677.281 65.4032C675.443 67.2793 672.556 67.4313 670.833 65.7428ZM682.618 68.0932C684.121 70.0652 687.11 70.314 689.295 68.6489C691.48 66.9837 692.032 64.0352 690.529 62.0632C689.026 60.0912 686.037 59.8424 683.852 61.5076C681.667 63.1727 681.115 66.1212 682.618 68.0932Z" fill="#FFB941" fill-opacity="0.6"/>
<path fill-rule="evenodd" clip-rule="evenodd" d="M691.838 33.2973C690.346 34.9269 688.061 35.2626 686.733 34.0471C685.405 32.8316 685.538 30.5252 687.03 28.8956C688.522 27.2661 690.808 26.9304 692.135 28.1458C693.463 29.3613 693.33 31.6677 691.838 33.2973ZM691.045 42.865C689.214 43.7141 687.133 43.1146 686.396 41.5259C685.659 39.9373 686.545 37.9612 688.376 37.1121C690.206 36.263 692.287 36.8626 693.024 38.4512C693.761 40.0398 692.875 42.016 691.045 42.865ZM681.59 44.9644C678.377 48.0116 677.032 45.0985 675.923 42.6988C675.527 41.8425 675.162 41.0515 674.753 40.6201C674.141 39.9757 673.084 39.512 672.032 39.0512C669.545 37.9608 667.095 36.8869 670.692 33.4751C674.432 29.9276 680.481 30.5353 682.459 32.6208C684.437 34.7064 685.33 41.4168 681.59 44.9644ZM672.372 29.1988C670.824 28.3789 670.294 26.3482 671.186 24.663C672.079 22.9779 674.057 22.2764 675.605 23.0963C677.152 23.9161 677.683 25.9469 676.79 27.632C675.898 29.3172 673.919 30.0187 672.372 29.1988ZM681.059 28.4042C682.512 29.4667 684.644 29.0231 685.822 27.4134C686.999 25.8036 686.775 23.6373 685.322 22.5747C683.869 21.5121 681.737 21.9557 680.56 23.5655C679.383 25.1753 679.606 27.3416 681.059 28.4042Z" fill="#FFB941" fill-opacity="0.6"/>
<path d="M84.9904 6.17001C85.255 5.64185 85.9921 5.59822 86.3172 6.09148L102.917 31.2783C103.283 31.8347 102.815 32.5619 102.157 32.4588L100.194 32.1511C92.0506 30.875 83.732 31.2904 75.7565 33.3714L72.3385 34.2632C71.7002 34.4297 71.1632 33.7667 71.4587 33.1769L84.9904 6.17001Z" fill="#FFD58D"/>
<path d="M147.355 14.3068C147.808 13.9277 148.502 14.1811 148.604 14.763L153.805 44.476C153.92 45.1323 153.201 45.6132 152.639 45.2565L150.96 44.1927C143.998 39.7806 136.201 36.8503 128.056 35.5845L124.566 35.0421C123.914 34.9408 123.685 34.1187 124.191 33.6953L147.355 14.3068Z" fill="#FFD58D"/>
<path fill-rule="evenodd" clip-rule="evenodd" d="M67.7802 119.937C68.2415 121.824 65.8307 123.034 64.5933 121.536L48.6364 102.22C47.2275 100.515 45.5986 99.0043 43.7922 97.7276L28.8522 87.168C27.5896 86.2756 26.1899 85.5745 24.9755 84.6175C23.6582 83.5796 22.5915 82.188 21.9367 80.5133L13.2552 58.3108C11.2937 53.2945 13.7702 47.6379 18.7865 45.6765C23.8028 43.715 29.4593 46.1915 31.4208 51.2078L40.1023 73.4102C40.6355 74.7739 41.3605 76.1046 42.5562 76.9497L57.8314 87.7462C59.0536 88.61 59.9651 89.7496 60.5412 91.0209C60.6938 91.3576 60.8756 91.6875 60.9634 92.0466L67.7802 119.937Z" fill="#FFD58D"/>
</svg>
