<svg width="516" height="464" viewBox="0 0 516 464" fill="none" xmlns="http://www.w3.org/2000/svg">
<rect width="516" height="464" rx="40" fill="url(#paint0_linear_52_1344)"/>
<path d="M71.0859 104.387C65.7578 104.387 61.5898 100.133 61.5898 92.3555C61.5898 84.3633 65.9297 80.3672 71.0859 80.3672C74.9961 80.3672 76.8438 82.6875 77.7031 84.5781H77.918V72.8906H84.2773V104H78.0039V100.262H77.7031C76.8008 102.195 74.8672 104.387 71.0859 104.387ZM73.0625 99.3164C76.2422 99.3164 78.0469 96.5234 78.0469 92.3125C78.0469 88.1016 76.2422 85.4375 73.0625 85.4375C69.8398 85.4375 68.1211 88.2305 68.1211 92.3125C68.1211 96.4375 69.8398 99.3164 73.0625 99.3164ZM99.875 104.473C92.8281 104.473 88.4453 99.6172 88.4453 92.3984C88.4453 85.1797 92.8281 80.3672 99.875 80.3672C106.922 80.3672 111.348 85.1797 111.348 92.3984C111.348 99.6172 106.922 104.473 99.875 104.473ZM99.918 99.5312C103.184 99.5312 104.859 96.4805 104.859 92.3984C104.859 88.2734 103.184 85.2227 99.918 85.2227C96.6094 85.2227 94.8906 88.2734 94.8906 92.3984C94.8906 96.4805 96.6094 99.5312 99.918 99.5312ZM125.828 113.238C119.383 113.238 115.43 110.359 115.043 105.934H121.316C121.66 107.781 123.422 108.641 125.957 108.641C128.922 108.641 130.898 107.395 130.898 104.129V99.875H130.598C129.738 101.766 127.676 103.656 123.938 103.656C118.652 103.656 114.441 99.9609 114.441 92.1836C114.441 84.2773 118.781 80.3672 123.938 80.3672C127.848 80.3672 129.738 82.6875 130.598 84.5781H130.855V80.668H137.172V104.258C137.172 110.188 132.445 113.238 125.828 113.238ZM125.914 98.8867C129.094 98.8867 130.898 96.3945 130.898 92.2695C130.898 88.1016 129.094 85.4375 125.914 85.4375C122.691 85.4375 120.973 88.2305 120.973 92.2695C120.973 96.3086 122.691 98.8867 125.914 98.8867Z" fill="#594C4C"/>
<path fill-rule="evenodd" clip-rule="evenodd" d="M298.415 357.023C300.517 356.794 302.407 358.31 302.636 360.407C302.883 362.665 303.512 366.371 304.573 369.967C305.687 373.738 307.073 376.661 308.461 378.024C309.948 379.483 311.488 380.656 312.897 381.566C313.15 380.54 313.505 379.435 313.984 378.26C314.758 376.361 315.558 374.665 316.283 373.254C317.499 370.887 319.881 370.055 321.852 370.209C323.751 370.359 325.695 371.413 326.786 373.321C328.112 375.643 330.264 378.075 333.36 379.29C333.791 379.459 334.212 379.613 334.623 379.752C333.892 378.529 333.308 377.183 333.014 375.741C332.529 373.363 332.408 371.38 332.488 369.804C332.562 368.347 332.824 366.945 333.353 365.907C334.311 364.026 336.617 363.276 338.502 364.232C340.334 365.161 341.096 367.36 340.257 369.21C340.262 369.212 340.172 369.505 340.137 370.192C340.092 371.062 340.149 372.401 340.519 374.218C340.797 375.583 342.093 377.37 344.005 379.075C345.558 380.459 346.37 382.609 345.837 384.726C345.565 385.803 344.934 386.855 343.904 387.61C342.864 388.373 341.648 388.665 340.487 388.615C337.796 388.501 334.397 387.908 330.556 386.4C326.59 384.844 323.722 382.19 321.749 379.564C321.525 380.068 321.3 380.594 321.078 381.138C320.567 382.393 320.29 383.445 320.15 384.275C319.823 386.205 318.629 387.815 317.253 388.794C315.889 389.764 313.459 390.66 311 389.325C308.669 388.059 305.819 386.149 303.091 383.471C300.204 380.639 298.384 376.046 297.227 372.126C296.018 368.031 295.311 363.871 295.023 361.235C294.794 359.137 296.313 357.251 298.415 357.023Z" fill="white"/>
<path d="M298.87 432.961C299.022 435.007 295.683 441.018 291.035 441.36C286.387 441.702 282.191 436.245 282.038 434.199C281.886 432.153 284.432 430.298 289.08 429.956C293.727 429.614 298.717 430.915 298.87 432.961Z" fill="white"/>
<path d="M276 422.742C276 426.75 273.485 430 271 430C268.515 430 266 426.75 266 422.742C266 418.733 267.5 415 271.5 415C274.5 415 276 418.733 276 422.742Z" fill="white"/>
<path d="M322 422.742C322 426.75 319.234 430 316.5 430C313.766 430 311 426.75 311 422.742C311 418.733 312.65 415 317.05 415C320.35 415 322 418.733 322 422.742Z" fill="white"/>
<path fill-rule="evenodd" clip-rule="evenodd" d="M286.923 322.25C280.309 313.898 265.925 303.644 240.847 306.483C232.76 307.398 225.018 312.054 218.239 318.755C211.423 325.493 205.308 334.559 200.463 344.898C190.79 365.537 185.906 391.851 191.124 416.062C194.858 433.385 199.705 443.327 203.873 449.037C205.486 451.247 206.999 452.824 208.304 453.945C207.366 455.405 206.469 456.901 205.624 458.428C204.615 460.25 205.289 462.538 207.131 463.536C208.972 464.535 211.282 463.867 212.291 462.045C213.611 459.66 215.078 457.349 216.638 455.137C216.672 455.091 216.705 455.045 216.737 454.998C221.041 448.922 226.045 443.593 230.646 439.507L232.236 438.095L231.845 436.02L231.845 436.018L231.842 436.005L231.829 435.93C231.816 435.858 231.796 435.743 231.77 435.586C231.719 435.271 231.642 434.785 231.549 434.127C231.364 432.812 231.112 430.811 230.859 428.125C230.353 422.753 229.842 414.637 229.842 403.778C229.842 384.33 232.719 371.411 234.966 362.339C235.466 360.32 234.218 358.282 232.179 357.788C230.14 357.293 228.082 358.528 227.582 360.546C225.255 369.941 222.24 383.504 222.24 403.778C222.24 414.871 222.762 423.22 223.289 428.823C223.553 431.625 223.818 433.74 224.02 435.169C224.026 435.212 224.032 435.254 224.038 435.295C220.286 438.775 216.34 442.983 212.694 447.722C211.949 447.01 211.044 446.011 210.035 444.628C206.667 440.016 202.148 431.142 198.559 414.492C193.751 392.185 198.233 367.54 207.359 348.065C211.914 338.347 217.556 330.066 223.611 324.081C229.703 318.059 235.945 314.613 241.711 313.96C266.417 311.164 278.354 322.574 282.409 328.951L284.245 331.839L287.327 330.312C291.797 328.099 305.324 323.272 321.605 322.869C337.945 322.464 365.305 327.819 377.09 330.607L379.847 331.259L381.258 328.841L381.26 328.839L381.262 328.835L381.263 328.832L381.265 328.829C381.276 328.812 381.297 328.777 381.328 328.728C381.39 328.629 381.492 328.47 381.635 328.259C381.922 327.837 382.371 327.209 382.987 326.447C384.22 324.92 386.101 322.877 388.651 320.87C393.722 316.88 401.423 313.032 412.125 313.6C425.437 314.307 439.014 322.837 449.535 336.134C460.011 349.373 467.053 366.867 467.555 384.546C467.648 387.816 467.765 391.107 467.881 394.398C468.358 407.854 468.834 421.296 467.699 433.224C467.502 435.293 469.037 437.129 471.127 437.324C473.217 437.518 475.071 435.999 475.268 433.93C476.454 421.467 475.953 407.389 475.473 393.897C475.358 390.665 475.244 387.468 475.155 384.334C474.602 364.903 466.906 345.883 455.52 331.493C444.18 317.16 428.772 306.946 412.532 306.085C399.594 305.398 390.117 310.102 383.921 314.978C380.837 317.404 378.562 319.873 377.048 321.748C376.776 322.084 376.529 322.402 376.305 322.698C363.378 319.785 337.692 314.942 321.415 315.345C306.528 315.713 293.724 319.49 286.923 322.25ZM399.588 364.997C401.688 364.997 403.39 366.681 403.39 368.76C403.39 371.047 403.081 373.259 402.674 375.578C402.49 376.625 402.302 377.613 402.107 378.645C401.833 380.085 401.544 381.608 401.227 383.49C400.204 389.569 399.168 397.986 399.168 411.096C399.168 424.165 403.486 435.83 410.646 445.526C411.885 447.203 411.515 449.558 409.82 450.784C408.125 452.011 405.747 451.645 404.508 449.967C396.47 439.081 391.565 425.881 391.565 411.096C391.565 397.549 392.64 388.718 393.728 382.253C394.038 380.411 394.378 378.613 394.675 377.036C394.869 376.01 395.045 375.078 395.184 374.289C395.568 372.101 395.787 370.393 395.787 368.76C395.787 366.681 397.489 364.997 399.588 364.997Z" fill="white"/>
<path d="M277.844 335.35C268.848 324.753 285.876 325.082 295.514 326.571L339.156 336.818C331.048 338.725 325.203 345.559 313.381 346.111C300.868 346.696 282.469 340.8 277.844 335.35Z" fill="#FFE99C"/>
<path d="M337.836 283.461C337.768 286.326 334.584 289.282 331.328 289.204C328.072 289.126 325.505 286.033 325.574 283.168C325.642 280.302 328.321 278.75 331.577 278.828C334.833 278.906 337.905 280.596 337.836 283.461Z" fill="#FFE99C"/>
<path d="M374.738 319.03C377.599 340.57 358.63 339.408 332.973 338.794C307.316 338.18 287.271 336.804 284.004 314.498C281.369 296.503 303.449 282.874 329.106 283.488C354.763 284.102 371.94 297.963 374.738 319.03Z" fill="#FFE99C"/>
<path d="M314.107 286.197C308.533 289.052 297.459 297.596 297.754 308.929C298.049 320.262 302.034 330.582 303.989 334.325" stroke="white" stroke-opacity="0.4" stroke-width="2"/>
<path d="M328.538 284.655C324.651 289.359 318.366 305.497 318.181 313.193C317.894 325.22 319.043 336.337 319.043 336.337" stroke="white" stroke-opacity="0.4" stroke-width="2"/>
<path d="M338.896 285.61C344.597 290.623 351.488 301.721 354.57 310.997C357.204 318.927 353.943 337.172 353.943 337.172" stroke="white" stroke-opacity="0.4" stroke-width="2"/>
<path d="M300.083 290.58C304.485 293.989 317.475 297.367 328.206 298.568C338.937 299.769 350.057 295.866 355.029 291.896" stroke="white" stroke-opacity="0.4" stroke-width="2"/>
<path d="M284.769 309.326C291.903 313.586 328.987 321.144 343.711 321.119C358.435 321.093 364.576 316.899 371.118 309.741" stroke="white" stroke-opacity="0.4" stroke-width="2"/>
<path d="M293.704 330.304C292.046 330.578 288.203 331.399 286.101 332.481C283.999 333.563 280.595 335.81 279.155 336.798" stroke="white" stroke-opacity="0.4" stroke-width="2"/>
<path d="M300.929 334.016C299.424 334.452 296.121 335.741 294.949 337.412C293.776 339.083 292.641 341.84 292.219 343.01" stroke="white" stroke-opacity="0.4" stroke-width="2"/>
<path d="M311.256 336.387C310.606 337.236 309.341 339.503 309.475 341.771C309.61 344.039 310.092 345.561 310.317 346.038" stroke="white" stroke-opacity="0.4" stroke-width="2"/>
<path d="M281.763 326.478C281.768 329.546 283.892 336.109 292.345 337.821C300.798 339.534 318.442 341.749 326.207 342.643" stroke="white" stroke-opacity="0.4" stroke-width="2"/>
<path d="M277.843 335.351L275.556 337.292L275.556 337.292L277.843 335.351ZM313.381 346.111L313.521 349.108L313.381 346.111ZM336.821 339.586C338.344 338.934 339.05 337.171 338.398 335.648C337.746 334.124 335.983 333.418 334.46 334.07L336.821 339.586ZM275.556 337.292C277.098 339.108 279.536 340.716 282.226 342.086C284.982 343.49 288.273 344.78 291.769 345.86C298.723 348.008 306.812 349.421 313.521 349.108L313.241 343.115C307.438 343.386 300.07 342.144 293.54 340.127C290.294 339.125 287.335 337.955 284.95 336.74C282.497 335.491 280.901 334.317 280.13 333.409L275.556 337.292ZM290.512 322.416C288.116 322.273 285.574 322.29 283.206 322.551C280.884 322.808 278.513 323.321 276.598 324.303C274.665 325.294 272.721 327.045 272.471 329.85C272.241 332.433 273.567 334.949 275.556 337.292L280.13 333.409C278.492 331.479 278.433 330.549 278.447 330.382C278.451 330.346 278.453 330.31 278.529 330.218C278.629 330.096 278.862 329.885 279.336 329.642C280.316 329.14 281.861 328.736 283.864 328.515C285.822 328.299 288.015 328.278 290.154 328.406L290.512 322.416ZM313.521 349.108C319.069 348.849 323.513 346.985 327.266 344.946C329.109 343.945 330.868 342.854 332.419 341.931C334.019 340.978 335.439 340.177 336.821 339.586L334.46 334.07C332.687 334.829 330.977 335.806 329.349 336.775C327.673 337.774 326.106 338.748 324.403 339.674C321.064 341.487 317.533 342.914 313.241 343.115L313.521 349.108Z" fill="white"/>
<path d="M337.511 284.397C337.579 281.532 334.834 278.906 331.578 278.828C328.322 278.751 325.564 280.773 325.495 283.638" stroke="white" stroke-width="6"/>
<path d="M371.764 319.425C372.427 324.42 371.758 327.613 370.466 329.728C369.195 331.811 367.031 333.322 363.671 334.351C360.269 335.393 355.907 335.856 350.646 335.995C346.054 336.116 340.962 335.99 335.432 335.853C334.645 335.834 333.849 335.814 333.045 335.795C320.096 335.485 309.205 334.969 301.138 331.969C297.186 330.499 294.055 328.477 291.727 325.693C289.405 322.917 287.724 319.195 286.973 314.064C285.878 306.588 289.815 299.69 297.606 294.513C305.405 289.331 316.708 286.192 329.034 286.487C341.347 286.782 351.393 290.248 358.639 295.947C365.857 301.625 370.465 309.643 371.764 319.425Z" stroke="white" stroke-width="6"/>
<path d="M339.57 307.085C343.428 313.906 343.573 329.642 343.164 336.658C346.78 336.855 355.312 337.099 359.209 336.579C365 335.807 369.689 334.284 372.776 333.048C375.377 332.006 376.928 329.434 376.611 326.65C375.988 321.157 374.202 313.264 370.836 304.362C365.278 289.66 344.824 282.542 338.21 286.537C333.429 289.425 334.747 298.559 339.57 307.085Z" fill="#FFE99C" stroke="white" stroke-width="6"/>
<path d="M296.496 304.044C291.675 310.391 290.347 323.342 291.831 327.611C290.296 324.219 285.356 322.003 285.291 312.975C285.131 290.71 321.356 283.727 323.815 286.185C328.53 290.899 303.571 294.731 296.496 304.044Z" fill="#FFE99C" stroke="white" stroke-width="6"/>
<path d="M62.1562 167.375V144.031H64.75V146.719H65.0625C65.625 145.812 66.6875 143.812 69.9688 143.812C74.2188 143.812 77.1875 147.188 77.1875 152.562C77.1875 157.938 74.2188 161.344 70 161.344C66.75 161.344 65.625 159.344 65.0625 158.406H64.8438V167.375H62.1562ZM64.7812 152.5C64.7812 156.312 66.5 158.938 69.625 158.938C72.8438 158.938 74.5 156.125 74.5 152.5C74.5 148.969 72.875 146.219 69.625 146.219C66.4375 146.219 64.7812 148.75 64.7812 152.5ZM79.875 156.188C79.875 152.281 83.3125 151.406 86.25 151.188C87.3281 151.109 90.0781 150.969 90.8438 150.938V149.562C90.8438 147.406 89.5625 146.156 87 146.156C84.8438 146.156 83.5625 147.156 83.1875 148.438H80.375C80.7188 145.719 83.375 143.812 87.125 143.812C89.3438 143.812 93.5 144.469 93.5 149.812V161H90.8438V158.688H90.7188C90.1562 159.844 88.5938 161.406 85.6562 161.406C82.4375 161.406 79.875 159.5 79.875 156.188ZM82.5625 156.312C82.5625 158.094 84.0625 159 86.125 159C89.1562 159 90.8438 156.969 90.8438 154.844V153.125L86.5625 153.438C84.125 153.594 82.5625 154.469 82.5625 156.312ZM105.219 144.031V146.281H101.656V156.125C101.656 158.312 102.719 158.656 103.875 158.656C104.375 158.656 105.062 158.625 105.469 158.594V161.094C105.062 161.156 104.375 161.219 103.594 161.219C101.344 161.219 98.9375 159.812 98.9375 156.812V146.281H96.375V144.031H98.9375V139.969H101.656V144.031H105.219ZM111.75 150.812V161H109.062V138.375H111.75V146.688H111.969C112.75 144.938 114.281 143.812 116.969 143.812C120.438 143.812 122.75 145.875 122.75 150.219V161H120.062V150.406C120.062 147.75 118.594 146.219 116.156 146.219C113.625 146.219 111.75 147.875 111.75 150.812ZM142.5 144.031V146.281H138.938V156.125C138.938 158.312 140 158.656 141.156 158.656C141.656 158.656 142.344 158.625 142.75 158.594V161.094C142.344 161.156 141.656 161.219 140.875 161.219C138.625 161.219 136.219 159.812 136.219 156.812V146.281H133.656V144.031H136.219V139.969H138.938V144.031H142.5ZM152.719 161.344C148.094 161.344 144.969 157.875 144.969 152.594C144.969 147.312 148.094 143.812 152.719 143.812C157.312 143.812 160.406 147.312 160.406 152.594C160.406 157.875 157.312 161.344 152.719 161.344ZM152.719 158.969C156.125 158.969 157.719 155.969 157.719 152.594C157.719 149.219 156.125 146.188 152.719 146.188C149.25 146.188 147.656 149.219 147.656 152.594C147.656 155.969 149.25 158.969 152.719 158.969ZM178.375 161.344C174.156 161.344 171.156 157.938 171.156 152.562C171.156 147.188 174.156 143.812 178.406 143.812C181.688 143.812 182.75 145.812 183.312 146.719H183.5V138.375H186.219V161H183.594V158.406H183.312C182.719 159.344 181.625 161.344 178.375 161.344ZM178.75 158.938C181.844 158.938 183.594 156.312 183.594 152.5C183.594 148.75 181.906 146.219 178.75 146.219C175.5 146.219 173.875 148.969 173.875 152.5C173.875 156.125 175.531 158.938 178.75 158.938ZM197.812 161.344C193.188 161.344 190.062 157.875 190.062 152.594C190.062 147.312 193.188 143.812 197.812 143.812C202.406 143.812 205.5 147.312 205.5 152.594C205.5 157.875 202.406 161.344 197.812 161.344ZM197.812 158.969C201.219 158.969 202.812 155.969 202.812 152.594C202.812 149.219 201.219 146.188 197.812 146.188C194.344 146.188 192.75 149.219 192.75 152.594C192.75 155.969 194.344 158.969 197.812 158.969ZM215.906 167.719C211.812 167.719 209.031 165.938 208.719 162.781H211.531C211.906 164.5 213.5 165.375 215.906 165.375C218.812 165.375 220.594 164.125 220.594 161.312V157.875H220.375C219.812 158.812 218.719 160.75 215.438 160.75C211.312 160.75 208.219 157.625 208.219 152.281C208.219 147.062 211.219 143.812 215.469 143.812C218.75 143.812 219.812 145.812 220.438 146.719H220.656V144.031H223.281V161.469C223.281 165.844 220.031 167.719 215.906 167.719ZM215.812 158.344C218.906 158.344 220.656 156.125 220.656 152.375C220.656 148.75 218.969 146.219 215.812 146.219C212.562 146.219 210.938 148.969 210.938 152.375C210.938 155.906 212.594 158.344 215.812 158.344Z" fill="#7B6C6C"/>
<defs>
<linearGradient id="paint0_linear_52_1344" x1="72.6978" y1="-26.5" x2="471.281" y2="346.595" gradientUnits="userSpaceOnUse">
<stop stop-color="#FFE0B0"/>
<stop offset="1" stop-color="#FFE587"/>
</linearGradient>
</defs>
</svg>
