<svg width="374" height="374" viewBox="0 0 374 374" fill="none" xmlns="http://www.w3.org/2000/svg">
<g filter="url(#filter0_d_227_1216)">
<rect x="12" y="8" width="350" height="350" rx="40" fill="white"/>
</g>
<path d="M61.4258 201.338V187.197H66.7383C69.9805 187.197 71.7188 189.17 71.7188 191.884C71.7188 194.599 69.9609 196.552 66.6992 196.552H63.9648V201.338H61.4258ZM63.9648 194.463H66.3477C68.2617 194.463 69.1211 193.388 69.1211 191.884C69.1211 190.361 68.2617 189.326 66.3477 189.326H63.9648V194.463ZM80.4297 196.884V190.732H82.9102V201.338H80.5078V199.463H80.3906C79.9023 200.634 78.7891 201.474 77.207 201.474C75.1172 201.474 73.6719 200.029 73.6523 197.49V190.732H76.1523V197.099C76.1523 198.447 76.9531 199.306 78.1641 199.306C79.2578 199.306 80.4297 198.505 80.4297 196.884ZM90.5859 190.732V192.646H88.4961V198.154C88.4961 199.17 89.0039 199.384 89.6289 199.384C89.9219 199.384 90.4102 199.365 90.7227 199.345V201.377C90.4297 201.435 89.9414 201.474 89.3164 201.474C87.4414 201.474 85.9961 200.556 86.0156 198.564V192.646H84.4922V190.732H86.0156V188.193H88.4961V190.732H90.5859ZM96.7578 198.349C96.7578 195.966 98.7305 195.263 100.703 195.146C101.436 195.097 102.959 195.009 103.418 194.99V194.15C103.418 193.095 102.734 192.49 101.504 192.49C100.391 192.49 99.707 192.998 99.5117 193.759H97.1094C97.2852 191.963 98.9062 190.595 101.562 190.595C103.574 190.595 105.898 191.416 105.898 194.248V201.338H103.516V199.873H103.438C102.969 200.771 101.973 201.552 100.312 201.552C98.2812 201.552 96.7578 200.439 96.7578 198.349ZM99.1602 198.33C99.1602 199.248 99.9023 199.716 100.957 199.716C102.461 199.716 103.438 198.72 103.438 197.529V196.65L101.094 196.806C99.9023 196.904 99.1602 197.392 99.1602 198.33ZM112.988 205.322V190.732H115.43V192.47H115.586C115.977 191.709 116.758 190.595 118.633 190.595C121.074 190.595 123.008 192.509 123.008 196.045C123.008 199.541 121.133 201.533 118.633 201.533C116.797 201.533 115.977 200.439 115.586 199.658H115.488V205.322H112.988ZM115.43 196.025C115.43 198.095 116.328 199.482 117.949 199.482C119.59 199.482 120.469 198.037 120.469 196.025C120.469 194.052 119.609 192.627 117.949 192.627C116.328 192.627 115.43 193.974 115.43 196.025ZM124.961 201.338V190.732H127.461V201.338H124.961ZM126.23 189.228C125.449 189.228 124.785 188.623 124.785 187.861C124.785 187.119 125.449 186.513 126.23 186.513C127.031 186.513 127.676 187.119 127.676 187.861C127.676 188.623 127.031 189.228 126.23 189.228ZM134.473 201.552C131.309 201.552 129.395 199.287 129.395 196.084C129.395 192.841 131.367 190.595 134.473 190.595C137.051 190.595 138.848 192.099 139.023 194.384H136.641C136.445 193.369 135.703 192.588 134.492 192.588C132.949 192.588 131.914 193.896 131.914 196.025C131.914 198.213 132.93 199.521 134.492 199.521C135.605 199.521 136.426 198.877 136.641 197.724H139.023C138.828 199.97 137.129 201.552 134.473 201.552ZM146.191 190.732V192.646H144.102V198.154C144.102 199.17 144.609 199.384 145.234 199.384C145.527 199.384 146.016 199.365 146.328 199.345V201.377C146.035 201.435 145.547 201.474 144.922 201.474C143.047 201.474 141.602 200.556 141.621 198.564V192.646H140.098V190.732H141.621V188.193H144.102V190.732H146.191ZM154.883 196.884V190.732H157.363V201.338H154.961V199.463H154.844C154.355 200.634 153.242 201.474 151.66 201.474C149.57 201.474 148.125 200.029 148.105 197.49V190.732H150.605V197.099C150.605 198.447 151.406 199.306 152.617 199.306C153.711 199.306 154.883 198.505 154.883 196.884ZM159.746 201.338V190.732H162.168V192.49H162.285C162.656 191.279 163.691 190.576 164.902 190.576C165.176 190.576 165.566 190.595 165.801 190.634V192.939C165.586 192.861 165.059 192.783 164.648 192.783C163.262 192.783 162.246 193.74 162.246 195.088V201.338H159.746ZM171.641 201.552C168.438 201.552 166.484 199.423 166.484 196.103C166.484 192.822 168.477 190.595 171.504 190.595C174.102 190.595 176.348 192.216 176.348 195.947V196.728H168.945C168.975 198.535 170.039 199.599 171.66 199.599C172.754 199.599 173.496 199.13 173.809 198.505H176.25C175.801 200.341 174.102 201.552 171.641 201.552ZM168.965 195.029H173.965C173.945 193.584 172.988 192.529 171.543 192.529C170.039 192.529 169.043 193.672 168.965 195.029ZM187.656 201.552C184.57 201.552 182.578 199.365 182.578 196.084C182.578 192.783 184.57 190.595 187.656 190.595C190.762 190.595 192.734 192.783 192.734 196.084C192.734 199.365 190.762 201.552 187.656 201.552ZM187.676 199.56C189.375 199.56 190.215 198.017 190.215 196.064C190.215 194.13 189.375 192.568 187.676 192.568C185.938 192.568 185.098 194.13 185.098 196.064C185.098 198.017 185.938 199.56 187.676 199.56ZM200.039 190.732V192.646H197.852V201.338H195.352V192.646H193.77V190.732H195.352V189.716C195.352 187.646 196.641 186.533 198.672 186.533C199.258 186.533 199.785 186.591 200.254 186.689V188.662C199.844 188.603 199.531 188.584 199.355 188.584C198.34 188.584 197.852 188.994 197.852 189.951V190.732H200.039ZM211.855 190.732V192.646H209.766V198.154C209.766 199.17 210.273 199.384 210.898 199.384C211.191 199.384 211.68 199.365 211.992 199.345V201.377C211.699 201.435 211.211 201.474 210.586 201.474C208.711 201.474 207.266 200.556 207.285 198.564V192.646H205.762V190.732H207.285V188.193H209.766V190.732H211.855ZM216.504 195.127V201.338H214.004V187.197H216.445V192.529H216.582C217.07 191.338 218.086 190.595 219.727 190.595C221.934 190.595 223.379 192.021 223.379 194.58V201.338H220.898V194.97C220.898 193.525 220.117 192.705 218.809 192.705C217.461 192.705 216.504 193.584 216.504 195.127ZM230.449 201.552C227.246 201.552 225.293 199.423 225.293 196.103C225.293 192.822 227.285 190.595 230.312 190.595C232.91 190.595 235.156 192.216 235.156 195.947V196.728H227.754C227.783 198.535 228.848 199.599 230.469 199.599C231.562 199.599 232.305 199.13 232.617 198.505H235.059C234.609 200.341 232.91 201.552 230.449 201.552ZM227.773 195.029H232.773C232.754 193.584 231.797 192.529 230.352 192.529C228.848 192.529 227.852 193.672 227.773 195.029ZM244.336 187.197V201.338H241.836V187.197H244.336ZM251.348 201.552C248.262 201.552 246.27 199.365 246.27 196.084C246.27 192.783 248.262 190.595 251.348 190.595C254.453 190.595 256.426 192.783 256.426 196.084C256.426 199.365 254.453 201.552 251.348 201.552ZM251.367 199.56C253.066 199.56 253.906 198.017 253.906 196.064C253.906 194.13 253.066 192.568 251.367 192.568C249.629 192.568 248.789 194.13 248.789 196.064C248.789 198.017 249.629 199.56 251.367 199.56ZM264.375 193.759C264.219 192.959 263.555 192.451 262.5 192.451C261.426 192.451 260.645 192.978 260.664 193.701C260.645 194.248 261.094 194.658 262.168 194.912L263.965 195.283C265.977 195.732 266.934 196.65 266.953 198.173C266.934 200.166 265.195 201.552 262.422 201.552C259.727 201.552 258.125 200.341 257.871 198.31H260.41C260.566 199.209 261.27 199.658 262.422 199.658C263.613 199.658 264.414 199.17 264.414 198.388C264.414 197.783 263.926 197.392 262.871 197.158L261.172 196.787C259.199 196.396 258.184 195.361 258.184 193.838C258.184 191.884 259.863 190.595 262.461 190.595C265 190.595 266.562 191.826 266.738 193.759H264.375ZM274.141 190.732V192.646H272.051V198.154C272.051 199.17 272.559 199.384 273.184 199.384C273.477 199.384 273.965 199.365 274.277 199.345V201.377C273.984 201.435 273.496 201.474 272.871 201.474C270.996 201.474 269.551 200.556 269.57 198.564V192.646H268.047V190.732H269.57V188.193H272.051V190.732H274.141ZM285.547 205.322V190.732H287.988V192.47H288.145C288.535 191.709 289.316 190.595 291.191 190.595C293.633 190.595 295.566 192.509 295.566 196.045C295.566 199.541 293.691 201.533 291.191 201.533C289.355 201.533 288.535 200.439 288.145 199.658H288.047V205.322H285.547ZM287.988 196.025C287.988 198.095 288.887 199.482 290.508 199.482C292.148 199.482 293.027 198.037 293.027 196.025C293.027 194.052 292.168 192.627 290.508 192.627C288.887 192.627 287.988 193.974 287.988 196.025ZM302.227 201.552C299.023 201.552 297.07 199.423 297.07 196.103C297.07 192.822 299.062 190.595 302.09 190.595C304.688 190.595 306.934 192.216 306.934 195.947V196.728H299.531C299.561 198.535 300.625 199.599 302.246 199.599C303.34 199.599 304.082 199.13 304.395 198.505H306.836C306.387 200.341 304.688 201.552 302.227 201.552ZM299.551 195.029H304.551C304.531 193.584 303.574 192.529 302.129 192.529C300.625 192.529 299.629 193.672 299.551 195.029ZM314.16 190.732V192.646H312.07V198.154C312.07 199.17 312.578 199.384 313.203 199.384C313.496 199.384 313.984 199.365 314.297 199.345V201.377C314.004 201.435 313.516 201.474 312.891 201.474C311.016 201.474 309.57 200.556 309.59 198.564V192.646H308.066V190.732H309.59V188.193H312.07V190.732H314.16Z" fill="#E5E5E5"/>
<path d="M221.806 164.751C223.762 169.195 226.347 173.151 226.347 177.961L148.505 177.961C148.505 173.151 150.927 168.273 152.883 163.829C153.878 161.568 151.654 158.606 150.809 155.687C149.964 152.769 149.315 146.778 151.467 145.016C153.619 143.255 159.695 145.237 159.695 145.237C164.45 146.656 168.33 150.755 171.047 149.696C175.769 147.855 178.831 145.938 187.426 145.938C196.021 145.938 199.245 147.855 203.968 149.696C208.54 151.479 210.299 148.116 213.698 145.938C216.941 143.859 222.661 142.784 224.888 145.016C226.337 146.47 225.973 151.559 224.888 155.995C223.922 159.941 220.886 162.658 221.806 164.751Z" fill="white"/>
<g filter="url(#filter1_f_227_1216)">
<path fill-rule="evenodd" clip-rule="evenodd" d="M223.548 168.589C223.072 167.623 222.578 166.618 222.101 165.531C221.911 165.095 221.803 164.58 221.76 164.002C221.441 163.985 221.119 163.977 220.795 163.977C212.057 163.977 204.803 170.025 203.404 177.961L226.347 177.961C226.347 174.273 225.039 171.617 223.548 168.589Z" fill="#FAE7E9"/>
</g>
<g filter="url(#filter2_f_227_1216)">
<path fill-rule="evenodd" clip-rule="evenodd" d="M152.386 164.161C153.237 164.04 154.107 163.977 154.992 163.977C163.672 163.977 170.877 170.025 172.267 177.961L148.505 177.961C148.505 173.613 149.792 170.699 151.462 166.92C151.661 166.47 151.865 166.008 152.073 165.531C152.242 165.141 152.342 164.678 152.386 164.161Z" fill="#FAE7E9"/>
</g>
<path d="M195.619 167.937C195.619 169.182 194.795 170.192 193.981 170.192C193.166 170.192 192.342 169.182 192.342 167.937C192.342 166.691 192.833 165.531 194.144 165.531C195.128 165.531 195.619 166.691 195.619 167.937Z" fill="black"/>
<path d="M189.633 170.691C189.68 171.29 188.657 173.049 187.234 173.149C185.81 173.249 184.525 171.652 184.478 171.054C184.431 170.455 185.211 169.912 186.635 169.812C188.058 169.712 189.587 170.092 189.633 170.691Z" fill="black"/>
<path d="M182.509 167.937C182.509 169.182 181.685 170.192 180.87 170.192C180.056 170.192 179.232 169.182 179.232 167.937C179.232 166.691 179.723 165.531 181.034 165.531C182.018 165.531 182.509 166.691 182.509 167.937Z" fill="black"/>
<path fill-rule="evenodd" clip-rule="evenodd" d="M219.43 143.089C221.62 142.832 224.01 143.08 225.448 144.515C225.991 145.058 226.288 145.821 226.455 146.607C226.626 147.412 226.683 148.35 226.659 149.347C226.612 151.344 226.238 153.695 225.688 155.935C225.239 157.762 224.367 159.316 223.664 160.569C223.56 160.755 223.459 160.934 223.364 161.106C222.983 161.798 222.706 162.356 222.567 162.842C222.432 163.311 222.448 163.638 222.569 163.91C222.917 164.7 223.298 165.512 223.685 166.337C224.341 167.735 225.014 169.17 225.574 170.587C226.481 172.88 227.167 175.284 227.167 177.824C227.167 178.329 226.733 178.738 226.197 178.738C225.662 178.738 225.228 178.329 225.228 177.824C225.228 175.592 224.626 173.42 223.758 171.227C223.212 169.846 222.588 168.517 221.953 167.164C221.56 166.329 221.164 165.484 220.779 164.614C220.441 163.848 220.491 163.079 220.696 162.365C220.895 161.669 221.263 160.956 221.644 160.264C221.747 160.075 221.853 159.885 221.96 159.694C222.667 158.432 223.411 157.1 223.799 155.522C224.33 153.363 224.678 151.142 224.721 149.306C224.743 148.387 224.688 147.594 224.554 146.966C224.417 146.32 224.218 145.95 224.039 145.771C223.258 144.992 221.69 144.666 219.67 144.904C217.707 145.135 215.621 145.869 214.14 146.815C213.351 147.318 212.65 147.895 211.934 148.488L211.876 148.535C211.195 149.099 210.481 149.69 209.719 150.16C208.922 150.653 208.029 151.041 206.98 151.161C205.928 151.281 204.797 151.121 203.535 150.631C202.822 150.355 202.157 150.083 201.513 149.819C199.961 149.184 198.528 148.597 196.83 148.112C194.471 147.437 191.624 146.972 187.426 146.972C183.228 146.972 180.422 147.437 178.106 148.111C176.484 148.582 175.117 149.147 173.632 149.761C172.951 150.042 172.245 150.334 171.478 150.631C170.503 151.01 169.494 150.895 168.562 150.604C167.637 150.314 166.674 149.815 165.723 149.282C165.381 149.091 165.039 148.895 164.694 148.697C163.049 147.754 161.353 146.782 159.51 146.234L159.457 146.219L159.407 146.198L159.407 146.198L159.407 146.198L159.407 146.198L159.405 146.197L159.393 146.192C159.382 146.187 159.365 146.18 159.342 146.171C159.296 146.152 159.226 146.125 159.136 146.09C158.956 146.02 158.695 145.922 158.376 145.813C157.736 145.593 156.881 145.33 155.998 145.148C155.099 144.963 154.245 144.877 153.577 144.961C152.92 145.043 152.62 145.259 152.482 145.534C151.892 146.71 151.529 148.496 151.429 150.393C151.331 152.282 151.499 154.16 151.885 155.487C152.083 156.17 152.356 156.892 152.652 157.654C152.689 157.748 152.726 157.843 152.763 157.939C153.022 158.602 153.291 159.292 153.515 159.967C154.011 161.461 154.391 163.161 153.749 164.614C153.522 165.127 153.293 165.637 153.066 166.143C151.302 170.066 149.624 173.8 149.624 177.824C149.624 178.329 149.19 178.738 148.654 178.738C148.119 178.738 147.685 178.329 147.685 177.824C147.685 173.401 149.534 169.302 151.283 165.422C151.512 164.914 151.739 164.411 151.96 163.91C152.309 163.121 152.158 162.001 151.665 160.513C151.456 159.885 151.205 159.24 150.945 158.573C150.908 158.477 150.87 158.38 150.832 158.283C150.537 157.523 150.238 156.736 150.015 155.971C149.559 154.402 149.388 152.319 149.493 150.303C149.598 148.297 149.984 146.238 150.73 144.752C151.259 143.696 152.318 143.274 153.322 143.148C154.317 143.024 155.428 143.159 156.411 143.361C157.409 143.567 158.353 143.858 159.041 144.095C159.386 144.214 159.671 144.321 159.872 144.398C159.972 144.437 160.051 144.468 160.106 144.49C160.12 144.496 160.132 144.501 160.143 144.505C162.214 145.129 164.133 146.232 165.764 147.17C166.092 147.358 166.408 147.54 166.712 147.71C167.657 148.238 168.463 148.646 169.172 148.868C169.874 149.087 170.363 149.087 170.741 148.94C171.421 148.676 172.083 148.403 172.743 148.13C174.279 147.496 175.804 146.866 177.535 146.363C180.061 145.629 183.062 145.143 187.426 145.143C191.79 145.143 194.829 145.629 197.393 146.362C199.203 146.88 200.789 147.529 202.383 148.181C203.007 148.436 203.632 148.692 204.273 148.94C205.288 149.334 206.084 149.421 206.747 149.346C207.414 149.269 208.025 149.021 208.658 148.63C209.304 148.231 209.929 147.714 210.653 147.115L210.655 147.113C211.362 146.528 212.149 145.877 213.053 145.3C214.803 144.184 217.181 143.354 219.43 143.089Z" fill="black"/>
<defs>
<filter id="filter0_d_227_1216" x="0" y="0" width="374" height="374" filterUnits="userSpaceOnUse" color-interpolation-filters="sRGB">
<feFlood flood-opacity="0" result="BackgroundImageFix"/>
<feColorMatrix in="SourceAlpha" type="matrix" values="0 0 0 0 0 0 0 0 0 0 0 0 0 0 0 0 0 0 127 0" result="hardAlpha"/>
<feOffset dy="4"/>
<feGaussianBlur stdDeviation="6"/>
<feComposite in2="hardAlpha" operator="out"/>
<feColorMatrix type="matrix" values="0 0 0 0 0 0 0 0 0 0 0 0 0 0 0 0 0 0 0.1 0"/>
<feBlend mode="normal" in2="BackgroundImageFix" result="effect1_dropShadow_227_1216"/>
<feBlend mode="normal" in="SourceGraphic" in2="effect1_dropShadow_227_1216" result="shape"/>
</filter>
<filter id="filter1_f_227_1216" x="199.404" y="159.977" width="30.9431" height="21.9846" filterUnits="userSpaceOnUse" color-interpolation-filters="sRGB">
<feFlood flood-opacity="0" result="BackgroundImageFix"/>
<feBlend mode="normal" in="SourceGraphic" in2="BackgroundImageFix" result="shape"/>
<feGaussianBlur stdDeviation="2" result="effect1_foregroundBlur_227_1216"/>
</filter>
<filter id="filter2_f_227_1216" x="144.505" y="159.977" width="31.7625" height="21.9846" filterUnits="userSpaceOnUse" color-interpolation-filters="sRGB">
<feFlood flood-opacity="0" result="BackgroundImageFix"/>
<feBlend mode="normal" in="SourceGraphic" in2="BackgroundImageFix" result="shape"/>
<feGaussianBlur stdDeviation="2" result="effect1_foregroundBlur_227_1216"/>
</filter>
</defs>
</svg>
